<?xml version="1.0" encoding="utf-8" standalone="no"?>
<!DOCTYPE svg PUBLIC "-//W3C//DTD SVG 1.1//EN"
  "http://www.w3.org/Graphics/SVG/1.1/DTD/svg11.dtd">
<svg xmlns:xlink="http://www.w3.org/1999/xlink" width="460.8pt" height="345.6pt" viewBox="0 0 460.8 345.6" xmlns="http://www.w3.org/2000/svg" version="1.1">
 <metadata>
  <rdf:RDF xmlns:dc="http://purl.org/dc/elements/1.1/" xmlns:cc="http://creativecommons.org/ns#" xmlns:rdf="http://www.w3.org/1999/02/22-rdf-syntax-ns#">
   <cc:Work>
    <dc:type rdf:resource="http://purl.org/dc/dcmitype/StillImage"/>
    <dc:date>2023-04-17T15:21:27.494962</dc:date>
    <dc:format>image/svg+xml</dc:format>
    <dc:creator>
     <cc:Agent>
      <dc:title>Matplotlib v3.7.1, https://matplotlib.org/</dc:title>
     </cc:Agent>
    </dc:creator>
   </cc:Work>
  </rdf:RDF>
 </metadata>
 <defs>
  <style type="text/css">*{stroke-linejoin: round; stroke-linecap: butt}</style>
 </defs>
 <g id="figure_1">
  <g id="patch_1">
   <path d="M 0 345.6 
L 460.8 345.6 
L 460.8 0 
L 0 0 
z
" style="fill: #ffffff"/>
  </g>
  <g id="axes_1">
   <g id="patch_2">
    <path d="M 57.6 307.584 
L 414.72 307.584 
L 414.72 41.472 
L 57.6 41.472 
z
" style="fill: #ffffff"/>
   </g>
   <g id="matplotlib.axis_1">
    <g id="xtick_1">
     <g id="line2d_1">
      <defs>
       <path id="md2fcd293c2" d="M 0 0 
L 0 3.5 
" style="stroke: #000000; stroke-width: 0.8"/>
      </defs>
      <g>
       <use xlink:href="#md2fcd293c2" x="74.175241" y="307.584" style="stroke: #000000; stroke-width: 0.8"/>
      </g>
     </g>
     <g id="text_1">
      <!-- 90.0 -->
      <g transform="translate(63.042429 322.182437) scale(0.1 -0.1)">
       <defs>
        <path id="DejaVuSans-39" d="M 703 97 
L 703 672 
Q 941 559 1184 500 
Q 1428 441 1663 441 
Q 2288 441 2617 861 
Q 2947 1281 2994 2138 
Q 2813 1869 2534 1725 
Q 2256 1581 1919 1581 
Q 1219 1581 811 2004 
Q 403 2428 403 3163 
Q 403 3881 828 4315 
Q 1253 4750 1959 4750 
Q 2769 4750 3195 4129 
Q 3622 3509 3622 2328 
Q 3622 1225 3098 567 
Q 2575 -91 1691 -91 
Q 1453 -91 1209 -44 
Q 966 3 703 97 
z
M 1959 2075 
Q 2384 2075 2632 2365 
Q 2881 2656 2881 3163 
Q 2881 3666 2632 3958 
Q 2384 4250 1959 4250 
Q 1534 4250 1286 3958 
Q 1038 3666 1038 3163 
Q 1038 2656 1286 2365 
Q 1534 2075 1959 2075 
z
" transform="scale(0.015625)"/>
        <path id="DejaVuSans-30" d="M 2034 4250 
Q 1547 4250 1301 3770 
Q 1056 3291 1056 2328 
Q 1056 1369 1301 889 
Q 1547 409 2034 409 
Q 2525 409 2770 889 
Q 3016 1369 3016 2328 
Q 3016 3291 2770 3770 
Q 2525 4250 2034 4250 
z
M 2034 4750 
Q 2819 4750 3233 4129 
Q 3647 3509 3647 2328 
Q 3647 1150 3233 529 
Q 2819 -91 2034 -91 
Q 1250 -91 836 529 
Q 422 1150 422 2328 
Q 422 3509 836 4129 
Q 1250 4750 2034 4750 
z
" transform="scale(0.015625)"/>
        <path id="DejaVuSans-2e" d="M 684 794 
L 1344 794 
L 1344 0 
L 684 0 
L 684 794 
z
" transform="scale(0.015625)"/>
       </defs>
       <use xlink:href="#DejaVuSans-39"/>
       <use xlink:href="#DejaVuSans-30" x="63.623047"/>
       <use xlink:href="#DejaVuSans-2e" x="127.246094"/>
       <use xlink:href="#DejaVuSans-30" x="159.033203"/>
      </g>
     </g>
    </g>
    <g id="xtick_2">
     <g id="line2d_2">
      <g>
       <use xlink:href="#md2fcd293c2" x="114.778606" y="307.584" style="stroke: #000000; stroke-width: 0.8"/>
      </g>
     </g>
     <g id="text_2">
      <!-- 92.5 -->
      <g transform="translate(103.645794 322.182437) scale(0.1 -0.1)">
       <defs>
        <path id="DejaVuSans-32" d="M 1228 531 
L 3431 531 
L 3431 0 
L 469 0 
L 469 531 
Q 828 903 1448 1529 
Q 2069 2156 2228 2338 
Q 2531 2678 2651 2914 
Q 2772 3150 2772 3378 
Q 2772 3750 2511 3984 
Q 2250 4219 1831 4219 
Q 1534 4219 1204 4116 
Q 875 4013 500 3803 
L 500 4441 
Q 881 4594 1212 4672 
Q 1544 4750 1819 4750 
Q 2544 4750 2975 4387 
Q 3406 4025 3406 3419 
Q 3406 3131 3298 2873 
Q 3191 2616 2906 2266 
Q 2828 2175 2409 1742 
Q 1991 1309 1228 531 
z
" transform="scale(0.015625)"/>
        <path id="DejaVuSans-35" d="M 691 4666 
L 3169 4666 
L 3169 4134 
L 1269 4134 
L 1269 2991 
Q 1406 3038 1543 3061 
Q 1681 3084 1819 3084 
Q 2600 3084 3056 2656 
Q 3513 2228 3513 1497 
Q 3513 744 3044 326 
Q 2575 -91 1722 -91 
Q 1428 -91 1123 -41 
Q 819 9 494 109 
L 494 744 
Q 775 591 1075 516 
Q 1375 441 1709 441 
Q 2250 441 2565 725 
Q 2881 1009 2881 1497 
Q 2881 1984 2565 2268 
Q 2250 2553 1709 2553 
Q 1456 2553 1204 2497 
Q 953 2441 691 2322 
L 691 4666 
z
" transform="scale(0.015625)"/>
       </defs>
       <use xlink:href="#DejaVuSans-39"/>
       <use xlink:href="#DejaVuSans-32" x="63.623047"/>
       <use xlink:href="#DejaVuSans-2e" x="127.246094"/>
       <use xlink:href="#DejaVuSans-35" x="159.033203"/>
      </g>
     </g>
    </g>
    <g id="xtick_3">
     <g id="line2d_3">
      <g>
       <use xlink:href="#md2fcd293c2" x="155.381972" y="307.584" style="stroke: #000000; stroke-width: 0.8"/>
      </g>
     </g>
     <g id="text_3">
      <!-- 95.0 -->
      <g transform="translate(144.249159 322.182437) scale(0.1 -0.1)">
       <use xlink:href="#DejaVuSans-39"/>
       <use xlink:href="#DejaVuSans-35" x="63.623047"/>
       <use xlink:href="#DejaVuSans-2e" x="127.246094"/>
       <use xlink:href="#DejaVuSans-30" x="159.033203"/>
      </g>
     </g>
    </g>
    <g id="xtick_4">
     <g id="line2d_4">
      <g>
       <use xlink:href="#md2fcd293c2" x="195.985337" y="307.584" style="stroke: #000000; stroke-width: 0.8"/>
      </g>
     </g>
     <g id="text_4">
      <!-- 97.5 -->
      <g transform="translate(184.852525 322.182437) scale(0.1 -0.1)">
       <defs>
        <path id="DejaVuSans-37" d="M 525 4666 
L 3525 4666 
L 3525 4397 
L 1831 0 
L 1172 0 
L 2766 4134 
L 525 4134 
L 525 4666 
z
" transform="scale(0.015625)"/>
       </defs>
       <use xlink:href="#DejaVuSans-39"/>
       <use xlink:href="#DejaVuSans-37" x="63.623047"/>
       <use xlink:href="#DejaVuSans-2e" x="127.246094"/>
       <use xlink:href="#DejaVuSans-35" x="159.033203"/>
      </g>
     </g>
    </g>
    <g id="xtick_5">
     <g id="line2d_5">
      <g>
       <use xlink:href="#md2fcd293c2" x="236.588703" y="307.584" style="stroke: #000000; stroke-width: 0.8"/>
      </g>
     </g>
     <g id="text_5">
      <!-- 100.0 -->
      <g transform="translate(222.27464 322.182437) scale(0.1 -0.1)">
       <defs>
        <path id="DejaVuSans-31" d="M 794 531 
L 1825 531 
L 1825 4091 
L 703 3866 
L 703 4441 
L 1819 4666 
L 2450 4666 
L 2450 531 
L 3481 531 
L 3481 0 
L 794 0 
L 794 531 
z
" transform="scale(0.015625)"/>
       </defs>
       <use xlink:href="#DejaVuSans-31"/>
       <use xlink:href="#DejaVuSans-30" x="63.623047"/>
       <use xlink:href="#DejaVuSans-30" x="127.246094"/>
       <use xlink:href="#DejaVuSans-2e" x="190.869141"/>
       <use xlink:href="#DejaVuSans-30" x="222.65625"/>
      </g>
     </g>
    </g>
    <g id="xtick_6">
     <g id="line2d_6">
      <g>
       <use xlink:href="#md2fcd293c2" x="277.192068" y="307.584" style="stroke: #000000; stroke-width: 0.8"/>
      </g>
     </g>
     <g id="text_6">
      <!-- 102.5 -->
      <g transform="translate(262.878005 322.182437) scale(0.1 -0.1)">
       <use xlink:href="#DejaVuSans-31"/>
       <use xlink:href="#DejaVuSans-30" x="63.623047"/>
       <use xlink:href="#DejaVuSans-32" x="127.246094"/>
       <use xlink:href="#DejaVuSans-2e" x="190.869141"/>
       <use xlink:href="#DejaVuSans-35" x="222.65625"/>
      </g>
     </g>
    </g>
    <g id="xtick_7">
     <g id="line2d_7">
      <g>
       <use xlink:href="#md2fcd293c2" x="317.795433" y="307.584" style="stroke: #000000; stroke-width: 0.8"/>
      </g>
     </g>
     <g id="text_7">
      <!-- 105.0 -->
      <g transform="translate(303.481371 322.182437) scale(0.1 -0.1)">
       <use xlink:href="#DejaVuSans-31"/>
       <use xlink:href="#DejaVuSans-30" x="63.623047"/>
       <use xlink:href="#DejaVuSans-35" x="127.246094"/>
       <use xlink:href="#DejaVuSans-2e" x="190.869141"/>
       <use xlink:href="#DejaVuSans-30" x="222.65625"/>
      </g>
     </g>
    </g>
    <g id="xtick_8">
     <g id="line2d_8">
      <g>
       <use xlink:href="#md2fcd293c2" x="358.398799" y="307.584" style="stroke: #000000; stroke-width: 0.8"/>
      </g>
     </g>
     <g id="text_8">
      <!-- 107.5 -->
      <g transform="translate(344.084736 322.182437) scale(0.1 -0.1)">
       <use xlink:href="#DejaVuSans-31"/>
       <use xlink:href="#DejaVuSans-30" x="63.623047"/>
       <use xlink:href="#DejaVuSans-37" x="127.246094"/>
       <use xlink:href="#DejaVuSans-2e" x="190.869141"/>
       <use xlink:href="#DejaVuSans-35" x="222.65625"/>
      </g>
     </g>
    </g>
    <g id="xtick_9">
     <g id="line2d_9">
      <g>
       <use xlink:href="#md2fcd293c2" x="399.002164" y="307.584" style="stroke: #000000; stroke-width: 0.8"/>
      </g>
     </g>
     <g id="text_9">
      <!-- 110.0 -->
      <g transform="translate(384.688102 322.182437) scale(0.1 -0.1)">
       <use xlink:href="#DejaVuSans-31"/>
       <use xlink:href="#DejaVuSans-31" x="63.623047"/>
       <use xlink:href="#DejaVuSans-30" x="127.246094"/>
       <use xlink:href="#DejaVuSans-2e" x="190.869141"/>
       <use xlink:href="#DejaVuSans-30" x="222.65625"/>
      </g>
     </g>
    </g>
    <g id="text_10">
     <!-- time [s] -->
     <g transform="translate(216.768594 335.860562) scale(0.1 -0.1)">
      <defs>
       <path id="DejaVuSans-74" d="M 1172 4494 
L 1172 3500 
L 2356 3500 
L 2356 3053 
L 1172 3053 
L 1172 1153 
Q 1172 725 1289 603 
Q 1406 481 1766 481 
L 2356 481 
L 2356 0 
L 1766 0 
Q 1100 0 847 248 
Q 594 497 594 1153 
L 594 3053 
L 172 3053 
L 172 3500 
L 594 3500 
L 594 4494 
L 1172 4494 
z
" transform="scale(0.015625)"/>
       <path id="DejaVuSans-69" d="M 603 3500 
L 1178 3500 
L 1178 0 
L 603 0 
L 603 3500 
z
M 603 4863 
L 1178 4863 
L 1178 4134 
L 603 4134 
L 603 4863 
z
" transform="scale(0.015625)"/>
       <path id="DejaVuSans-6d" d="M 3328 2828 
Q 3544 3216 3844 3400 
Q 4144 3584 4550 3584 
Q 5097 3584 5394 3201 
Q 5691 2819 5691 2113 
L 5691 0 
L 5113 0 
L 5113 2094 
Q 5113 2597 4934 2840 
Q 4756 3084 4391 3084 
Q 3944 3084 3684 2787 
Q 3425 2491 3425 1978 
L 3425 0 
L 2847 0 
L 2847 2094 
Q 2847 2600 2669 2842 
Q 2491 3084 2119 3084 
Q 1678 3084 1418 2786 
Q 1159 2488 1159 1978 
L 1159 0 
L 581 0 
L 581 3500 
L 1159 3500 
L 1159 2956 
Q 1356 3278 1631 3431 
Q 1906 3584 2284 3584 
Q 2666 3584 2933 3390 
Q 3200 3197 3328 2828 
z
" transform="scale(0.015625)"/>
       <path id="DejaVuSans-65" d="M 3597 1894 
L 3597 1613 
L 953 1613 
Q 991 1019 1311 708 
Q 1631 397 2203 397 
Q 2534 397 2845 478 
Q 3156 559 3463 722 
L 3463 178 
Q 3153 47 2828 -22 
Q 2503 -91 2169 -91 
Q 1331 -91 842 396 
Q 353 884 353 1716 
Q 353 2575 817 3079 
Q 1281 3584 2069 3584 
Q 2775 3584 3186 3129 
Q 3597 2675 3597 1894 
z
M 3022 2063 
Q 3016 2534 2758 2815 
Q 2500 3097 2075 3097 
Q 1594 3097 1305 2825 
Q 1016 2553 972 2059 
L 3022 2063 
z
" transform="scale(0.015625)"/>
       <path id="DejaVuSans-20" transform="scale(0.015625)"/>
       <path id="DejaVuSans-5b" d="M 550 4863 
L 1875 4863 
L 1875 4416 
L 1125 4416 
L 1125 -397 
L 1875 -397 
L 1875 -844 
L 550 -844 
L 550 4863 
z
" transform="scale(0.015625)"/>
       <path id="DejaVuSans-73" d="M 2834 3397 
L 2834 2853 
Q 2591 2978 2328 3040 
Q 2066 3103 1784 3103 
Q 1356 3103 1142 2972 
Q 928 2841 928 2578 
Q 928 2378 1081 2264 
Q 1234 2150 1697 2047 
L 1894 2003 
Q 2506 1872 2764 1633 
Q 3022 1394 3022 966 
Q 3022 478 2636 193 
Q 2250 -91 1575 -91 
Q 1294 -91 989 -36 
Q 684 19 347 128 
L 347 722 
Q 666 556 975 473 
Q 1284 391 1588 391 
Q 1994 391 2212 530 
Q 2431 669 2431 922 
Q 2431 1156 2273 1281 
Q 2116 1406 1581 1522 
L 1381 1569 
Q 847 1681 609 1914 
Q 372 2147 372 2553 
Q 372 3047 722 3315 
Q 1072 3584 1716 3584 
Q 2034 3584 2315 3537 
Q 2597 3491 2834 3397 
z
" transform="scale(0.015625)"/>
       <path id="DejaVuSans-5d" d="M 1947 4863 
L 1947 -844 
L 622 -844 
L 622 -397 
L 1369 -397 
L 1369 4416 
L 622 4416 
L 622 4863 
L 1947 4863 
z
" transform="scale(0.015625)"/>
      </defs>
      <use xlink:href="#DejaVuSans-74"/>
      <use xlink:href="#DejaVuSans-69" x="39.208984"/>
      <use xlink:href="#DejaVuSans-6d" x="66.992188"/>
      <use xlink:href="#DejaVuSans-65" x="164.404297"/>
      <use xlink:href="#DejaVuSans-20" x="225.927734"/>
      <use xlink:href="#DejaVuSans-5b" x="257.714844"/>
      <use xlink:href="#DejaVuSans-73" x="296.728516"/>
      <use xlink:href="#DejaVuSans-5d" x="348.828125"/>
     </g>
    </g>
   </g>
   <g id="matplotlib.axis_2">
    <g id="ytick_1">
     <g id="line2d_10">
      <defs>
       <path id="m9f0cf445ee" d="M 0 0 
L -3.5 0 
" style="stroke: #000000; stroke-width: 0.8"/>
      </defs>
      <g>
       <use xlink:href="#m9f0cf445ee" x="57.6" y="293.859041" style="stroke: #000000; stroke-width: 0.8"/>
      </g>
     </g>
     <g id="text_11">
      <!-- 332 -->
      <g transform="translate(31.5125 297.658259) scale(0.1 -0.1)">
       <defs>
        <path id="DejaVuSans-33" d="M 2597 2516 
Q 3050 2419 3304 2112 
Q 3559 1806 3559 1356 
Q 3559 666 3084 287 
Q 2609 -91 1734 -91 
Q 1441 -91 1130 -33 
Q 819 25 488 141 
L 488 750 
Q 750 597 1062 519 
Q 1375 441 1716 441 
Q 2309 441 2620 675 
Q 2931 909 2931 1356 
Q 2931 1769 2642 2001 
Q 2353 2234 1838 2234 
L 1294 2234 
L 1294 2753 
L 1863 2753 
Q 2328 2753 2575 2939 
Q 2822 3125 2822 3475 
Q 2822 3834 2567 4026 
Q 2313 4219 1838 4219 
Q 1578 4219 1281 4162 
Q 984 4106 628 3988 
L 628 4550 
Q 988 4650 1302 4700 
Q 1616 4750 1894 4750 
Q 2613 4750 3031 4423 
Q 3450 4097 3450 3541 
Q 3450 3153 3228 2886 
Q 3006 2619 2597 2516 
z
" transform="scale(0.015625)"/>
       </defs>
       <use xlink:href="#DejaVuSans-33"/>
       <use xlink:href="#DejaVuSans-33" x="63.623047"/>
       <use xlink:href="#DejaVuSans-32" x="127.246094"/>
      </g>
     </g>
    </g>
    <g id="ytick_2">
     <g id="line2d_11">
      <g>
       <use xlink:href="#m9f0cf445ee" x="57.6" y="255.601286" style="stroke: #000000; stroke-width: 0.8"/>
      </g>
     </g>
     <g id="text_12">
      <!-- 334 -->
      <g transform="translate(31.5125 259.400505) scale(0.1 -0.1)">
       <defs>
        <path id="DejaVuSans-34" d="M 2419 4116 
L 825 1625 
L 2419 1625 
L 2419 4116 
z
M 2253 4666 
L 3047 4666 
L 3047 1625 
L 3713 1625 
L 3713 1100 
L 3047 1100 
L 3047 0 
L 2419 0 
L 2419 1100 
L 313 1100 
L 313 1709 
L 2253 4666 
z
" transform="scale(0.015625)"/>
       </defs>
       <use xlink:href="#DejaVuSans-33"/>
       <use xlink:href="#DejaVuSans-33" x="63.623047"/>
       <use xlink:href="#DejaVuSans-34" x="127.246094"/>
      </g>
     </g>
    </g>
    <g id="ytick_3">
     <g id="line2d_12">
      <g>
       <use xlink:href="#m9f0cf445ee" x="57.6" y="217.343531" style="stroke: #000000; stroke-width: 0.8"/>
      </g>
     </g>
     <g id="text_13">
      <!-- 336 -->
      <g transform="translate(31.5125 221.14275) scale(0.1 -0.1)">
       <defs>
        <path id="DejaVuSans-36" d="M 2113 2584 
Q 1688 2584 1439 2293 
Q 1191 2003 1191 1497 
Q 1191 994 1439 701 
Q 1688 409 2113 409 
Q 2538 409 2786 701 
Q 3034 994 3034 1497 
Q 3034 2003 2786 2293 
Q 2538 2584 2113 2584 
z
M 3366 4563 
L 3366 3988 
Q 3128 4100 2886 4159 
Q 2644 4219 2406 4219 
Q 1781 4219 1451 3797 
Q 1122 3375 1075 2522 
Q 1259 2794 1537 2939 
Q 1816 3084 2150 3084 
Q 2853 3084 3261 2657 
Q 3669 2231 3669 1497 
Q 3669 778 3244 343 
Q 2819 -91 2113 -91 
Q 1303 -91 875 529 
Q 447 1150 447 2328 
Q 447 3434 972 4092 
Q 1497 4750 2381 4750 
Q 2619 4750 2861 4703 
Q 3103 4656 3366 4563 
z
" transform="scale(0.015625)"/>
       </defs>
       <use xlink:href="#DejaVuSans-33"/>
       <use xlink:href="#DejaVuSans-33" x="63.623047"/>
       <use xlink:href="#DejaVuSans-36" x="127.246094"/>
      </g>
     </g>
    </g>
    <g id="ytick_4">
     <g id="line2d_13">
      <g>
       <use xlink:href="#m9f0cf445ee" x="57.6" y="179.085776" style="stroke: #000000; stroke-width: 0.8"/>
      </g>
     </g>
     <g id="text_14">
      <!-- 338 -->
      <g transform="translate(31.5125 182.884995) scale(0.1 -0.1)">
       <defs>
        <path id="DejaVuSans-38" d="M 2034 2216 
Q 1584 2216 1326 1975 
Q 1069 1734 1069 1313 
Q 1069 891 1326 650 
Q 1584 409 2034 409 
Q 2484 409 2743 651 
Q 3003 894 3003 1313 
Q 3003 1734 2745 1975 
Q 2488 2216 2034 2216 
z
M 1403 2484 
Q 997 2584 770 2862 
Q 544 3141 544 3541 
Q 544 4100 942 4425 
Q 1341 4750 2034 4750 
Q 2731 4750 3128 4425 
Q 3525 4100 3525 3541 
Q 3525 3141 3298 2862 
Q 3072 2584 2669 2484 
Q 3125 2378 3379 2068 
Q 3634 1759 3634 1313 
Q 3634 634 3220 271 
Q 2806 -91 2034 -91 
Q 1263 -91 848 271 
Q 434 634 434 1313 
Q 434 1759 690 2068 
Q 947 2378 1403 2484 
z
M 1172 3481 
Q 1172 3119 1398 2916 
Q 1625 2713 2034 2713 
Q 2441 2713 2670 2916 
Q 2900 3119 2900 3481 
Q 2900 3844 2670 4047 
Q 2441 4250 2034 4250 
Q 1625 4250 1398 4047 
Q 1172 3844 1172 3481 
z
" transform="scale(0.015625)"/>
       </defs>
       <use xlink:href="#DejaVuSans-33"/>
       <use xlink:href="#DejaVuSans-33" x="63.623047"/>
       <use xlink:href="#DejaVuSans-38" x="127.246094"/>
      </g>
     </g>
    </g>
    <g id="ytick_5">
     <g id="line2d_14">
      <g>
       <use xlink:href="#m9f0cf445ee" x="57.6" y="140.828021" style="stroke: #000000; stroke-width: 0.8"/>
      </g>
     </g>
     <g id="text_15">
      <!-- 340 -->
      <g transform="translate(31.5125 144.62724) scale(0.1 -0.1)">
       <use xlink:href="#DejaVuSans-33"/>
       <use xlink:href="#DejaVuSans-34" x="63.623047"/>
       <use xlink:href="#DejaVuSans-30" x="127.246094"/>
      </g>
     </g>
    </g>
    <g id="ytick_6">
     <g id="line2d_15">
      <g>
       <use xlink:href="#m9f0cf445ee" x="57.6" y="102.570266" style="stroke: #000000; stroke-width: 0.8"/>
      </g>
     </g>
     <g id="text_16">
      <!-- 342 -->
      <g transform="translate(31.5125 106.369485) scale(0.1 -0.1)">
       <use xlink:href="#DejaVuSans-33"/>
       <use xlink:href="#DejaVuSans-34" x="63.623047"/>
       <use xlink:href="#DejaVuSans-32" x="127.246094"/>
      </g>
     </g>
    </g>
    <g id="ytick_7">
     <g id="line2d_16">
      <g>
       <use xlink:href="#m9f0cf445ee" x="57.6" y="64.312511" style="stroke: #000000; stroke-width: 0.8"/>
      </g>
     </g>
     <g id="text_17">
      <!-- 344 -->
      <g transform="translate(31.5125 68.11173) scale(0.1 -0.1)">
       <use xlink:href="#DejaVuSans-33"/>
       <use xlink:href="#DejaVuSans-34" x="63.623047"/>
       <use xlink:href="#DejaVuSans-34" x="127.246094"/>
      </g>
     </g>
    </g>
    <g id="text_18">
     <!-- $\theta$ [deg] -->
     <g transform="translate(25.4125 192.528) rotate(-90) scale(0.1 -0.1)">
      <defs>
       <path id="DejaVuSans-Oblique-3b8" d="M 2913 2219 
L 925 2219 
Q 791 1284 928 888 
Q 1100 400 1566 400 
Q 2034 400 2391 891 
Q 2703 1322 2913 2219 
z
M 3009 2750 
Q 3094 3638 2984 3950 
Q 2813 4444 2353 4444 
Q 1875 4444 1525 3956 
Q 1250 3563 1034 2750 
L 3009 2750 
z
M 2444 4913 
Q 3194 4913 3494 4250 
Q 3794 3591 3566 2422 
Q 3341 1256 2781 594 
Q 2225 -72 1475 -72 
Q 722 -72 425 594 
Q 128 1256 353 2422 
Q 581 3591 1134 4250 
Q 1691 4913 2444 4913 
z
" transform="scale(0.015625)"/>
       <path id="DejaVuSans-64" d="M 2906 2969 
L 2906 4863 
L 3481 4863 
L 3481 0 
L 2906 0 
L 2906 525 
Q 2725 213 2448 61 
Q 2172 -91 1784 -91 
Q 1150 -91 751 415 
Q 353 922 353 1747 
Q 353 2572 751 3078 
Q 1150 3584 1784 3584 
Q 2172 3584 2448 3432 
Q 2725 3281 2906 2969 
z
M 947 1747 
Q 947 1113 1208 752 
Q 1469 391 1925 391 
Q 2381 391 2643 752 
Q 2906 1113 2906 1747 
Q 2906 2381 2643 2742 
Q 2381 3103 1925 3103 
Q 1469 3103 1208 2742 
Q 947 2381 947 1747 
z
" transform="scale(0.015625)"/>
       <path id="DejaVuSans-67" d="M 2906 1791 
Q 2906 2416 2648 2759 
Q 2391 3103 1925 3103 
Q 1463 3103 1205 2759 
Q 947 2416 947 1791 
Q 947 1169 1205 825 
Q 1463 481 1925 481 
Q 2391 481 2648 825 
Q 2906 1169 2906 1791 
z
M 3481 434 
Q 3481 -459 3084 -895 
Q 2688 -1331 1869 -1331 
Q 1566 -1331 1297 -1286 
Q 1028 -1241 775 -1147 
L 775 -588 
Q 1028 -725 1275 -790 
Q 1522 -856 1778 -856 
Q 2344 -856 2625 -561 
Q 2906 -266 2906 331 
L 2906 616 
Q 2728 306 2450 153 
Q 2172 0 1784 0 
Q 1141 0 747 490 
Q 353 981 353 1791 
Q 353 2603 747 3093 
Q 1141 3584 1784 3584 
Q 2172 3584 2450 3431 
Q 2728 3278 2906 2969 
L 2906 3500 
L 3481 3500 
L 3481 434 
z
" transform="scale(0.015625)"/>
      </defs>
      <use xlink:href="#DejaVuSans-Oblique-3b8" transform="translate(0 0.234375)"/>
      <use xlink:href="#DejaVuSans-20" transform="translate(61.181641 0.234375)"/>
      <use xlink:href="#DejaVuSans-5b" transform="translate(92.96875 0.234375)"/>
      <use xlink:href="#DejaVuSans-64" transform="translate(131.982422 0.234375)"/>
      <use xlink:href="#DejaVuSans-65" transform="translate(195.458984 0.234375)"/>
      <use xlink:href="#DejaVuSans-67" transform="translate(256.982422 0.234375)"/>
      <use xlink:href="#DejaVuSans-5d" transform="translate(320.458984 0.234375)"/>
     </g>
    </g>
   </g>
   <g id="line2d_17">
    <path d="M 73.832727 83.251832 
L 73.996034 64.107129 
L 74.322664 89.34334 
L 74.649277 84.814235 
L 74.812584 80.252111 
L 74.975891 84.251562 
L 75.302504 76.986272 
L 75.465827 87.389548 
L 75.629134 67.406333 
L 75.792441 79.195087 
L 75.955747 100.932434 
L 76.119054 94.068267 
L 76.282361 93.445443 
L 76.445668 84.379073 
L 76.608974 102.849313 
L 76.772281 104.09244 
L 76.935604 123.657522 
L 77.098911 127.379444 
L 77.262217 98.484561 
L 77.425524 121.96441 
L 77.588831 128.315929 
L 77.752138 129.517107 
L 77.915444 145.84525 
L 78.078751 133.060411 
L 78.242074 154.099248 
L 78.568681 131.036739 
L 78.731987 133.143336 
L 78.895294 126.198027 
L 79.221908 138.55732 
L 79.385214 102.000281 
L 79.711828 134.506301 
L 79.875151 112.108484 
L 80.038458 112.935335 
L 80.365071 136.168859 
L 80.528378 111.139261 
L 80.691685 109.86184 
L 80.854991 122.092583 
L 81.018298 98.915043 
L 81.344928 125.274859 
L 81.508234 113.490831 
L 81.671541 116.926806 
L 81.834848 104.99947 
L 82.324768 138.311121 
L 82.488075 115.344318 
L 82.651398 120.945718 
L 82.814705 121.559114 
L 82.978011 122.661723 
L 83.304625 111.360185 
L 83.631238 84.169015 
L 83.794545 91.149268 
L 83.957852 91.149268 
L 84.121175 72.161846 
L 84.284481 97.672454 
L 84.447788 100.377494 
L 84.774402 95.181996 
L 84.937708 109.987527 
L 85.264322 87.455582 
L 85.590952 115.930734 
L 85.917565 104.751568 
L 86.080872 128.959695 
L 86.244179 113.351887 
L 86.407485 132.908871 
L 86.734099 123.579181 
L 86.897405 95.949848 
L 87.060712 93.311568 
L 87.224035 84.458373 
L 87.550649 116.948936 
L 87.877262 93.67606 
L 88.203876 126.498247 
L 88.530489 104.427286 
L 88.693812 76.325352 
L 89.020426 67.244337 
L 89.183732 70.618112 
L 89.347039 80.089222 
L 89.510346 78.013774 
L 89.836959 91.756942 
L 90.000266 74.698525 
L 90.163589 107.6039 
L 90.326896 104.250777 
L 90.490202 107.382125 
L 90.653509 104.271226 
L 90.816816 109.255815 
L 90.980123 101.173166 
L 91.143429 109.030107 
L 91.306736 80.894189 
L 91.470043 83.983148 
L 91.796672 105.46927 
L 91.959979 102.390661 
L 92.123286 110.803742 
L 92.286593 84.783768 
L 92.449899 87.67836 
L 92.613206 79.671997 
L 92.93982 113.859377 
L 93.103126 109.130709 
L 93.266449 97.08986 
L 93.429756 99.688222 
L 93.593063 106.0735 
L 93.75637 96.387795 
L 93.919676 106.548692 
L 94.082983 108.111983 
L 94.24629 126.614375 
L 94.409597 111.785694 
L 94.572903 116.931978 
L 94.73623 107.601891 
L 94.899537 106.139295 
L 95.062844 120.669908 
L 95.22615 116.974883 
L 95.389457 102.278175 
L 95.552764 124.056197 
L 95.716071 118.847472 
L 96.042684 98.949941 
L 96.205991 92.713848 
L 96.369314 96.707629 
L 96.532621 79.516273 
L 96.695927 91.186713 
L 96.859234 91.187499 
L 97.022541 97.004954 
L 97.185848 85.760637 
L 97.349154 95.718174 
L 97.512461 81.505254 
L 97.675768 106.430541 
L 97.839074 89.357503 
L 98.002397 110.083189 
L 98.165704 102.367056 
L 98.329011 100.887481 
L 98.492318 111.556625 
L 98.655624 93.669734 
L 98.818931 89.155975 
L 99.145545 70.123453 
L 99.308851 78.480097 
L 99.472158 72.193895 
L 99.635481 77.694014 
L 99.798788 95.629439 
L 99.962095 81.973923 
L 100.288708 103.201499 
L 100.452015 105.244866 
L 100.615321 100.451618 
L 100.778628 88.634131 
L 101.105258 110.859568 
L 101.431871 95.884694 
L 101.595178 98.486342 
L 101.758485 96.861114 
L 101.921792 101.228251 
L 102.085098 78.163251 
L 102.248405 80.174425 
L 102.411712 85.153445 
L 102.901648 123.040183 
L 103.064955 121.718407 
L 103.228262 84.668417 
L 103.391568 89.164415 
L 103.718182 105.865131 
L 103.881489 105.865131 
L 104.044795 106.792766 
L 104.371409 96.167253 
L 104.698039 100.152867 
L 104.861345 96.245077 
L 105.024652 95.47698 
L 105.351266 103.115334 
L 105.514572 91.285923 
L 105.677879 116.175308 
L 105.841186 98.872242 
L 106.004492 98.937017 
L 106.167815 92.911293 
L 106.331122 94.928798 
L 106.657736 114.867622 
L 106.821042 93.867624 
L 106.984349 92.829451 
L 107.147656 78.986003 
L 107.310963 90.127428 
L 107.474269 92.50046 
L 107.637576 91.857081 
L 107.800899 96.252912 
L 107.964206 84.619544 
L 108.127513 90.743702 
L 108.290819 90.875733 
L 108.454126 92.314072 
L 108.617433 75.221711 
L 108.780739 98.884103 
L 108.944046 96.166212 
L 109.107353 77.694202 
L 109.433983 95.336985 
L 109.597289 109.667 
L 109.760596 107.566494 
L 110.08721 86.338031 
L 110.413823 101.496621 
L 110.57713 67.663209 
L 110.903742 99.066698 
L 111.067049 74.630566 
L 111.393678 103.432563 
L 111.556985 101.506339 
L 111.720292 98.165509 
L 111.883599 85.561564 
L 112.046905 94.057323 
L 112.210212 92.056091 
L 112.700132 120.094156 
L 113.190069 99.522721 
L 113.516682 112.020586 
L 113.679989 103.652819 
L 113.843296 87.19018 
L 114.006602 103.337474 
L 114.169909 96.324748 
L 114.333216 73.618534 
L 114.496523 114.816747 
L 114.659846 114.567301 
L 114.823152 99.549416 
L 114.986459 100.137122 
L 115.313073 88.515767 
L 115.476379 98.782736 
L 115.639686 85.48822 
L 115.802993 98.956689 
L 115.966299 100.849442 
L 116.129606 89.905686 
L 116.619543 107.441818 
L 116.782849 95.382972 
L 116.946156 92.157574 
L 117.109463 93.677389 
L 117.436076 112.171542 
L 117.599383 85.067296 
L 117.76269 96.542853 
L 117.925997 97.679271 
L 118.089303 66.533717 
L 118.252626 85.940938 
L 118.415933 85.817052 
L 118.57924 86.587908 
L 118.742546 88.155439 
L 118.905853 98.439986 
L 119.06916 99.229238 
L 119.395773 123.06588 
L 119.55908 96.969728 
L 119.722387 97.509232 
L 119.885694 93.534026 
L 120.212323 117.75605 
L 120.538937 100.953946 
L 120.702244 108.64761 
L 120.86555 90.572053 
L 121.192164 100.217889 
L 121.35547 88.375017 
L 121.518777 84.892381 
L 121.682084 114.06743 
L 121.845407 81.876533 
L 122.008714 84.862575 
L 122.17202 53.568 
L 122.498634 100.643008 
L 122.661941 88.397981 
L 122.825247 88.517363 
L 122.988554 86.74237 
L 123.315168 101.076741 
L 123.478474 103.398142 
L 123.641781 97.123603 
L 123.805104 97.123603 
L 123.968411 115.002635 
L 124.295024 106.938973 
L 124.458331 99.077896 
L 124.621638 97.274692 
L 124.948251 102.443421 
L 125.111558 105.031219 
L 125.274865 122.316415 
L 125.438171 89.676846 
L 125.601494 91.024035 
L 125.928108 83.618559 
L 126.091415 84.379968 
L 126.418028 107.876686 
L 126.581335 104.93829 
L 126.744641 123.739268 
L 126.907948 116.636675 
L 127.071255 101.806236 
L 127.234558 100.232844 
L 127.397864 113.959307 
L 127.561187 94.405219 
L 127.887801 119.007426 
L 128.051108 114.589115 
L 128.214414 99.966181 
L 128.377721 110.215884 
L 128.541028 111.534879 
L 128.704334 106.890929 
L 128.867641 98.216669 
L 129.030948 104.581444 
L 129.194255 104.42998 
L 129.357578 98.822412 
L 129.520884 78.984609 
L 129.684191 81.514073 
L 130.010805 107.411323 
L 130.174111 83.849183 
L 130.337418 109.619034 
L 130.500725 106.797647 
L 130.664032 126.283006 
L 130.827338 127.849461 
L 130.990645 123.656832 
L 131.153952 101.375152 
L 131.480581 116.871519 
L 131.643888 97.390306 
L 131.807195 109.908672 
L 131.970502 105.16994 
L 132.297115 140.088096 
L 132.623729 118.630803 
L 132.787035 143.865086 
L 132.950342 136.936072 
L 133.113649 139.443754 
L 133.276972 110.502832 
L 133.440279 113.620562 
L 133.603585 108.499444 
L 133.766892 132.681726 
L 134.093505 94.654793 
L 134.256812 119.354961 
L 134.583426 106.3861 
L 134.746732 116.937657 
L 134.910039 106.736844 
L 135.073346 107.4308 
L 135.236653 112.156743 
L 135.399976 112.525136 
L 135.563282 122.099873 
L 135.889896 124.308105 
L 136.053203 114.214394 
L 136.216509 127.015973 
L 136.543123 113.79629 
L 136.70643 109.969567 
L 136.869736 119.518886 
L 137.033043 101.624522 
L 137.19635 118.077823 
L 137.359673 120.494098 
L 137.522979 116.229282 
L 137.686286 101.223754 
L 138.0129 118.854302 
L 138.176206 117.985242 
L 138.339513 99.470634 
L 138.666127 111.117613 
L 138.829433 101.421633 
L 138.99274 105.766053 
L 139.156047 118.570064 
L 139.319354 103.953971 
L 139.645983 110.950686 
L 139.80929 108.011275 
L 140.135903 99.093095 
L 140.462517 105.884237 
L 140.625824 106.010118 
L 140.952437 122.280093 
L 141.115744 130.71668 
L 141.279051 123.433547 
L 141.442374 130.555363 
L 141.60568 107.507845 
L 141.768987 119.384472 
L 141.932294 109.491936 
L 142.0956 90.884425 
L 142.258907 96.679452 
L 142.422214 92.909818 
L 142.585521 106.928289 
L 142.748827 101.812654 
L 142.912134 108.113725 
L 143.075441 96.212606 
L 143.238748 98.72157 
L 143.402064 105.172113 
L 143.565387 105.172113 
L 143.728694 94.277145 
L 143.892001 100.726022 
L 144.055308 113.044505 
L 144.218614 114.056742 
L 144.381921 96.973126 
L 144.545228 109.213797 
L 144.708535 111.668108 
L 144.871841 100.759948 
L 145.035148 101.466091 
L 145.198455 99.659876 
L 145.361762 99.67092 
L 145.525068 97.11686 
L 145.688391 99.559438 
L 145.851698 96.915916 
L 146.015005 102.783784 
L 146.341618 145.12964 
L 146.504925 133.349752 
L 146.831538 101.195683 
L 146.994845 119.998778 
L 147.158152 114.007175 
L 147.321459 98.28657 
L 147.484765 104.035392 
L 147.648072 129.237058 
L 147.811379 104.848355 
L 148.301315 138.1924 
L 148.464622 135.819261 
L 148.627929 156.769859 
L 148.791235 137.293338 
L 148.954542 154.194048 
L 149.444462 107.394287 
L 149.607769 120.344301 
L 149.771076 104.776038 
L 150.097706 148.829543 
L 150.261012 160.041305 
L 150.587626 140.817934 
L 150.750933 144.984759 
L 150.914239 141.036862 
L 151.077546 152.864612 
L 151.240853 143.404276 
L 151.404159 151.146307 
L 151.567466 136.600062 
L 151.730773 135.72735 
L 151.89408 142.705933 
L 152.057386 140.832104 
L 152.220693 150.075734 
L 152.384016 145.167506 
L 152.71063 163.725891 
L 153.20055 150.526268 
L 153.363857 165.884338 
L 153.527163 161.528403 
L 153.853777 177.015216 
L 154.017083 181.570039 
L 154.18039 182.562784 
L 154.343697 159.877358 
L 154.507004 181.086923 
L 154.670327 185.597422 
L 154.833633 167.174464 
L 154.99694 171.93711 
L 155.160247 171.922007 
L 155.323554 166.781185 
L 155.48686 167.669208 
L 155.650167 192.780791 
L 155.976781 187.369157 
L 156.140087 188.270971 
L 156.303394 199.357589 
L 156.466701 194.226367 
L 156.793314 163.786988 
L 157.119944 201.650068 
L 157.283251 206.242396 
L 157.446557 201.384199 
L 157.773171 183.070005 
L 157.936478 184.385315 
L 158.099784 161.3029 
L 158.263091 187.779245 
L 158.589705 179.940126 
L 158.753011 184.664603 
L 158.916318 169.80838 
L 159.079625 175.845674 
L 159.242931 196.038488 
L 159.73287 165.311275 
L 159.896177 185.722004 
L 160.22279 175.729007 
L 160.386097 172.577431 
L 160.71271 180.854571 
L 160.876017 178.939189 
L 161.039324 188.711958 
L 161.202631 224.082393 
L 161.365937 219.469491 
L 162.019181 188.392725 
L 162.509101 179.853358 
L 162.672408 203.968277 
L 162.835714 204.318316 
L 162.999021 199.3425 
L 163.162328 202.330186 
L 163.325634 202.330186 
L 163.488941 209.447252 
L 163.815555 196.33119 
L 163.978861 194.552045 
L 164.305491 217.910965 
L 164.468798 182.661271 
L 164.795411 203.396389 
L 164.958718 190.347832 
L 165.122025 227.548867 
L 165.285332 223.108438 
L 165.448638 201.635451 
L 165.775252 213.129289 
L 165.938558 199.857736 
L 166.101865 202.58758 
L 166.265172 199.619073 
L 166.428479 209.225132 
L 166.591785 206.370516 
L 166.755092 230.877061 
L 166.918415 210.764263 
L 167.245029 221.69624 
L 167.408335 213.379543 
L 167.571642 218.014916 
L 167.734949 214.785368 
L 167.898256 227.261123 
L 168.061562 228.316843 
L 168.388176 199.701265 
L 168.551482 194.120252 
L 168.878096 218.804712 
L 169.041403 210.469758 
L 169.204709 214.684454 
L 169.368016 236.61288 
L 169.694646 216.135869 
L 169.857953 221.152646 
L 170.184566 213.439183 
L 170.347873 220.707629 
L 170.51118 204.947859 
L 170.674486 215.204554 
L 170.837793 207.864266 
L 171.0011 213.772834 
L 171.164406 215.49666 
L 171.327713 228.805947 
L 171.654327 198.94256 
L 171.817633 212.363025 
L 171.98094 193.74674 
L 172.144263 232.122752 
L 172.470877 219.240013 
L 172.79749 200.659821 
L 173.124104 231.65011 
L 173.28741 220.681751 
L 173.450717 226.471674 
L 173.614024 226.983196 
L 173.777331 218.441205 
L 173.940637 216.090288 
L 174.103944 217.725725 
L 174.267251 206.288419 
L 174.430557 204.807058 
L 174.593864 215.781737 
L 174.757187 210.81881 
L 174.920494 217.163424 
L 175.083801 201.354155 
L 175.737028 238.054163 
L 176.063629 225.967675 
L 176.226936 243.52315 
L 176.553549 217.399506 
L 176.716856 236.742882 
L 176.880163 240.546364 
L 177.043469 218.747048 
L 177.206776 215.299629 
L 177.370083 223.581178 
L 177.533389 218.855979 
L 177.696712 233.762883 
L 177.860019 236.891297 
L 178.023326 217.348448 
L 178.349939 236.600605 
L 178.513246 232.348477 
L 178.676553 241.632386 
L 179.003166 228.678632 
L 179.166473 202.372972 
L 179.32978 231.402595 
L 179.493087 223.400321 
L 179.656393 237.953283 
L 179.8197 240.293679 
L 179.983007 250.013644 
L 180.30962 209.173088 
L 180.472943 229.166263 
L 180.63625 231.085823 
L 180.799557 259.336494 
L 181.289477 220.476779 
L 181.452784 239.242099 
L 181.61609 236.869111 
L 181.779397 241.167713 
L 181.942704 238.864792 
L 182.106011 240.878977 
L 182.432624 219.511993 
L 182.922544 261.009644 
L 183.085851 263.400892 
L 183.249158 263.400892 
L 183.412464 227.251892 
L 183.575787 229.568527 
L 183.902401 249.378796 
L 184.065708 244.140969 
L 184.229014 217.450178 
L 184.392321 213.711747 
L 184.555628 213.539866 
L 184.718935 212.972439 
L 184.882241 207.5503 
L 185.045548 233.135539 
L 185.372162 214.043468 
L 185.535468 223.058396 
L 185.862082 216.504609 
L 186.025388 219.023221 
L 186.188695 216.45919 
L 186.352002 223.794946 
L 186.515309 216.470245 
L 186.841938 220.189861 
L 187.005245 229.171335 
L 187.168552 230.087008 
L 187.331859 213.329787 
L 187.495165 235.875422 
L 187.658472 229.349039 
L 187.821779 240.602744 
L 187.985086 236.855194 
L 188.148392 238.806093 
L 188.475006 212.881428 
L 188.638312 215.440614 
L 188.801619 210.104939 
L 188.964926 235.684287 
L 189.128233 219.680064 
L 189.291539 225.753317 
L 189.454846 218.558318 
L 189.618153 217.038825 
L 190.108089 230.817077 
L 190.271396 223.65789 
L 190.59801 244.858298 
L 190.761316 242.104937 
L 190.924623 218.410654 
L 191.414543 228.041857 
L 191.57785 220.189028 
L 191.741157 217.791815 
L 191.904463 206.150558 
L 192.06777 218.341715 
L 192.231075 221.126581 
L 192.394382 206.830332 
L 192.557688 245.671594 
L 192.720995 228.815366 
L 192.884302 228.645899 
L 193.047625 230.587597 
L 193.210931 213.509191 
L 193.374238 209.232158 
L 193.537545 200.368411 
L 193.700852 225.045463 
L 193.864158 231.268631 
L 194.027465 230.569536 
L 194.190772 238.096301 
L 194.354079 231.282587 
L 194.517385 218.54074 
L 194.680692 196.222566 
L 194.843999 211.865712 
L 195.007306 243.992119 
L 195.170612 238.945404 
L 195.497226 193.026191 
L 195.660532 195.697007 
L 195.823839 219.464162 
L 195.987146 212.73275 
L 196.150453 223.811453 
L 196.313759 226.773419 
L 196.477082 224.295418 
L 196.640389 227.26075 
L 196.803696 221.732325 
L 196.967003 224.538545 
L 197.130309 222.238957 
L 197.293616 228.315845 
L 197.456923 241.409435 
L 197.62023 244.013302 
L 197.783536 235.405247 
L 197.946843 251.974528 
L 198.273456 222.750816 
L 198.436763 229.385838 
L 198.60007 228.448507 
L 198.926683 184.171226 
L 199.253297 201.257945 
L 199.416604 218.924982 
L 199.579911 217.105266 
L 199.906524 233.807856 
L 200.069831 234.558242 
L 200.233154 239.992855 
L 200.39646 249.336044 
L 200.559767 235.779496 
L 200.88638 257.045083 
L 201.049687 250.826948 
L 201.212994 226.184832 
L 201.376301 259.051405 
L 201.539607 233.872681 
L 201.702914 237.221833 
L 201.866221 258.451247 
L 202.029528 258.994784 
L 202.192834 234.063742 
L 202.519448 250.916451 
L 202.682755 248.108817 
L 203.009368 233.273676 
L 203.172675 233.273676 
L 203.335982 250.21921 
L 203.499288 253.354182 
L 203.662595 251.138726 
L 203.825902 235.717579 
L 203.989208 242.596746 
L 204.152532 243.11384 
L 204.315838 247.819311 
L 204.479145 230.921934 
L 204.805758 239.623564 
L 204.969065 239.803252 
L 205.132372 254.540035 
L 205.295679 258.966884 
L 205.458985 252.57581 
L 205.785599 228.560487 
L 205.948906 250.031648 
L 206.112212 235.508365 
L 206.275519 262.689133 
L 206.438826 265.726655 
L 206.602132 260.93428 
L 206.765439 261.490591 
L 206.928746 250.799945 
L 207.092053 253.582082 
L 207.255359 260.613704 
L 207.418666 236.340051 
L 207.581973 231.490452 
L 207.74528 207.847459 
L 208.071893 229.21774 
L 208.235216 218.31536 
L 208.398523 233.452375 
L 208.561834 230.716803 
L 208.72514 237.66873 
L 208.888447 229.322322 
L 209.051754 228.347119 
L 209.215061 208.977944 
L 209.378367 217.388764 
L 209.541674 210.109838 
L 209.704981 224.958311 
L 209.868287 219.476308 
L 210.031594 207.785097 
L 210.194901 205.125863 
L 210.358208 197.299665 
L 211.011435 240.157323 
L 211.174741 233.07004 
L 211.338048 231.714815 
L 211.664662 246.712009 
L 211.827968 247.420666 
L 211.991275 237.206548 
L 212.154582 238.312877 
L 212.317905 256.732935 
L 212.481211 242.724836 
L 212.644518 253.09801 
L 212.807825 252.979581 
L 212.971132 238.974531 
L 213.134439 245.115806 
L 213.461052 238.434433 
L 213.624359 253.918281 
L 213.787665 247.93338 
L 213.950972 263.305625 
L 214.114279 235.240347 
L 214.277586 245.361878 
L 214.604199 231.116519 
L 214.767506 225.925933 
L 214.930813 213.428223 
L 215.094119 229.737465 
L 215.257426 210.428156 
L 215.584039 246.99096 
L 215.910653 236.494572 
L 216.07396 245.218498 
L 216.237266 239.542293 
L 216.400573 223.867589 
L 216.56388 234.329961 
L 216.727187 209.795039 
L 216.890493 216.284308 
L 217.053816 240.876683 
L 217.217123 224.35743 
L 217.38043 225.098283 
L 217.707043 238.636446 
L 217.87035 216.031447 
L 218.033657 224.418152 
L 218.196964 216.510142 
L 218.36027 234.374799 
L 218.686884 210.029732 
L 219.013497 243.768337 
L 219.340111 217.870664 
L 219.503417 211.244106 
L 219.666724 190.805056 
L 219.993338 210.623525 
L 220.156644 212.411321 
L 220.319951 227.884989 
L 220.646565 202.839024 
L 220.973178 205.663798 
L 221.136485 203.50819 
L 221.299791 197.864539 
L 221.789728 224.021447 
L 221.953035 207.572511 
L 222.279648 224.581228 
L 222.442955 211.751656 
L 222.606262 210.126556 
L 222.769568 189.094032 
L 222.932875 189.094032 
L 223.096182 193.845326 
L 223.586102 227.881535 
L 223.749409 225.016559 
L 224.076022 211.885779 
L 224.239329 209.921137 
L 224.402636 203.524815 
L 224.565942 218.878415 
L 224.729248 223.06014 
L 224.892555 204.343034 
L 225.055862 201.530338 
L 225.219169 226.811674 
L 225.545782 196.355902 
L 225.872396 205.615145 
L 226.035702 196.824282 
L 226.199009 215.541013 
L 226.362316 219.552041 
L 226.525623 217.23777 
L 226.688929 188.920461 
L 226.852236 204.32107 
L 227.015543 201.065695 
L 227.178866 209.29821 
L 227.342173 231.293647 
L 227.668786 217.552816 
L 227.832093 234.117809 
L 227.995399 224.156304 
L 228.158706 249.05329 
L 228.322013 244.102548 
L 228.48532 246.133377 
L 228.648626 255.323014 
L 228.811933 244.697032 
L 228.97524 243.419568 
L 229.138547 246.139562 
L 229.301853 233.798079 
L 229.46516 258.171226 
L 229.791774 228.937703 
L 230.118387 256.161157 
L 230.445 249.021017 
L 230.608307 239.38245 
L 230.771614 256.884208 
L 230.934921 256.614232 
L 231.098227 255.352312 
L 231.261534 211.983794 
L 231.588148 248.479894 
L 231.751454 254.198785 
L 231.914761 228.315177 
L 232.078068 222.739392 
L 232.241375 250.015479 
L 232.404681 254.475843 
L 232.567988 247.128185 
L 232.731295 222.619151 
L 232.894602 242.538754 
L 233.057908 245.89272 
L 233.221215 241.737606 
L 233.384538 244.156912 
L 233.547845 265.1742 
L 233.711151 268.903317 
L 233.874458 262.307108 
L 234.037765 248.965325 
L 234.201072 247.333042 
L 234.364378 253.178391 
L 234.690992 240.826236 
L 234.854299 253.219777 
L 235.017605 250.614043 
L 235.344219 233.003838 
L 235.507526 237.527097 
L 235.834139 213.989324 
L 236.160752 239.10236 
L 236.487366 248.091505 
L 236.650673 240.976556 
L 236.81398 250.182716 
L 236.977286 251.338656 
L 237.140593 258.83449 
L 237.3039 259.530878 
L 237.467207 248.860766 
L 237.630513 263.899 
L 237.79382 253.632133 
L 237.957127 252.355678 
L 238.120434 246.495913 
L 238.28374 255.741117 
L 238.447047 251.620538 
L 238.610354 233.330196 
L 238.773661 256.875972 
L 238.936967 233.048826 
L 239.100274 239.96256 
L 239.263581 236.766511 
L 239.590194 261.088447 
L 239.753501 237.581724 
L 239.916808 240.214341 
L 240.080114 240.364603 
L 240.243421 241.820451 
L 240.406728 250.295214 
L 240.570035 249.649478 
L 240.896664 231.038654 
L 241.059973 242.271973 
L 241.223279 237.940271 
L 241.386586 237.640449 
L 241.549893 260.396565 
L 241.876506 240.374996 
L 242.039813 254.918262 
L 242.366427 237.667965 
L 242.529733 237.667965 
L 242.69304 243.173029 
L 242.856347 244.35935 
L 243.019654 255.429472 
L 243.18296 246.366402 
L 243.346267 249.908753 
L 243.509574 239.197329 
L 243.67288 248.759106 
L 243.836187 249.330403 
L 243.999494 246.855508 
L 244.162801 235.140859 
L 244.326107 231.966278 
L 244.489414 233.415168 
L 244.652721 242.023634 
L 244.816028 241.196701 
L 244.979334 235.684571 
L 245.142641 246.880116 
L 245.305948 241.961517 
L 245.469255 265.863837 
L 245.632561 230.324201 
L 245.795868 254.756331 
L 245.959175 232.497306 
L 246.122482 231.619191 
L 246.285788 246.504983 
L 246.449095 248.343477 
L 246.612402 255.552315 
L 246.939015 227.168508 
L 247.265629 277.409735 
L 247.428935 269.882575 
L 247.592242 273.849347 
L 247.755549 261.154821 
L 247.918856 264.002772 
L 248.245469 277.151753 
L 248.572083 235.722022 
L 248.898696 249.472254 
L 249.062003 245.32864 
L 249.388616 223.795251 
L 249.551923 234.103834 
L 249.71523 258.254094 
L 249.878536 241.29912 
L 250.041843 262.330702 
L 250.20515 240.043441 
L 250.368457 259.689023 
L 250.531763 256.049986 
L 250.695086 257.186259 
L 250.858393 262.318621 
L 251.185007 249.269218 
L 251.348313 249.803645 
L 251.51162 255.945191 
L 251.674927 271.033678 
L 251.838234 251.324523 
L 252.00154 262.48721 
L 252.164847 261.331701 
L 252.328154 252.890172 
L 252.49146 260.831731 
L 252.654767 235.031641 
L 252.818074 230.859149 
L 252.981381 253.727229 
L 253.144687 255.206865 
L 253.307994 250.944345 
L 253.634608 232.777591 
L 253.797914 237.746412 
L 253.961221 212.526471 
L 254.124528 211.826989 
L 254.287835 225.331948 
L 254.451141 227.324684 
L 254.777755 254.985768 
L 254.941061 265.071588 
L 255.104368 263.157137 
L 255.267675 238.322079 
L 255.430982 251.925799 
L 255.594288 230.333549 
L 255.757595 239.707933 
L 255.920902 228.644727 
L 256.247515 243.180356 
L 256.410822 236.0993 
L 256.574129 244.151641 
L 256.737436 244.861571 
L 256.900742 215.985444 
L 257.064049 241.976861 
L 257.227362 250.271344 
L 257.390669 223.643186 
L 257.553976 223.839038 
L 257.880589 269.211351 
L 258.207203 229.846662 
L 258.370509 247.700943 
L 258.533816 245.451116 
L 258.697123 230.863397 
L 258.86043 247.319848 
L 259.023736 237.033409 
L 259.187043 244.580522 
L 259.35035 244.971159 
L 259.513657 265.214981 
L 260.003577 227.281867 
L 260.33019 248.244282 
L 260.82011 224.43717 
L 260.983417 245.717766 
L 261.146724 232.260742 
L 261.310031 229.573548 
L 261.473337 229.757655 
L 261.636644 234.488986 
L 261.799951 223.736851 
L 261.963258 230.077946 
L 262.126564 230.077946 
L 262.453178 226.235278 
L 262.616485 219.276218 
L 262.779791 229.479654 
L 262.943098 231.054273 
L 263.106405 228.033541 
L 263.269711 221.46428 
L 263.433018 208.45428 
L 263.596325 223.48609 
L 263.759632 225.860728 
L 263.922938 223.806849 
L 264.086245 238.588522 
L 264.249552 220.54569 
L 264.576165 210.998387 
L 264.739472 225.479784 
L 264.902779 210.095582 
L 265.066086 232.377588 
L 265.392699 200.271887 
L 265.556006 204.343236 
L 265.719313 200.641535 
L 265.882619 200.079494 
L 266.045926 194.481895 
L 266.209233 202.642547 
L 266.372539 205.148046 
L 266.699153 214.59552 
L 266.86246 191.61075 
L 267.189073 208.170693 
L 267.35238 199.518776 
L 267.678993 225.572027 
L 267.8423 216.52203 
L 268.005607 226.455405 
L 268.168914 218.591733 
L 268.33222 220.478391 
L 268.495527 229.936323 
L 268.658834 228.931508 
L 268.82214 240.475857 
L 268.985447 239.41794 
L 269.148754 209.310801 
L 269.312061 207.837754 
L 269.475367 199.014895 
L 269.638674 223.835985 
L 269.801981 227.663908 
L 269.965288 222.778213 
L 270.128594 196.438016 
L 270.291901 205.950978 
L 270.455208 198.837857 
L 270.618515 217.181971 
L 270.781821 211.323524 
L 270.945128 200.235586 
L 271.108435 212.338624 
L 271.271742 210.601011 
L 271.435048 219.792695 
L 271.598355 199.944127 
L 271.761662 221.784085 
L 271.924968 199.701953 
L 272.088275 198.119682 
L 272.414889 203.830716 
L 272.741502 221.100397 
L 272.904809 198.080382 
L 273.231422 235.46439 
L 273.394729 220.099891 
L 273.558033 242.09925 
L 273.721339 223.777432 
L 273.884646 251.585647 
L 274.047953 218.916045 
L 274.21126 219.706745 
L 274.537873 209.635364 
L 274.70118 211.8181 
L 274.864486 201.439922 
L 275.027793 208.675008 
L 275.1911 208.234737 
L 275.354407 200.147316 
L 275.517713 210.686951 
L 275.68102 208.664277 
L 275.844327 210.47004 
L 276.007634 203.092054 
L 276.17094 201.197081 
L 276.334247 229.923641 
L 276.660861 210.404208 
L 276.824167 206.371184 
L 276.987474 237.321497 
L 277.150781 222.229927 
L 277.314087 227.580401 
L 277.477394 223.741064 
L 277.640701 234.219229 
L 277.804008 213.434421 
L 277.967314 242.230872 
L 278.130621 247.624168 
L 278.293928 266.932577 
L 278.457235 251.858383 
L 278.620541 252.734653 
L 278.783848 245.858692 
L 278.947155 247.67757 
L 279.110462 223.945675 
L 279.437075 250.756579 
L 279.600382 219.817112 
L 279.763689 252.207738 
L 279.926995 253.734203 
L 280.253609 244.938739 
L 280.416915 242.798062 
L 280.580222 253.48661 
L 280.743529 253.093113 
L 280.906836 255.536374 
L 281.070142 253.953623 
L 281.233449 254.458866 
L 281.396756 277.424674 
L 281.560063 277.424674 
L 281.723369 263.787087 
L 281.886676 278.676473 
L 282.049983 271.095563 
L 282.21329 255.805412 
L 282.376596 263.705926 
L 282.539903 256.273797 
L 282.70321 231.808995 
L 282.866517 237.00632 
L 283.029823 234.958031 
L 283.19313 249.661031 
L 283.68305 217.379301 
L 284.009664 248.614913 
L 284.17297 229.496022 
L 284.499584 249.746502 
L 285.152811 219.850736 
L 285.316118 221.340466 
L 285.479424 234.086048 
L 285.806038 223.511947 
L 285.969344 229.81033 
L 286.132651 245.503497 
L 286.295958 224.572829 
L 286.622571 263.185187 
L 286.785878 229.348257 
L 286.949185 220.871258 
L 287.112492 244.257413 
L 287.275798 235.76731 
L 287.439105 247.616816 
L 287.602412 230.294027 
L 287.765719 237.192952 
L 287.929025 226.740108 
L 288.092332 203.205397 
L 288.418946 239.700607 
L 288.582252 227.946247 
L 288.745559 225.035661 
L 288.908866 237.046933 
L 289.072172 228.488216 
L 289.235479 236.759362 
L 289.398786 228.811244 
L 289.725417 247.535051 
L 289.888724 248.699753 
L 290.052031 248.425709 
L 290.215337 256.605131 
L 290.378644 255.119436 
L 290.541951 233.930871 
L 290.868564 243.465074 
L 291.195178 246.949268 
L 291.358485 241.884718 
L 291.521791 248.340591 
L 291.685098 228.177665 
L 291.848405 252.819798 
L 292.175018 240.025844 
L 292.338325 244.878448 
L 292.501632 241.483266 
L 292.664939 248.878225 
L 293.154859 209.284946 
L 293.481472 217.764628 
L 293.644779 225.486789 
L 293.808086 239.458592 
L 294.134699 228.196623 
L 294.298006 243.71485 
L 294.461313 229.909669 
L 294.624619 250.061774 
L 294.951233 217.518945 
L 295.277846 251.278356 
L 295.60446 222.506427 
L 295.931073 205.53463 
L 296.09438 232.049528 
L 296.257687 226.288603 
L 296.420993 225.040502 
L 296.5843 220.986351 
L 296.910914 199.153706 
L 297.07422 212.593016 
L 297.237527 204.171128 
L 297.400834 222.559329 
L 297.564141 225.60054 
L 297.727447 202.673781 
L 297.890754 201.919677 
L 298.054061 207.010257 
L 298.380674 229.475966 
L 298.543981 223.608602 
L 298.707288 207.06326 
L 298.870594 218.711962 
L 299.033901 210.150621 
L 299.197208 224.945461 
L 299.360515 218.386038 
L 299.523821 236.897981 
L 299.850435 211.930479 
L 300.340355 224.106016 
L 300.503662 237.849602 
L 300.666969 210.841694 
L 300.830275 215.524362 
L 300.993582 229.638541 
L 301.156889 229.638541 
L 301.320195 216.906097 
L 301.483486 224.268277 
L 301.646793 225.402195 
L 301.810099 227.407599 
L 301.973406 211.932792 
L 302.136713 215.382875 
L 302.30002 212.926441 
L 302.463326 240.924202 
L 302.78994 220.88692 
L 302.953247 220.627852 
L 303.116553 212.902514 
L 303.27986 188.290389 
L 303.443167 219.943123 
L 304.096394 202.15519 
L 304.423007 264.549019 
L 304.586314 246.436984 
L 304.749621 256.796267 
L 304.912927 232.460789 
L 305.076234 228.128822 
L 305.239541 246.719245 
L 305.402848 240.678388 
L 305.566154 222.731836 
L 305.729461 222.446928 
L 306.05605 234.601092 
L 306.219357 235.929877 
L 306.382664 227.044524 
L 306.54597 234.879315 
L 306.872584 268.089676 
L 307.199197 236.093844 
L 307.362504 250.006364 
L 307.525811 228.870719 
L 307.689118 228.773254 
L 307.852424 233.064267 
L 308.015731 210.40459 
L 308.179038 218.295651 
L 308.342345 220.078171 
L 308.505651 235.627053 
L 308.668958 230.678743 
L 308.832265 254.916123 
L 308.995571 252.231448 
L 309.158878 236.336253 
L 309.322185 257.83906 
L 309.485492 252.853183 
L 309.648798 236.747342 
L 309.812105 238.818167 
L 309.975412 252.324967 
L 310.138719 247.647017 
L 310.465332 225.303445 
L 310.628639 227.124217 
L 310.791946 234.273599 
L 310.955252 227.019097 
L 311.118559 233.881703 
L 311.281866 233.393731 
L 311.608479 220.300086 
L 311.935093 239.712039 
L 312.098399 238.06728 
L 312.26169 241.748999 
L 312.424997 232.840965 
L 312.588303 235.172357 
L 312.75161 215.444227 
L 313.24153 246.924967 
L 313.404837 230.190559 
L 313.568144 230.609812 
L 313.731451 212.647038 
L 313.894757 242.566659 
L 314.058064 233.313001 
L 314.221371 232.613495 
L 314.384677 245.357963 
L 314.547984 247.122616 
L 314.711291 221.611417 
L 314.874598 223.274082 
L 315.037904 234.4813 
L 315.201211 218.226965 
L 315.364518 236.273693 
L 315.527825 204.903764 
L 315.691131 214.823267 
L 315.854438 234.2003 
L 316.017745 231.954708 
L 316.181052 235.142026 
L 316.344358 225.976338 
L 316.670972 239.911918 
L 316.834279 208.702558 
L 317.160892 218.822159 
L 317.324199 201.075227 
L 317.487505 223.261531 
L 317.650812 205.525174 
L 317.977426 193.258593 
L 318.140732 213.397222 
L 318.304039 206.879288 
L 318.467346 194.928469 
L 318.630653 209.146757 
L 318.793959 209.069457 
L 318.957266 211.996172 
L 319.120573 198.255672 
L 319.28388 205.66849 
L 319.447186 229.683524 
L 319.610493 214.448207 
L 319.7738 229.454959 
L 319.937106 208.746216 
L 320.263704 236.193021 
L 320.753624 224.513738 
L 320.916931 222.699376 
L 321.080237 233.374488 
L 321.243544 227.476806 
L 321.406851 235.180623 
L 321.570158 221.436704 
L 321.733464 238.739501 
L 321.896771 235.942198 
L 322.060078 230.696803 
L 322.223393 220.659931 
L 322.386699 220.785779 
L 322.550006 230.467634 
L 322.713313 230.858961 
L 322.87662 241.269144 
L 323.203233 227.684789 
L 323.36654 222.673744 
L 323.529847 238.448329 
L 323.693153 223.719302 
L 323.85646 224.466505 
L 324.019767 220.607621 
L 324.183073 223.246607 
L 324.509687 217.864556 
L 324.672994 191.010324 
L 324.8363 211.164585 
L 324.999607 207.425115 
L 325.326221 230.89401 
L 325.652834 216.236814 
L 325.816141 228.17375 
L 325.979448 214.588628 
L 326.142754 216.721537 
L 326.306061 214.311716 
L 326.469368 204.871828 
L 326.632658 188.284591 
L 326.795965 192.327831 
L 326.959272 209.375469 
L 327.285885 197.388486 
L 327.449192 214.264896 
L 327.612499 213.782792 
L 327.775805 225.012851 
L 327.939112 216.782326 
L 328.102419 216.300922 
L 328.265726 209.270868 
L 328.429032 194.708226 
L 328.592339 222.30727 
L 328.755646 228.293671 
L 328.918953 202.622884 
L 329.082259 196.925239 
L 329.245566 221.460127 
L 329.408873 218.683875 
L 329.57218 217.85968 
L 329.735486 199.995109 
L 329.898793 225.571352 
L 330.0621 207.598437 
L 330.225406 202.367118 
L 330.388713 215.945274 
L 330.55202 209.496332 
L 330.878633 214.184706 
L 331.04194 227.987322 
L 331.205247 228.542714 
L 331.368554 223.48196 
L 331.53186 201.731404 
L 331.695167 245.361339 
L 332.021781 208.061208 
L 332.185087 238.144968 
L 332.348394 227.890415 
L 332.511685 242.458842 
L 333.001605 251.714731 
L 333.164911 234.277611 
L 333.328218 248.563553 
L 333.491525 240.93416 
L 333.654832 222.718024 
L 333.818138 251.027543 
L 333.981445 245.651473 
L 334.144752 247.446825 
L 334.308059 217.506666 
L 334.471365 238.17697 
L 334.797979 243.617434 
L 334.961286 256.30544 
L 335.124592 231.150989 
L 335.287899 236.206656 
L 335.451206 251.785387 
L 335.614512 254.393522 
L 335.941126 216.75341 
L 336.104433 228.036269 
L 336.267739 252.943972 
L 336.431046 248.476351 
L 336.594353 249.736332 
L 336.75766 263.879837 
L 336.920966 251.027788 
L 337.084273 257.563412 
L 337.24758 233.242023 
L 337.574177 256.181862 
L 337.737484 267.349769 
L 337.900791 250.757424 
L 338.064097 248.618257 
L 338.227404 232.596824 
L 338.390711 250.016937 
L 338.554011 247.10885 
L 338.880624 234.92766 
L 339.370545 244.052013 
L 339.533851 243.373173 
L 339.697158 241.082249 
L 339.860465 240.399973 
L 340.023772 245.127891 
L 340.187078 230.317097 
L 340.350385 230.317097 
L 340.513692 234.126293 
L 340.676999 230.141025 
L 340.840305 257.818559 
L 341.003612 241.140809 
L 341.166919 251.345572 
L 341.493532 247.344358 
L 341.656839 236.227211 
L 341.820146 247.274802 
L 341.983452 218.152617 
L 342.146759 243.135559 
L 342.31005 244.790015 
L 342.473356 229.648937 
L 342.636663 239.199183 
L 342.79997 214.317481 
L 342.963277 226.670739 
L 343.126583 217.697091 
L 343.28989 217.680079 
L 343.77981 274.637357 
L 343.943117 279.897664 
L 344.26973 247.313993 
L 344.433037 240.887312 
L 344.596344 251.385061 
L 344.759651 251.914217 
L 344.922957 234.7516 
L 345.086264 234.580733 
L 345.249571 234.608099 
L 345.412878 233.724956 
L 345.576184 237.648967 
L 345.739491 215.062022 
L 345.902798 268.320436 
L 346.066105 266.959041 
L 346.392718 246.52299 
L 346.556009 239.699891 
L 346.719315 240.655038 
L 346.882622 240.274432 
L 347.045929 234.541121 
L 347.209235 223.495142 
L 347.372542 225.20466 
L 347.535849 242.465091 
L 347.699156 235.46918 
L 347.862462 243.79749 
L 348.025769 274.368785 
L 348.189076 233.982875 
L 348.352383 228.226858 
L 348.678996 266.660294 
L 348.842303 252.2722 
L 349.00561 255.168075 
L 349.168916 263.312319 
L 349.332223 254.531521 
L 349.49553 218.919098 
L 349.658837 260.842077 
L 349.822143 270.824535 
L 349.98545 262.685488 
L 350.148757 244.665936 
L 350.312063 243.131462 
L 350.475354 238.510221 
L 350.638661 254.13748 
L 350.801967 229.128322 
L 350.965274 241.740767 
L 351.128581 240.5263 
L 351.291888 245.724129 
L 351.455194 223.648353 
L 351.618501 237.989294 
L 351.781808 236.254482 
L 352.271728 261.943896 
L 352.435035 238.516505 
L 352.598342 238.36602 
L 352.924955 260.133424 
L 353.251568 239.768024 
L 353.578182 262.430057 
L 353.741489 235.939554 
L 353.904795 233.484166 
L 354.068102 234.463703 
L 354.231409 239.146623 
L 354.394699 221.483677 
L 354.558006 216.661895 
L 354.721319 235.446541 
L 354.884626 213.958094 
L 355.374546 240.004973 
L 355.537853 224.940528 
L 355.70116 230.065771 
L 355.864466 248.8618 
L 356.027773 235.526284 
L 356.19108 232.826624 
L 356.354387 226.574943 
L 356.517693 255.63895 
L 356.681 250.790058 
L 356.844307 274.411378 
L 357.007614 238.848434 
L 357.17092 251.154293 
L 357.334227 233.242328 
L 357.497534 251.075459 
L 357.824147 222.263007 
L 357.987454 228.509872 
L 358.150745 226.49663 
L 358.314051 226.667979 
L 358.477358 241.767678 
L 358.640665 228.444637 
L 358.967278 262.293018 
L 359.130585 279.394222 
L 359.293892 247.728994 
L 359.457198 258.172833 
L 359.620505 250.380215 
L 359.783812 249.969084 
L 359.947119 234.352606 
L 360.110425 234.352606 
L 360.273732 252.606706 
L 360.437039 230.496908 
L 360.600346 226.988903 
L 360.763652 214.600925 
L 360.926959 230.004159 
L 361.090266 223.246524 
L 361.416879 242.712056 
L 361.58017 245.393527 
L 361.743476 225.609422 
L 362.07009 237.654559 
L 362.396703 218.65083 
L 362.56001 206.763698 
L 362.723317 221.537933 
L 362.886624 219.711833 
L 363.04993 212.345517 
L 363.213237 235.612577 
L 363.376544 234.792662 
L 363.539851 227.49613 
L 363.866464 253.264359 
L 364.029771 248.202685 
L 364.193078 227.693623 
L 364.356384 233.221363 
L 364.519691 216.065143 
L 364.846288 228.991178 
L 365.009595 225.913048 
L 365.172902 235.209833 
L 365.336208 232.723739 
L 365.499515 236.421768 
L 365.662822 245.299984 
L 365.989435 243.939675 
L 366.152742 230.829391 
L 366.316049 240.435442 
L 366.479356 238.509764 
L 366.642662 230.388478 
L 366.969276 242.125355 
L 367.132583 224.920732 
L 367.295889 240.56614 
L 367.459196 239.384208 
L 367.622503 221.682159 
L 367.785793 243.846346 
L 367.9491 219.850535 
L 368.275713 246.488942 
L 368.43902 225.330656 
L 368.765634 242.501873 
L 369.255554 217.895341 
L 369.582167 243.147053 
L 369.908781 251.845262 
L 370.072088 228.932882 
L 370.235394 230.346124 
L 370.398701 240.513458 
L 370.562008 237.073197 
L 370.725314 246.572392 
L 370.888605 232.841999 
L 371.051897 237.118345 
L 371.378511 263.025501 
L 371.541817 255.835908 
L 371.705124 255.430193 
L 372.031737 244.268062 
L 372.195044 245.88164 
L 372.358351 245.308696 
L 372.521658 252.322526 
L 372.848271 239.648076 
L 373.011578 242.268417 
L 373.174885 251.775524 
L 373.338191 252.920719 
L 373.664789 245.043896 
L 373.828095 214.216174 
L 373.991402 216.526815 
L 374.154709 210.999051 
L 374.318016 237.510403 
L 374.481322 227.362724 
L 374.644629 247.08481 
L 374.807936 223.942001 
L 375.134549 247.456395 
L 375.461163 237.280963 
L 375.787776 267.899067 
L 376.11439 244.985157 
L 376.277696 258.945775 
L 376.441003 232.389646 
L 376.604294 224.67199 
L 376.930907 242.460836 
L 377.094214 239.850731 
L 377.257521 247.620395 
L 377.747441 217.935478 
L 377.910747 250.004169 
L 378.074054 238.99535 
L 378.237361 269.921138 
L 378.400668 264.724695 
L 378.563974 253.489782 
L 378.727281 258.166682 
L 379.053895 250.7766 
L 379.217185 262.478699 
L 379.380492 258.160952 
L 379.543799 260.221569 
L 379.707105 260.221569 
L 379.870412 260.985338 
L 380.033719 271.191351 
L 380.197026 265.896048 
L 380.360332 273.213582 
L 380.523639 251.857274 
L 380.686946 249.05028 
L 380.850252 242.601191 
L 381.340173 265.830256 
L 381.503479 242.473089 
L 381.666786 263.312231 
L 381.993383 250.464469 
L 382.15669 248.795016 
L 382.483304 256.339581 
L 382.64661 259.321046 
L 382.809917 279.185432 
L 383.136531 250.462872 
L 383.463144 263.696514 
L 383.626451 263.298788 
L 383.789757 266.638138 
L 383.953064 240.979092 
L 384.116371 234.027324 
L 384.279678 244.008051 
L 384.606275 214.807281 
L 384.932888 239.681446 
L 385.096195 232.211342 
L 385.422809 263.97477 
L 385.586115 264.39423 
L 385.749422 260.30958 
L 385.912729 246.737855 
L 386.076036 252.930969 
L 386.239342 252.400968 
L 386.402649 265.304637 
L 386.729262 264.394218 
L 386.892553 247.141153 
L 387.219173 261.441412 
L 387.38248 279.645021 
L 387.8724 250.286897 
L 388.035707 267.42753 
L 388.199013 250.533106 
L 388.525627 274.756772 
L 388.688934 279.333935 
L 388.85224 256.968653 
L 389.015547 252.779768 
L 389.178854 266.80742 
L 389.342144 269.565506 
L 389.668758 246.035739 
L 389.995371 268.995583 
L 390.321985 264.444732 
L 390.485291 246.8937 
L 390.811905 259.187008 
L 390.975212 247.351457 
L 391.138518 250.42023 
L 391.301825 266.956518 
L 391.465132 246.173884 
L 391.791729 295.488 
L 391.955036 259.425281 
L 392.118343 251.412826 
L 392.281649 261.867057 
L 392.444956 279.517628 
L 392.771569 242.713075 
L 392.934876 246.581038 
L 393.26149 240.398336 
L 393.424796 257.699655 
L 393.588103 235.80227 
L 393.75141 233.960853 
L 393.914717 236.249004 
L 394.078007 254.350426 
L 394.241314 260.031586 
L 394.404621 254.877363 
L 394.567927 254.969624 
L 394.731234 265.073734 
L 394.894541 256.0829 
L 395.057848 269.917867 
L 395.221154 273.682364 
L 395.384461 269.854448 
L 395.547768 249.901059 
L 395.711074 272.573405 
L 396.037688 253.082662 
L 396.200995 267.379717 
L 396.364285 257.462824 
L 396.527592 231.089076 
L 396.690899 241.513269 
L 396.854205 231.636185 
L 397.017512 235.728043 
L 397.180819 220.727227 
L 397.507432 245.950003 
L 397.670739 253.658209 
L 397.834046 248.132826 
L 397.997353 230.384945 
L 398.160659 246.142312 
L 398.323966 243.177902 
L 398.487273 252.600446 
L 398.487273 252.600446 
" clip-path="url(#p580e9db39a)" style="fill: none; stroke: #1f77b4; stroke-width: 1.5; stroke-linecap: square"/>
   </g>
   <g id="patch_3">
    <path d="M 57.6 307.584 
L 57.6 41.472 
" style="fill: none; stroke: #000000; stroke-width: 0.8; stroke-linejoin: miter; stroke-linecap: square"/>
   </g>
   <g id="patch_4">
    <path d="M 414.72 307.584 
L 414.72 41.472 
" style="fill: none; stroke: #000000; stroke-width: 0.8; stroke-linejoin: miter; stroke-linecap: square"/>
   </g>
   <g id="patch_5">
    <path d="M 57.6 307.584 
L 414.72 307.584 
" style="fill: none; stroke: #000000; stroke-width: 0.8; stroke-linejoin: miter; stroke-linecap: square"/>
   </g>
   <g id="patch_6">
    <path d="M 57.6 41.472 
L 414.72 41.472 
" style="fill: none; stroke: #000000; stroke-width: 0.8; stroke-linejoin: miter; stroke-linecap: square"/>
   </g>
   <g id="text_19">
    <!-- Vemund-Nidarosdomen-vinkel -->
    <g transform="translate(146.173125 35.472) scale(0.12 -0.12)">
     <defs>
      <path id="DejaVuSans-56" d="M 1831 0 
L 50 4666 
L 709 4666 
L 2188 738 
L 3669 4666 
L 4325 4666 
L 2547 0 
L 1831 0 
z
" transform="scale(0.015625)"/>
      <path id="DejaVuSans-75" d="M 544 1381 
L 544 3500 
L 1119 3500 
L 1119 1403 
Q 1119 906 1312 657 
Q 1506 409 1894 409 
Q 2359 409 2629 706 
Q 2900 1003 2900 1516 
L 2900 3500 
L 3475 3500 
L 3475 0 
L 2900 0 
L 2900 538 
Q 2691 219 2414 64 
Q 2138 -91 1772 -91 
Q 1169 -91 856 284 
Q 544 659 544 1381 
z
M 1991 3584 
L 1991 3584 
z
" transform="scale(0.015625)"/>
      <path id="DejaVuSans-6e" d="M 3513 2113 
L 3513 0 
L 2938 0 
L 2938 2094 
Q 2938 2591 2744 2837 
Q 2550 3084 2163 3084 
Q 1697 3084 1428 2787 
Q 1159 2491 1159 1978 
L 1159 0 
L 581 0 
L 581 3500 
L 1159 3500 
L 1159 2956 
Q 1366 3272 1645 3428 
Q 1925 3584 2291 3584 
Q 2894 3584 3203 3211 
Q 3513 2838 3513 2113 
z
" transform="scale(0.015625)"/>
      <path id="DejaVuSans-2d" d="M 313 2009 
L 1997 2009 
L 1997 1497 
L 313 1497 
L 313 2009 
z
" transform="scale(0.015625)"/>
      <path id="DejaVuSans-4e" d="M 628 4666 
L 1478 4666 
L 3547 763 
L 3547 4666 
L 4159 4666 
L 4159 0 
L 3309 0 
L 1241 3903 
L 1241 0 
L 628 0 
L 628 4666 
z
" transform="scale(0.015625)"/>
      <path id="DejaVuSans-61" d="M 2194 1759 
Q 1497 1759 1228 1600 
Q 959 1441 959 1056 
Q 959 750 1161 570 
Q 1363 391 1709 391 
Q 2188 391 2477 730 
Q 2766 1069 2766 1631 
L 2766 1759 
L 2194 1759 
z
M 3341 1997 
L 3341 0 
L 2766 0 
L 2766 531 
Q 2569 213 2275 61 
Q 1981 -91 1556 -91 
Q 1019 -91 701 211 
Q 384 513 384 1019 
Q 384 1609 779 1909 
Q 1175 2209 1959 2209 
L 2766 2209 
L 2766 2266 
Q 2766 2663 2505 2880 
Q 2244 3097 1772 3097 
Q 1472 3097 1187 3025 
Q 903 2953 641 2809 
L 641 3341 
Q 956 3463 1253 3523 
Q 1550 3584 1831 3584 
Q 2591 3584 2966 3190 
Q 3341 2797 3341 1997 
z
" transform="scale(0.015625)"/>
      <path id="DejaVuSans-72" d="M 2631 2963 
Q 2534 3019 2420 3045 
Q 2306 3072 2169 3072 
Q 1681 3072 1420 2755 
Q 1159 2438 1159 1844 
L 1159 0 
L 581 0 
L 581 3500 
L 1159 3500 
L 1159 2956 
Q 1341 3275 1631 3429 
Q 1922 3584 2338 3584 
Q 2397 3584 2469 3576 
Q 2541 3569 2628 3553 
L 2631 2963 
z
" transform="scale(0.015625)"/>
      <path id="DejaVuSans-6f" d="M 1959 3097 
Q 1497 3097 1228 2736 
Q 959 2375 959 1747 
Q 959 1119 1226 758 
Q 1494 397 1959 397 
Q 2419 397 2687 759 
Q 2956 1122 2956 1747 
Q 2956 2369 2687 2733 
Q 2419 3097 1959 3097 
z
M 1959 3584 
Q 2709 3584 3137 3096 
Q 3566 2609 3566 1747 
Q 3566 888 3137 398 
Q 2709 -91 1959 -91 
Q 1206 -91 779 398 
Q 353 888 353 1747 
Q 353 2609 779 3096 
Q 1206 3584 1959 3584 
z
" transform="scale(0.015625)"/>
      <path id="DejaVuSans-76" d="M 191 3500 
L 800 3500 
L 1894 563 
L 2988 3500 
L 3597 3500 
L 2284 0 
L 1503 0 
L 191 3500 
z
" transform="scale(0.015625)"/>
      <path id="DejaVuSans-6b" d="M 581 4863 
L 1159 4863 
L 1159 1991 
L 2875 3500 
L 3609 3500 
L 1753 1863 
L 3688 0 
L 2938 0 
L 1159 1709 
L 1159 0 
L 581 0 
L 581 4863 
z
" transform="scale(0.015625)"/>
      <path id="DejaVuSans-6c" d="M 603 4863 
L 1178 4863 
L 1178 0 
L 603 0 
L 603 4863 
z
" transform="scale(0.015625)"/>
     </defs>
     <use xlink:href="#DejaVuSans-56"/>
     <use xlink:href="#DejaVuSans-65" x="60.658203"/>
     <use xlink:href="#DejaVuSans-6d" x="122.181641"/>
     <use xlink:href="#DejaVuSans-75" x="219.59375"/>
     <use xlink:href="#DejaVuSans-6e" x="282.972656"/>
     <use xlink:href="#DejaVuSans-64" x="346.351562"/>
     <use xlink:href="#DejaVuSans-2d" x="409.828125"/>
     <use xlink:href="#DejaVuSans-4e" x="445.912109"/>
     <use xlink:href="#DejaVuSans-69" x="520.716797"/>
     <use xlink:href="#DejaVuSans-64" x="548.5"/>
     <use xlink:href="#DejaVuSans-61" x="611.976562"/>
     <use xlink:href="#DejaVuSans-72" x="673.255859"/>
     <use xlink:href="#DejaVuSans-6f" x="712.119141"/>
     <use xlink:href="#DejaVuSans-73" x="773.300781"/>
     <use xlink:href="#DejaVuSans-64" x="825.400391"/>
     <use xlink:href="#DejaVuSans-6f" x="888.876953"/>
     <use xlink:href="#DejaVuSans-6d" x="950.058594"/>
     <use xlink:href="#DejaVuSans-65" x="1047.470703"/>
     <use xlink:href="#DejaVuSans-6e" x="1108.994141"/>
     <use xlink:href="#DejaVuSans-2d" x="1172.373047"/>
     <use xlink:href="#DejaVuSans-76" x="1205.832031"/>
     <use xlink:href="#DejaVuSans-69" x="1265.011719"/>
     <use xlink:href="#DejaVuSans-6e" x="1292.794922"/>
     <use xlink:href="#DejaVuSans-6b" x="1356.173828"/>
     <use xlink:href="#DejaVuSans-65" x="1410.458984"/>
     <use xlink:href="#DejaVuSans-6c" x="1471.982422"/>
    </g>
   </g>
   <g id="legend_1">
    <g id="patch_7">
     <path d="M 225.741875 64.150125 
L 407.72 64.150125 
Q 409.72 64.150125 409.72 62.150125 
L 409.72 48.472 
Q 409.72 46.472 407.72 46.472 
L 225.741875 46.472 
Q 223.741875 46.472 223.741875 48.472 
L 223.741875 62.150125 
Q 223.741875 64.150125 225.741875 64.150125 
z
" style="fill: #ffffff; opacity: 0.8; stroke: #cccccc; stroke-linejoin: miter"/>
    </g>
    <g id="line2d_18">
     <path d="M 227.741875 54.570438 
L 237.741875 54.570438 
L 247.741875 54.570438 
" style="fill: none; stroke: #1f77b4; stroke-width: 1.5; stroke-linecap: square"/>
    </g>
    <g id="text_20">
     <!-- Vemund-Nidarosdomen-vinkel -->
     <g transform="translate(255.741875 58.070438) scale(0.1 -0.1)">
      <use xlink:href="#DejaVuSans-56"/>
      <use xlink:href="#DejaVuSans-65" x="60.658203"/>
      <use xlink:href="#DejaVuSans-6d" x="122.181641"/>
      <use xlink:href="#DejaVuSans-75" x="219.59375"/>
      <use xlink:href="#DejaVuSans-6e" x="282.972656"/>
      <use xlink:href="#DejaVuSans-64" x="346.351562"/>
      <use xlink:href="#DejaVuSans-2d" x="409.828125"/>
      <use xlink:href="#DejaVuSans-4e" x="445.912109"/>
      <use xlink:href="#DejaVuSans-69" x="520.716797"/>
      <use xlink:href="#DejaVuSans-64" x="548.5"/>
      <use xlink:href="#DejaVuSans-61" x="611.976562"/>
      <use xlink:href="#DejaVuSans-72" x="673.255859"/>
      <use xlink:href="#DejaVuSans-6f" x="712.119141"/>
      <use xlink:href="#DejaVuSans-73" x="773.300781"/>
      <use xlink:href="#DejaVuSans-64" x="825.400391"/>
      <use xlink:href="#DejaVuSans-6f" x="888.876953"/>
      <use xlink:href="#DejaVuSans-6d" x="950.058594"/>
      <use xlink:href="#DejaVuSans-65" x="1047.470703"/>
      <use xlink:href="#DejaVuSans-6e" x="1108.994141"/>
      <use xlink:href="#DejaVuSans-2d" x="1172.373047"/>
      <use xlink:href="#DejaVuSans-76" x="1205.832031"/>
      <use xlink:href="#DejaVuSans-69" x="1265.011719"/>
      <use xlink:href="#DejaVuSans-6e" x="1292.794922"/>
      <use xlink:href="#DejaVuSans-6b" x="1356.173828"/>
      <use xlink:href="#DejaVuSans-65" x="1410.458984"/>
      <use xlink:href="#DejaVuSans-6c" x="1471.982422"/>
     </g>
    </g>
   </g>
  </g>
 </g>
 <defs>
  <clipPath id="p580e9db39a">
   <rect x="57.6" y="41.472" width="357.12" height="266.112"/>
  </clipPath>
 </defs>
</svg>
