<?xml version="1.0" encoding="UTF-8" standalone="no"?>
<!-- Created with Inkscape (http://www.inkscape.org/) -->

<svg
   width="210mm"
   height="297mm"
   viewBox="0 0 210 297"
   version="1.1"
   id="svg1052"
   xml:space="preserve"
   sodipodi:docname="nidarosdomen_ny.svg"
   inkscape:version="1.2.1 (9c6d41e410, 2022-07-14)"
   xmlns:inkscape="http://www.inkscape.org/namespaces/inkscape"
   xmlns:sodipodi="http://sodipodi.sourceforge.net/DTD/sodipodi-0.dtd"
   xmlns="http://www.w3.org/2000/svg"
   xmlns:svg="http://www.w3.org/2000/svg"><sodipodi:namedview
     id="namedview1054"
     pagecolor="#ffffff"
     bordercolor="#000000"
     borderopacity="0.25"
     inkscape:showpageshadow="2"
     inkscape:pageopacity="0.0"
     inkscape:pagecheckerboard="0"
     inkscape:deskcolor="#d1d1d1"
     inkscape:document-units="mm"
     showgrid="false"
     inkscape:zoom="4.2734328"
     inkscape:cx="521.82873"
     inkscape:cy="685.16347"
     inkscape:window-width="1920"
     inkscape:window-height="1046"
     inkscape:window-x="-11"
     inkscape:window-y="-11"
     inkscape:window-maximized="1"
     inkscape:current-layer="layer1" /><defs
     id="defs1049"><clipPath
   id="clipPath7568"><path
     clip-rule="nonzero"
     d="M 0,2 H 5 V 8.855469 H 0 Z m 0,0"
     id="path4492" /></clipPath><clipPath
   id="clipPath9229"><path
     clip-rule="nonzero"
     d="M 0,2 H 5.695313 V 6.917969 H 0 Z m 0,0"
     id="path8299" /></clipPath><clipPath
   id="clipPath9198"><path
     clip-rule="nonzero"
     d="M 0,0 H 4.953125 V 6.917969 H 0 Z m 0,0"
     id="path4068" /></clipPath><clipPath
   id="clipPath2469"><path
     clip-rule="nonzero"
     d="M 0,0 H 6 V 4.289063 H 0 Z m 0,0"
     id="path9762" /></clipPath><clipPath
   id="clipPath4431"><path
     clip-rule="nonzero"
     d="M 0,0 H 5.9375 V 8.855469 H 0 Z m 0,0"
     id="path9097" /></clipPath><clipPath
   id="clipPath7289"><path
     clip-rule="nonzero"
     d="M 0,0 H 9.964844 V 4 H 0 Z m 0,0"
     id="path4742" /></clipPath><clipPath
   id="clipPath9374"><path
     clip-rule="nonzero"
     d="m 1,3 h 8 v 7.464844 H 1 Z m 0,0"
     id="path982" /></clipPath><clipPath
   id="clipPath540"><path
     clip-rule="nonzero"
     d="M 0,0 H 9.964844 V 4 H 0 Z m 0,0"
     id="path9671" /></clipPath><clipPath
   id="clipPath6211"><path
     clip-rule="nonzero"
     d="m 1,3 h 8 v 7.464844 H 1 Z m 0,0"
     id="path5083" /></clipPath><clipPath
   id="clipPath5285">
      <path
   clip-rule="nonzero"
   d="M 0,0 H 52.972656 V 5.535156 H 0 Z m 0,0"
   id="path5531" />
    </clipPath>
  </defs><g
     inkscape:label="Lag 1"
     inkscape:groupmode="layer"
     id="layer1"><g
       inkscape:label="Lag 1"
       id="layer1-1"
       transform="translate(47.02071,44.788495)"><path
         style="fill:#ffffff;fill-opacity:0.658537;fill-rule:nonzero;stroke:#000000;stroke-width:0.277793;stroke-opacity:1"
         d="m 62.607992,123.52207 11.501234,1.71233 -3.475088,-11.04671 z"
         id="path167"
         sodipodi:nodetypes="cccc" /><ellipse
         style="fill:#ffffff;fill-opacity:0.658537;fill-rule:nonzero;stroke:#000000;stroke-width:0.264583;stroke-opacity:1"
         id="path7630"
         cx="69.322525"
         cy="120.59328"
         rx="0.86678952"
         ry="0.80487597" /><rect
         style="fill:#1a1a1a;fill-opacity:0;fill-rule:nonzero;stroke:#000000;stroke-width:0.264586;stroke-opacity:1"
         id="rect7684"
         width="8.2964907"
         height="15.973759"
         x="151.92886"
         y="53.893124"
         transform="matrix(0.83241001,0.55416025,-0.55417027,0.83240333,0,0)" /><path
         style="fill:#1a1a1a;fill-opacity:0.658537;fill-rule:nonzero;stroke:#170000;stroke-width:0.264585;stroke-opacity:1"
         d="M 91.202149,144.64929 105.10114,123.25638 84.917056,154.34543"
         id="path12160" /><path
         style="fill:#1a1a1a;fill-opacity:0.658537;fill-rule:nonzero;stroke:#000000;stroke-width:0.264583;stroke-opacity:1"
         d="m 92.175122,135.70215 19.584998,13.19483"
         id="path12367" /><path
         style="fill:#1a1a1a;fill-opacity:0.975089;fill-rule:nonzero;stroke:#070000;stroke-width:0.065;stroke-dasharray:none;stroke-opacity:1"
         d="m 105.10114,123.25638 -0.5849,-0.45595 1.20731,-0.30957 -0.0619,1.17636 z"
         id="path12371" /><path
         style="fill:#1a1a1a;fill-opacity:1;fill-rule:nonzero;stroke:#000000;stroke-width:0.065;stroke-dasharray:none;stroke-opacity:1"
         d="m 111.76012,148.89698 0.46435,-0.61913 0.36837,1.21482 -1.17324,0.0544 z"
         id="path12427"
         sodipodi:nodetypes="ccccc" /><path
         style="fill:#1a1a1a;fill-opacity:0.918699;fill-rule:nonzero;stroke:#000000;stroke-width:0.165;stroke-dasharray:none;stroke-opacity:1"
         d="m 95.404079,137.89541 0.209984,-15.81165"
         id="path12429" /><path
         style="fill:#1a1a1a;fill-opacity:0.918699;fill-rule:nonzero;stroke:#000000;stroke-width:0.264583;stroke-opacity:1"
         d="m 95.634694,121.94971 0.31528,-0.002 -0.338902,-0.40353 -0.279849,0.40308 z"
         id="path15731" /><path
         style="fill:#1a1a1a;fill-opacity:0.918699;fill-rule:nonzero;stroke:#0c0a00;stroke-width:0.257462;stroke-opacity:1"
         d="M 95.628165,138.00094 69.212279,120.53539"
         id="path15841" /><path
         style="fill:#000000;fill-opacity:0;fill-rule:nonzero;stroke:#000000;stroke-width:0.264583;stroke-opacity:0.971545"
         id="path20007"
         sodipodi:type="arc"
         sodipodi:cx="32.105938"
         sodipodi:cy="-155.13521"
         sodipodi:rx="2.9563713"
         sodipodi:ry="3.0647199"
         sodipodi:start="0.98597086"
         sodipodi:end="3.0918898"
         sodipodi:arc-type="arc"
         d="m 33.738014,-152.57982 a 2.9563713,3.0647199 0 0 1 -2.966055,0.1796 2.9563713,3.0647199 0 0 1 -1.618741,-2.58273"
         transform="rotate(132.04426)"
         sodipodi:open="true" /><path
         style="opacity:1;fill:#1a1a1a;fill-opacity:0;fill-rule:nonzero;stroke:#000000;stroke-width:0.293;stroke-dasharray:none;stroke-opacity:1"
         id="path24302"
         sodipodi:type="arc"
         sodipodi:cx="91.484802"
         sodipodi:cy="132.60896"
         sodipodi:rx="4.7039213"
         sodipodi:ry="3.6008487"
         sodipodi:start="3.2498385"
         sodipodi:end="4.698667"
         sodipodi:open="true"
         sodipodi:arc-type="arc"
         d="m 86.808412,132.21995 a 4.7039213,3.6008487 0 0 1 4.611845,-3.2115" /><path
         style="fill:#1a1a1a;fill-opacity:0;stroke:#000000;stroke-width:0.165;stroke-dasharray:none"
         d="M 95.404079,137.89541 87.565523,120.12083"
         id="path39588" /><path
         style="fill:#000000;fill-opacity:1;fill-rule:nonzero;stroke:#070000;stroke-width:0;stroke-dasharray:none;stroke-opacity:1"
         d="m 87.089963,119.64777 0.04113,-0.74422 0.928304,0.98859 -0.987748,0.45739 z"
         id="path12371-5" /><g
         inkscape:label=""
         transform="translate(107.30029,119.19296)"
         id="g2026"><g
           fill="#000000"
           fill-opacity="1"
           id="g19"
           transform="matrix(0.352778,0,0,0.352778,-0.104731,0.00101418)"><g
             id="use17"
             transform="translate(0.68400002,6.9190001)"><path
               d="M 2.5,-6.921875 1.15625,-5.5625 1.328125,-5.390625 2.5,-6.40625 3.640625,-5.390625 3.8125,-5.5625 Z m 0,0"
               id="path31" /></g></g><g
           clip-path="url(#clipPath7568)"
           id="g25"
           transform="matrix(0.352778,0,0,0.352778,-0.104731,0.00101418)"><g
             fill="#000000"
             fill-opacity="1"
             id="g23"><g
               id="use21"
               transform="translate(0,6.9190001)"><path
                 d="m 4.84375,-3.796875 c 0.046875,-0.140625 0.046875,-0.15625 0.046875,-0.234375 0,-0.171875 -0.140625,-0.265625 -0.296875,-0.265625 -0.09375,0 -0.25,0.0625 -0.34375,0.203125 -0.015625,0.0625 -0.109375,0.359375 -0.140625,0.546875 -0.078125,0.25 -0.140625,0.53125 -0.203125,0.796875 l -0.453125,1.796875 c -0.03125,0.140625 -0.46875,0.84375 -1.125,0.84375 -0.5,0 -0.609375,-0.4375 -0.609375,-0.8125 C 1.71875,-1.375 1.890625,-2 2.21875,-2.875 2.375,-3.28125 2.421875,-3.390625 2.421875,-3.59375 c 0,-0.4375 -0.3125,-0.8125 -0.8125,-0.8125 -0.953125,0 -1.3125,1.453125 -1.3125,1.53125 0,0.109375 0.09375,0.109375 0.109375,0.109375 0.109375,0 0.109375,-0.03125 0.15625,-0.1875 0.28125,-0.9375 0.671875,-1.234375 1.015625,-1.234375 0.078125,0 0.25,0 0.25,0.3125 0,0.25 -0.109375,0.515625 -0.171875,0.703125 -0.40625,1.0625 -0.578125,1.625 -0.578125,2.09375 0,0.890625 0.625,1.1875 1.21875,1.1875 0.390625,0 0.71875,-0.171875 1,-0.453125 -0.125,0.515625 -0.25,1.015625 -0.640625,1.546875 -0.265625,0.328125 -0.640625,0.625 -1.09375,0.625 -0.140625,0 -0.59375,-0.03125 -0.765625,-0.421875 0.15625,0 0.296875,0 0.421875,-0.125 C 1.328125,1.203125 1.421875,1.0625 1.421875,0.875 1.421875,0.5625 1.15625,0.53125 1.0625,0.53125 0.828125,0.53125 0.5,0.6875 0.5,1.171875 c 0,0.5 0.4375,0.875 1.0625,0.875 1.015625,0 2.046875,-0.90625 2.328125,-2.03125 z m 0,0"
                 id="path35" /></g></g></g></g><g
         inkscape:label=""
         transform="translate(112.41937,151.25793)"
         id="g2924"><g
           fill="#000000"
           fill-opacity="1"
           id="g2914"
           transform="matrix(0.352778,0,0,0.352778,-0.104731,0.00136694)"><g
             id="g2912"
             transform="translate(0.63300002,6.9180002)"><path
               d="M 2.5,-6.921875 1.15625,-5.5625 1.328125,-5.390625 2.5,-6.40625 3.640625,-5.390625 3.8125,-5.5625 Z m 0,0"
               id="path2910" /></g></g><g
           clip-path="url(#clipPath9229)"
           id="g2922"
           transform="matrix(0.352778,0,0,0.352778,-0.104731,0.00136694)"><g
             fill="#000000"
             fill-opacity="1"
             id="g2920"><g
               id="g2918"
               transform="translate(0,6.9180002)"><path
                 d="M 3.328125,-3.015625 C 3.390625,-3.265625 3.625,-4.1875 4.3125,-4.1875 c 0.046875,0 0.296875,0 0.5,0.125 C 4.53125,-4 4.34375,-3.765625 4.34375,-3.515625 c 0,0.15625 0.109375,0.34375 0.375,0.34375 0.21875,0 0.53125,-0.171875 0.53125,-0.578125 0,-0.515625 -0.578125,-0.65625 -0.921875,-0.65625 -0.578125,0 -0.921875,0.53125 -1.046875,0.75 -0.25,-0.65625 -0.78125,-0.75 -1.078125,-0.75 -1.03125,0 -1.609375,1.28125 -1.609375,1.53125 0,0.109375 0.109375,0.109375 0.125,0.109375 0.078125,0 0.109375,-0.03125 0.125,-0.109375 0.34375,-1.0625 1,-1.3125 1.34375,-1.3125 0.1875,0 0.53125,0.09375 0.53125,0.671875 0,0.3125 -0.171875,0.96875 -0.53125,2.375 -0.15625,0.609375 -0.515625,1.03125 -0.953125,1.03125 -0.0625,0 -0.28125,0 -0.5,-0.125 0.25,-0.0625 0.46875,-0.265625 0.46875,-0.546875 0,-0.265625 -0.21875,-0.34375 -0.359375,-0.34375 -0.3125,0 -0.546875,0.25 -0.546875,0.578125 0,0.453125 0.484375,0.65625 0.921875,0.65625 0.671875,0 1.03125,-0.703125 1.046875,-0.75 0.125,0.359375 0.484375,0.75 1.078125,0.75 1.03125,0 1.59375,-1.28125 1.59375,-1.53125 0,-0.109375 -0.078125,-0.109375 -0.109375,-0.109375 -0.09375,0 -0.109375,0.046875 -0.140625,0.109375 -0.328125,1.078125 -1,1.3125 -1.3125,1.3125 -0.390625,0 -0.546875,-0.3125 -0.546875,-0.65625 0,-0.21875 0.046875,-0.4375 0.15625,-0.875 z m 0,0"
                 id="path2916" /></g></g></g></g><g
         inkscape:label=""
         transform="translate(86.115826,126.38986)"
         id="g4644"><g
           clip-path="url(#clipPath9198)"
           id="g17"
           transform="matrix(0.352778,0,0,0.352778,-0.148828,0.039952)"><g
             fill="#000000"
             fill-opacity="1"
             id="g15"><g
               id="use13"
               transform="translate(0,6.9180002)"><path
                 d="m 4.53125,-4.984375 c 0,-0.65625 -0.171875,-2.046875 -1.1875,-2.046875 -1.390625,0 -2.921875,2.8125 -2.921875,5.09375 0,0.9375 0.28125,2.046875 1.1875,2.046875 1.40625,0 2.921875,-2.859375 2.921875,-5.09375 z M 1.46875,-3.625 C 1.640625,-4.25 1.84375,-5.046875 2.25,-5.765625 2.515625,-6.25 2.875,-6.8125 3.328125,-6.8125 c 0.484375,0 0.546875,0.640625 0.546875,1.203125 0,0.5 -0.078125,1 -0.3125,1.984375 z m 2,0.328125 C 3.359375,-2.84375 3.15625,-2 2.765625,-1.28125 c -0.34375,0.6875 -0.71875,1.171875 -1.15625,1.171875 -0.328125,0 -0.53125,-0.296875 -0.53125,-1.21875 0,-0.421875 0.0625,-1 0.3125,-1.96875 z m 0,0"
                 id="path23" /></g></g></g></g><g
         inkscape:label=""
         transform="translate(91.588878,122.04064)"
         id="g5533"><g
           clip-path="url(#clipPath2469)"
           id="g5531"
           transform="matrix(0.352778,0,0,0.352778,-0.143316,0.0413632)"><g
             fill="#000000"
             fill-opacity="1"
             id="g5529"><g
               id="g5527"
               transform="translate(0,4.289)"><path
                 d="m 4.75,-2.359375 c 0,-1.5625 -0.921875,-2.046875 -1.65625,-2.046875 -1.375,0 -2.6875,1.421875 -2.6875,2.828125 0,0.9375 0.59375,1.6875 1.625,1.6875 0.625,0 1.34375,-0.234375 2.09375,-0.84375 0.125,0.53125 0.453125,0.84375 0.90625,0.84375 0.53125,0 0.84375,-0.546875 0.84375,-0.703125 0,-0.078125 -0.0625,-0.109375 -0.125,-0.109375 -0.0625,0 -0.09375,0.03125 -0.125,0.109375 -0.1875,0.484375 -0.546875,0.484375 -0.5625,0.484375 -0.3125,0 -0.3125,-0.78125 -0.3125,-1.015625 0,-0.203125 0,-0.234375 0.109375,-0.34375 C 5.796875,-2.65625 6,-3.8125 6,-3.8125 6,-3.84375 5.984375,-3.921875 5.875,-3.921875 c -0.09375,0 -0.09375,0.03125 -0.140625,0.21875 -0.1875,0.625 -0.515625,1.375 -0.984375,1.96875 z m -0.65625,1.375 c -0.890625,0.765625 -1.65625,0.875 -2.046875,0.875 -0.59375,0 -0.90625,-0.453125 -0.90625,-1.09375 0,-0.484375 0.265625,-1.5625 0.578125,-2.0625 C 2.1875,-4 2.734375,-4.1875 3.078125,-4.1875 c 0.984375,0 0.984375,1.3125 0.984375,2.078125 0,0.375 0,0.953125 0.03125,1.125 z m 0,0"
                 id="path5525" /></g></g></g></g><path
         style="opacity:1;fill:#000000;fill-opacity:0;stroke:#000000;stroke-width:0;stroke-dasharray:none;stroke-opacity:1"
         id="path5907"
         sodipodi:type="arc"
         sodipodi:cx="74.34436"
         sodipodi:cy="135.91992"
         sodipodi:rx="1.0056016"
         sodipodi:ry="1.1225319"
         sodipodi:start="0.98597086"
         sodipodi:end="3.12969"
         sodipodi:open="true"
         sodipodi:arc-type="arc"
         d="m 74.899507,136.8559 a 1.0056016,1.1225319 0 0 1 -1.025775,0.056 1.0056016,1.1225319 0 0 1 -0.534902,-0.97865" /><path
         style="opacity:1;fill:#000000;fill-opacity:0;stroke:#000000;stroke-width:0;stroke-dasharray:none;stroke-opacity:1"
         id="path5909"
         sodipodi:type="arc"
         sodipodi:cx="70.831131"
         sodipodi:cy="142.84219"
         sodipodi:rx="2.5076928"
         sodipodi:ry="0.88867116"
         sodipodi:start="0.98597086"
         sodipodi:end="3.12969"
         sodipodi:open="true"
         sodipodi:arc-type="arc"
         d="m 72.215512,143.58318 a 2.5076928,0.88867116 0 0 1 -2.557999,0.0444 2.5076928,0.88867116 0 0 1 -1.333897,-0.77476" /><path
         style="opacity:1;fill:#1cf947;fill-opacity:0;stroke:#13a329;stroke-width:0;stroke-dasharray:none;stroke-opacity:1"
         id="path5915"
         sodipodi:type="arc"
         sodipodi:cx="112.38177"
         sodipodi:cy="128.6226"
         sodipodi:rx="2.8773437"
         sodipodi:ry="1.366981"
         sodipodi:start="0.98597086"
         sodipodi:end="3.12969"
         sodipodi:open="true"
         sodipodi:arc-type="arc"
         d="m 113.97022,129.7624 a 2.8773437,1.366981 0 0 1 -2.93507,0.0682 2.8773437,1.366981 0 0 1 -1.53052,-1.19177" /><path
         style="opacity:1;fill:#060000;fill-opacity:0;stroke:#121212;stroke-width:0.3;stroke-dasharray:none;stroke-opacity:1"
         id="path7845"
         sodipodi:type="arc"
         sodipodi:cx="97.080154"
         sodipodi:cy="131.41812"
         sodipodi:rx="5.3412762"
         sodipodi:ry="4.8782554"
         sodipodi:start="3.4259618"
         sodipodi:end="5.6828018"
         sodipodi:arc-type="arc"
         d="m 91.95339,130.04952 a 5.3412762,4.8782554 0 0 1 4.286312,-3.44888 5.3412762,4.8782554 0 0 1 5.247638,2.06147"
         sodipodi:open="true" /><g
         inkscape:label=""
         transform="translate(98.377993,123.08768)"
         id="g16754"><g
           clip-path="url(#clipPath4431)"
           id="g16752"
           transform="matrix(0.352778,0,0,0.352778,-0.170877,0.00101418)"><g
             fill="#000000"
             fill-opacity="1"
             id="g16750"><g
               id="g16748"
               transform="translate(0,6.9190001)"><path
                 d="m 4.359375,-6.671875 c 0,-0.03125 0.03125,-0.140625 0.03125,-0.140625 0,-0.015625 0,-0.109375 -0.125,-0.109375 -0.09375,0 -0.109375,0.03125 -0.15625,0.203125 L 3.53125,-4.421875 c -1.578125,0.0625 -3.046875,1.375 -3.046875,2.734375 0,0.953125 0.703125,1.734375 1.921875,1.8125 C 2.328125,0.421875 2.25,0.75 2.171875,1.0625 c -0.125,0.46875 -0.21875,0.84375 -0.21875,0.875 0,0.09375 0.078125,0.109375 0.125,0.109375 C 2.125,2.046875 2.140625,2.03125 2.171875,2 2.1875,1.984375 2.25,1.75 2.28125,1.609375 L 2.65625,0.125 c 1.609375,-0.0625 3.0625,-1.40625 3.0625,-2.734375 0,-0.796875 -0.53125,-1.703125 -1.921875,-1.8125 z m -1.90625,6.578125 c -0.59375,-0.03125 -1.3125,-0.390625 -1.3125,-1.375 0,-1.203125 0.859375,-2.59375 2.34375,-2.734375 z m 1.28125,-4.109375 c 0.765625,0.046875 1.328125,0.5 1.328125,1.375 0,1.1875 -0.859375,2.609375 -2.34375,2.734375 z m 0,0"
                 id="path16746" /></g></g></g></g><g
         inkscape:label=""
         transform="translate(93.916868,114.8722)"
         id="g18357"><g
           fill="#000000"
           fill-opacity="1"
           id="g18347"
           transform="matrix(0.352778,0,0,0.352778,-0.192222,0.507559)"><g
             id="use23"
             transform="translate(0,3.655)"><path
               d="m 6.5625,-2.296875 c 0.171875,0 0.359375,0 0.359375,-0.203125 0,-0.1875 -0.1875,-0.1875 -0.359375,-0.1875 H 1.171875 c -0.171875,0 -0.34375,0 -0.34375,0.1875 0,0.203125 0.171875,0.203125 0.34375,0.203125 z m 0,0"
               id="path43" /></g></g><g
           clip-path="url(#clipPath7289)"
           id="g31"
           transform="matrix(0.352778,0,0,0.352778,-0.192222,0.507559)"><g
             fill="#000000"
             fill-opacity="1"
             id="g29"><g
               id="use27"
               transform="translate(-0.00199252,3.655)"><path
                 d="M 8.3125,-2.296875 C 7.765625,-1.875 7.5,-1.46875 7.421875,-1.328125 c -0.453125,0.6875 -0.53125,1.3125 -0.53125,1.3125 0,0.125 0.125,0.125 0.203125,0.125 C 7.25,0.109375 7.265625,0.09375 7.3125,-0.09375 7.53125,-1.0625 8.125,-1.90625 9.25,-2.359375 9.375,-2.40625 9.40625,-2.421875 9.40625,-2.5 c 0,-0.0625 -0.0625,-0.09375 -0.078125,-0.109375 C 8.875,-2.765625 7.671875,-3.265625 7.296875,-4.9375 7.265625,-5.0625 7.25,-5.09375 7.09375,-5.09375 c -0.078125,0 -0.203125,0 -0.203125,0.125 0,0.015625 0.09375,0.640625 0.5,1.3125 0.203125,0.296875 0.5,0.640625 0.921875,0.96875 H 0.90625 c -0.171875,0 -0.359375,0 -0.359375,0.1875 0,0.203125 0.1875,0.203125 0.359375,0.203125 z m 0,0"
                 id="path47" /></g></g></g><g
           clip-path="url(#clipPath9374)"
           id="g37"
           transform="matrix(0.352778,0,0,0.352778,-0.192222,0.507559)"><g
             fill="#000000"
             fill-opacity="1"
             id="g35"><g
               id="use33"
               transform="translate(0.95300001,10.463)"><path
                 d="M 1.59375,-0.78125 C 1.5,-0.390625 1.46875,-0.3125 0.6875,-0.3125 c -0.171875,0 -0.265625,0 -0.265625,0.203125 C 0.421875,0 0.515625,0 0.6875,0 H 4.25 C 5.828125,0 7,-1.171875 7,-2.15625 7,-2.875 6.421875,-3.453125 5.453125,-3.5625 6.484375,-3.75 7.53125,-4.484375 7.53125,-5.4375 c 0,-0.734375 -0.65625,-1.375 -1.84375,-1.375 H 2.328125 c -0.1875,0 -0.28125,0 -0.28125,0.203125 0,0.109375 0.09375,0.109375 0.28125,0.109375 0.015625,0 0.203125,0 0.375,0.015625 0.171875,0.03125 0.265625,0.03125 0.265625,0.171875 0,0.03125 -0.015625,0.0625 -0.03125,0.1875 z m 1.5,-2.875 0.625,-2.46875 C 3.8125,-6.46875 3.828125,-6.5 4.25,-6.5 h 1.296875 c 0.875,0 1.078125,0.59375 1.078125,1.03125 0,0.875 -0.859375,1.8125 -2.0625,1.8125 z m -0.4375,3.34375 c -0.140625,0 -0.15625,0 -0.21875,0 -0.109375,-0.015625 -0.140625,-0.03125 -0.140625,-0.109375 0,-0.03125 0,-0.046875 0.0625,-0.21875 l 0.6875,-2.78125 h 1.875 c 0.953125,0 1.15625,0.734375 1.15625,1.15625 C 6.078125,-1.28125 5.1875,-0.3125 4,-0.3125 Z m 0,0"
                 id="path51" /></g></g></g></g></g><g
       inkscape:label=""
       transform="translate(130.4188,159.82852)"
       id="g3144"><g
   fill="#000000"
   fill-opacity="1"
   id="g12"
   transform="matrix(0.352778,0,0,0.352778,-0.115755,0.00158747)">
    <g
   id="use10"
   transform="translate(0,6.8080001)">
      <path
   d="M 2.3125,-6.671875 C 2.21875,-6.796875 2.21875,-6.8125 2.03125,-6.8125 H 0.328125 V -6.5 H 0.625 c 0.140625,0 0.34375,0.015625 0.484375,0.015625 0.234375,0.03125 0.25,0.046875 0.25,0.234375 v 5.203125 c 0,0.265625 0,0.734375 -1.03125,0.734375 V 0 C 0.671875,-0.015625 1.171875,-0.03125 1.5,-0.03125 c 0.328125,0 0.8125,0.015625 1.15625,0.03125 v -0.3125 c -1.015625,0 -1.015625,-0.46875 -1.015625,-0.734375 v -5.1875 c 0.046875,0.046875 0.046875,0.0625 0.09375,0.125 L 5.796875,-0.125 C 5.890625,-0.015625 5.90625,0 5.96875,0 6.109375,0 6.109375,-0.0625 6.109375,-0.265625 v -5.5 c 0,-0.265625 0,-0.734375 1.03125,-0.734375 v -0.3125 c -0.359375,0.015625 -0.84375,0.03125 -1.171875,0.03125 -0.328125,0 -0.8125,-0.015625 -1.15625,-0.03125 V -6.5 c 1.015625,0 1.015625,0.46875 1.015625,0.734375 V -1.5 Z m 0,0"
   id="path18" />
    </g>
  </g>
</g><g
       inkscape:label=""
       transform="translate(100.81759,153.42215)"
       id="g5674"><g
   clip-path="url(#clipPath5285)"
   id="g66"
   transform="matrix(0.352778,0,0,0.352778,-0.121267,-0.00132286)">
    <g
   fill="#000000"
   fill-opacity="1"
   id="g64">
      <g
   id="use40"
   transform="translate(0,5.5349998)">
        <path
   d="M 1.9375,-5.328125 C 1.84375,-5.4375 1.84375,-5.4375 1.6875,-5.4375 H 0.34375 v 0.265625 h 0.234375 c 0.140625,0 0.203125,0 0.359375,0.015625 0.203125,0.015625 0.21875,0.03125 0.21875,0.171875 v 4.125 c 0,0.21875 0,0.59375 -0.8125,0.59375 V 0 c 0.359375,-0.03125 0.734375,-0.03125 0.953125,-0.03125 0.203125,0 0.578125,0 0.9375,0.03125 v -0.265625 c -0.8125,0 -0.8125,-0.375 -0.8125,-0.59375 v -4.0625 L 4.875,-0.125 C 4.953125,-0.03125 4.96875,0 5.046875,0 c 0.125,0 0.125,-0.078125 0.125,-0.21875 v -4.375 c 0,-0.203125 0,-0.578125 0.8125,-0.578125 V -5.4375 C 5.625,-5.421875 5.25,-5.421875 5.046875,-5.421875 c -0.203125,0 -0.578125,0 -0.9375,-0.015625 v 0.265625 c 0.796875,0 0.796875,0.375 0.796875,0.578125 v 3.40625 z m 0,0"
   id="path72" />
      </g>
      <g
   id="use42"
   transform="translate(6.3426061,5.5349998)">
        <path
   d="m 1.546875,-4.90625 c 0,-0.234375 -0.171875,-0.453125 -0.4375,-0.453125 -0.234375,0 -0.4375,0.1875 -0.4375,0.4375 0,0.28125 0.234375,0.453125 0.4375,0.453125 0.28125,0 0.4375,-0.234375 0.4375,-0.4375 z m -1.1875,1.484375 v 0.265625 c 0.515625,0 0.578125,0.046875 0.578125,0.4375 V -0.625 c 0,0.359375 -0.09375,0.359375 -0.609375,0.359375 V 0 c 0.3125,-0.03125 0.765625,-0.03125 0.890625,-0.03125 0.09375,0 0.578125,0 0.859375,0.03125 v -0.265625 c -0.53125,0 -0.5625,-0.03125 -0.5625,-0.34375 v -2.90625 z m 0,0"
   id="path76" />
      </g>
      <g
   id="use44"
   transform="translate(8.694582,5.5349998)">
        <path
   d="m 2.625,-5.4375 v 0.265625 c 0.53125,0 0.609375,0.046875 0.609375,0.4375 v 1.6875 c -0.28125,-0.3125 -0.65625,-0.46875 -1.078125,-0.46875 -1,0 -1.875,0.78125 -1.875,1.796875 0,0.984375 0.796875,1.796875 1.796875,1.796875 0.46875,0 0.859375,-0.21875 1.125,-0.5 v 0.5 L 4.421875,0 V -0.265625 C 3.875,-0.265625 3.8125,-0.3125 3.8125,-0.703125 V -5.53125 Z m 0.578125,4.453125 c 0,0.140625 0,0.171875 -0.125,0.328125 C 2.859375,-0.328125 2.5,-0.140625 2.125,-0.140625 1.75,-0.140625 1.4375,-0.328125 1.25,-0.625 1.03125,-0.9375 0.984375,-1.328125 0.984375,-1.703125 0.984375,-2.171875 1.0625,-2.5 1.25,-2.765625 c 0.1875,-0.296875 0.546875,-0.53125 0.953125,-0.53125 0.375,0 0.765625,0.203125 1,0.609375 z m 0,0"
   id="path80" />
      </g>
      <g
   id="use46"
   transform="translate(13.399332,5.5349998)">
        <path
   d="m 3.34375,-2.375 c 0,-0.78125 -0.75,-1.171875 -1.484375,-1.171875 -0.65625,0 -1.25,0.25 -1.25,0.78125 0,0.234375 0.171875,0.375 0.375,0.375 0.234375,0 0.375,-0.15625 0.375,-0.375 0,-0.1875 -0.109375,-0.328125 -0.296875,-0.359375 0.296875,-0.203125 0.734375,-0.203125 0.78125,-0.203125 0.453125,0 0.890625,0.3125 0.890625,0.96875 V -2.125 C 2.28125,-2.09375 1.75,-2.078125 1.1875,-1.84375 c -0.703125,0.3125 -0.84375,0.765625 -0.84375,1.03125 0,0.6875 0.8125,0.890625 1.359375,0.890625 0.578125,0 0.9375,-0.328125 1.125,-0.640625 0.03125,0.296875 0.234375,0.609375 0.59375,0.609375 0.078125,0 0.75,-0.03125 0.75,-0.765625 v -0.4375 h -0.25 v 0.4375 c 0,0.328125 -0.109375,0.453125 -0.28125,0.453125 -0.296875,0 -0.296875,-0.359375 -0.296875,-0.453125 z m -0.609375,1.25 c 0,0.78125 -0.640625,0.984375 -0.96875,0.984375 C 1.359375,-0.140625 1,-0.421875 1,-0.8125 1,-1.328125 1.5,-1.875 2.734375,-1.90625 Z m 0,0"
   id="path84" />
      </g>
      <g
   id="use48"
   transform="translate(17.633846,5.5349998)">
        <path
   d="m 1.46875,-1.8125 c 0,-0.609375 0.25,-1.46875 1.015625,-1.484375 -0.046875,0.03125 -0.140625,0.09375 -0.140625,0.28125 0,0.25 0.203125,0.359375 0.359375,0.359375 0.1875,0 0.359375,-0.125 0.359375,-0.359375 0,-0.28125 -0.25,-0.5 -0.609375,-0.5 -0.515625,0 -0.875,0.390625 -1.03125,0.84375 H 1.40625 v -0.84375 l -1.125,0.09375 v 0.265625 c 0.546875,0 0.609375,0.046875 0.609375,0.4375 V -0.625 c 0,0.359375 -0.109375,0.359375 -0.609375,0.359375 V 0 c 0.3125,-0.03125 0.75,-0.03125 0.9375,-0.03125 0.46875,0 0.484375,0 1,0.03125 V -0.265625 H 2.0625 c -0.578125,0 -0.59375,-0.078125 -0.59375,-0.375 z m 0,0"
   id="path88" />
      </g>
      <g
   id="use50"
   transform="translate(20.934265,5.5349998)">
        <path
   d="m 3.984375,-1.703125 c 0,-0.984375 -0.828125,-1.84375 -1.875,-1.84375 -1.046875,0 -1.875,0.859375 -1.875,1.84375 0,1 0.859375,1.78125 1.875,1.78125 1.03125,0 1.875,-0.78125 1.875,-1.78125 z m -1.875,1.53125 C 1.6875,-0.171875 1.34375,-0.375 1.171875,-0.65625 0.96875,-0.984375 0.953125,-1.375 0.953125,-1.765625 c 0,-0.3125 0,-0.78125 0.234375,-1.125 0.21875,-0.28125 0.546875,-0.4375 0.921875,-0.4375 0.421875,0 0.765625,0.203125 0.9375,0.46875 0.21875,0.34375 0.234375,0.765625 0.234375,1.09375 0,0.359375 -0.015625,0.796875 -0.25,1.140625 -0.203125,0.3125 -0.5625,0.453125 -0.921875,0.453125 z m 0,0"
   id="path92" />
      </g>
      <g
   id="use52"
   transform="translate(25.168779,5.5349998)">
        <path
   d="m 2.84375,-3.34375 c 0,-0.125 0,-0.203125 -0.109375,-0.203125 -0.046875,0 -0.0625,0 -0.1875,0.125 -0.015625,0 -0.09375,0.078125 -0.109375,0.078125 -0.015625,0 -0.03125,0 -0.078125,-0.03125 C 2.234375,-3.46875 2,-3.546875 1.640625,-3.546875 c -1.109375,0 -1.359375,0.59375 -1.359375,0.984375 0,0.390625 0.296875,0.625 0.3125,0.65625 0.328125,0.234375 0.5,0.265625 1.046875,0.359375 0.375,0.078125 0.984375,0.1875 0.984375,0.71875 0,0.3125 -0.203125,0.6875 -0.9375,0.6875 -0.8125,0 -1.046875,-0.625 -1.140625,-1.046875 C 0.515625,-1.296875 0.5,-1.328125 0.40625,-1.328125 c -0.125,0 -0.125,0.0625 -0.125,0.21875 V -0.125 c 0,0.125 0,0.203125 0.09375,0.203125 0.0625,0 0.0625,0 0.203125,-0.15625 C 0.625,-0.125 0.703125,-0.21875 0.75,-0.265625 c 0.359375,0.328125 0.734375,0.34375 0.9375,0.34375 1.015625,0 1.359375,-0.578125 1.359375,-1.109375 0,-0.375 -0.21875,-0.9375 -1.171875,-1.109375 -0.0625,-0.015625 -0.515625,-0.09375 -0.546875,-0.09375 -0.25,-0.0625 -0.625,-0.234375 -0.625,-0.546875 0,-0.234375 0.1875,-0.578125 0.9375,-0.578125 0.890625,0 0.9375,0.65625 0.953125,0.875 0,0.0625 0.0625,0.09375 0.109375,0.09375 0.140625,0 0.140625,-0.0625 0.140625,-0.203125 z m 0,0"
   id="path96" />
      </g>
      <g
   id="use54"
   transform="translate(28.509048,5.5349998)">
        <path
   d="m 2.625,-5.4375 v 0.265625 c 0.53125,0 0.609375,0.046875 0.609375,0.4375 v 1.6875 c -0.28125,-0.3125 -0.65625,-0.46875 -1.078125,-0.46875 -1,0 -1.875,0.78125 -1.875,1.796875 0,0.984375 0.796875,1.796875 1.796875,1.796875 0.46875,0 0.859375,-0.21875 1.125,-0.5 v 0.5 L 4.421875,0 V -0.265625 C 3.875,-0.265625 3.8125,-0.3125 3.8125,-0.703125 V -5.53125 Z m 0.578125,4.453125 c 0,0.140625 0,0.171875 -0.125,0.328125 C 2.859375,-0.328125 2.5,-0.140625 2.125,-0.140625 1.75,-0.140625 1.4375,-0.328125 1.25,-0.625 1.03125,-0.9375 0.984375,-1.328125 0.984375,-1.703125 0.984375,-2.171875 1.0625,-2.5 1.25,-2.765625 c 0.1875,-0.296875 0.546875,-0.53125 0.953125,-0.53125 0.375,0 0.765625,0.203125 1,0.609375 z m 0,0"
   id="path100" />
      </g>
      <g
   id="use56"
   transform="translate(33.213799,5.5349998)">
        <path
   d="m 3.984375,-1.703125 c 0,-0.984375 -0.828125,-1.84375 -1.875,-1.84375 -1.046875,0 -1.875,0.859375 -1.875,1.84375 0,1 0.859375,1.78125 1.875,1.78125 1.03125,0 1.875,-0.78125 1.875,-1.78125 z m -1.875,1.53125 C 1.6875,-0.171875 1.34375,-0.375 1.171875,-0.65625 0.96875,-0.984375 0.953125,-1.375 0.953125,-1.765625 c 0,-0.3125 0,-0.78125 0.234375,-1.125 0.21875,-0.28125 0.546875,-0.4375 0.921875,-0.4375 0.421875,0 0.765625,0.203125 0.9375,0.46875 0.21875,0.34375 0.234375,0.765625 0.234375,1.09375 0,0.359375 -0.015625,0.796875 -0.25,1.140625 -0.203125,0.3125 -0.5625,0.453125 -0.921875,0.453125 z m 0,0"
   id="path104" />
      </g>
      <g
   id="use58"
   transform="translate(37.448311,5.5349998)">
        <path
   d="m 6.21875,-2.421875 c 0,-0.640625 -0.28125,-1.09375 -1.140625,-1.09375 -0.734375,0 -1.109375,0.5 -1.234375,0.734375 C 3.703125,-3.359375 3.25,-3.515625 2.734375,-3.515625 c -0.78125,0 -1.140625,0.546875 -1.25,0.765625 v -0.765625 l -1.15625,0.09375 v 0.265625 c 0.546875,0 0.609375,0.046875 0.609375,0.4375 V -0.625 c 0,0.359375 -0.09375,0.359375 -0.609375,0.359375 V 0 c 0.34375,-0.03125 0.6875,-0.03125 0.90625,-0.03125 0.234375,0 0.5625,0 0.90625,0.03125 v -0.265625 c -0.5,0 -0.609375,0 -0.609375,-0.359375 v -1.4375 c 0,-0.84375 0.640625,-1.234375 1.140625,-1.234375 0.515625,0 0.609375,0.40625 0.609375,0.84375 V -0.625 c 0,0.359375 -0.109375,0.359375 -0.609375,0.359375 V 0 c 0.34375,-0.03125 0.6875,-0.03125 0.90625,-0.03125 0.234375,0 0.5625,0 0.90625,0.03125 v -0.265625 c -0.515625,0 -0.609375,0 -0.609375,-0.359375 v -1.4375 c 0,-0.84375 0.640625,-1.234375 1.140625,-1.234375 0.515625,0 0.609375,0.40625 0.609375,0.84375 V -0.625 c 0,0.359375 -0.109375,0.359375 -0.609375,0.359375 V 0 c 0.34375,-0.03125 0.6875,-0.03125 0.90625,-0.03125 0.234375,0 0.5625,0 0.90625,0.03125 v -0.265625 c -0.515625,0 -0.609375,0 -0.609375,-0.359375 z m 0,0"
   id="path108" />
      </g>
      <g
   id="use60"
   transform="translate(44.505039,5.5349998)">
        <path
   d="m 3.296875,-1.8125 c 0.171875,0 0.21875,0 0.21875,-0.1875 C 3.515625,-2.703125 3.125,-3.546875 2,-3.546875 c -0.984375,0 -1.765625,0.8125 -1.765625,1.796875 0,1.03125 0.859375,1.828125 1.875,1.828125 1,0 1.40625,-0.84375 1.40625,-1.03125 0,-0.03125 -0.03125,-0.109375 -0.125,-0.109375 -0.09375,0 -0.109375,0.046875 -0.125,0.09375 -0.28125,0.78125 -0.96875,0.796875 -1.109375,0.796875 -0.359375,0 -0.734375,-0.15625 -0.96875,-0.53125 C 0.953125,-1.0625 0.953125,-1.578125 0.953125,-1.8125 Z M 0.953125,-2.03125 C 1.03125,-3.140625 1.703125,-3.328125 2,-3.328125 c 0.9375,0 0.96875,1.125 0.96875,1.296875 z m 0,0"
   id="path112" />
      </g>
      <g
   id="use62"
   transform="translate(48.26852,5.5349998)">
        <path
   d="m 3.875,-2.421875 c 0,-0.65625 -0.3125,-1.09375 -1.140625,-1.09375 -0.796875,0 -1.15625,0.578125 -1.25,0.765625 v -0.765625 l -1.15625,0.09375 v 0.265625 c 0.546875,0 0.609375,0.046875 0.609375,0.4375 V -0.625 c 0,0.359375 -0.09375,0.359375 -0.609375,0.359375 V 0 c 0.34375,-0.03125 0.6875,-0.03125 0.90625,-0.03125 0.234375,0 0.5625,0 0.90625,0.03125 v -0.265625 c -0.5,0 -0.609375,0 -0.609375,-0.359375 v -1.4375 c 0,-0.84375 0.640625,-1.234375 1.125,-1.234375 0.484375,0 0.609375,0.34375 0.609375,0.84375 V -0.625 c 0,0.359375 -0.09375,0.359375 -0.609375,0.359375 V 0 C 3,-0.03125 3.359375,-0.03125 3.5625,-0.03125 c 0.234375,0 0.578125,0 0.921875,0.03125 v -0.265625 c -0.515625,0 -0.609375,0 -0.609375,-0.359375 z m 0,0"
   id="path116" />
      </g>
    </g>
  </g>
</g></g></svg>
