<?xml version="1.0" encoding="UTF-8" standalone="no"?>
<!-- Created with Inkscape (http://www.inkscape.org/) -->

<svg
   xmlns:dc="http://purl.org/dc/elements/1.1/"
   xmlns:cc="http://creativecommons.org/ns#"
   xmlns:rdf="http://www.w3.org/1999/02/22-rdf-syntax-ns#"
   xmlns:svg="http://www.w3.org/2000/svg"
   xmlns="http://www.w3.org/2000/svg"
   xmlns:sodipodi="http://sodipodi.sourceforge.net/DTD/sodipodi-0.dtd"
   xmlns:inkscape="http://www.inkscape.org/namespaces/inkscape"
   width="297mm"
   height="210mm"
   viewBox="0 0 297 210"
   version="1.1"
   id="svg1052"
   xml:space="preserve"
   sodipodi:docname="nidarosdomen_ny.svg"
   inkscape:version="0.92.5 (2060ec1f9f, 2020-04-08)"><metadata
     id="metadata119"><rdf:RDF><cc:Work
         rdf:about=""><dc:format>image/svg+xml</dc:format><dc:type
           rdf:resource="http://purl.org/dc/dcmitype/StillImage" /><dc:title></dc:title></cc:Work></rdf:RDF></metadata><sodipodi:namedview
     id="namedview1054"
     pagecolor="#ffffff"
     bordercolor="#000000"
     borderopacity="0.25"
     inkscape:showpageshadow="2"
     inkscape:pageopacity="0.0"
     inkscape:pagecheckerboard="0"
     inkscape:deskcolor="#d1d1d1"
     inkscape:document-units="mm"
     showgrid="false"
     inkscape:zoom="1.0683582"
     inkscape:cx="746.55731"
     inkscape:cy="353.48341"
     inkscape:window-width="2228"
     inkscape:window-height="1295"
     inkscape:window-x="0"
     inkscape:window-y="0"
     inkscape:window-maximized="1"
     inkscape:current-layer="layer1"
     inkscape:snap-text-baseline="false"
     inkscape:snap-bbox="true"
     inkscape:bbox-paths="true"
     inkscape:snap-grids="true" /><defs
     id="defs1049"><clipPath
   id="clipPath7568"><path
     d="M 0,2 H 5 V 8.855469 H 0 Z m 0,0"
     id="path4492"
     inkscape:connector-curvature="0"
     style="clip-rule:nonzero" /></clipPath><clipPath
   id="clipPath9229"><path
     d="M 0,2 H 5.695313 V 6.917969 H 0 Z m 0,0"
     id="path8299"
     inkscape:connector-curvature="0"
     style="clip-rule:nonzero" /></clipPath><clipPath
   id="clipPath9198"><path
     d="M 0,0 H 4.953125 V 6.917969 H 0 Z m 0,0"
     id="path4068"
     inkscape:connector-curvature="0"
     style="clip-rule:nonzero" /></clipPath><clipPath
   id="clipPath2469"><path
     d="M 0,0 H 6 V 4.289063 H 0 Z m 0,0"
     id="path9762"
     inkscape:connector-curvature="0"
     style="clip-rule:nonzero" /></clipPath><clipPath
   id="clipPath4431"><path
     d="M 0,0 H 5.9375 V 8.855469 H 0 Z m 0,0"
     id="path9097"
     inkscape:connector-curvature="0"
     style="clip-rule:nonzero" /></clipPath><clipPath
   id="clipPath7289"><path
     d="M 0,0 H 9.964844 V 4 H 0 Z m 0,0"
     id="path4742"
     inkscape:connector-curvature="0"
     style="clip-rule:nonzero" /></clipPath><clipPath
   id="clipPath9374"><path
     d="m 1,3 h 8 v 7.464844 H 1 Z m 0,0"
     id="path982"
     inkscape:connector-curvature="0"
     style="clip-rule:nonzero" /></clipPath><clipPath
   id="clipPath540"><path
     d="M 0,0 H 9.964844 V 4 H 0 Z m 0,0"
     id="path9671"
     inkscape:connector-curvature="0"
     style="clip-rule:nonzero" /></clipPath><clipPath
   id="clipPath6211"><path
     d="m 1,3 h 8 v 7.464844 H 1 Z m 0,0"
     id="path5083"
     inkscape:connector-curvature="0"
     style="clip-rule:nonzero" /></clipPath><clipPath
   id="clipPath5285">
      <path
   d="M 0,0 H 52.972656 V 5.535156 H 0 Z m 0,0"
   id="path5531"
   inkscape:connector-curvature="0"
   style="clip-rule:nonzero" />
    </clipPath>
  </defs><g
     inkscape:label="Lag 1"
     inkscape:groupmode="layer"
     id="layer1"
     transform="translate(0,-87)"><path
   style="fill:#ffffff;fill-opacity:0.65853696;fill-rule:nonzero;stroke:#000000;stroke-width:1.17320192;stroke-opacity:1"
   d="m 38.902143,153.77426 48.573131,7.23168 -14.676329,-46.65351 z"
   id="path167"
   sodipodi:nodetypes="cccc"
   inkscape:connector-curvature="0" /><ellipse
   style="fill:#ffffff;fill-opacity:0.65853696;fill-rule:nonzero;stroke:#000000;stroke-width:1.11741221;stroke-opacity:1"
   id="path7630"
   cx="67.259628"
   cy="141.40509"
   rx="3.6607082"
   ry="3.3992288" /><rect
   style="fill:#1a1a1a;fill-opacity:0;fill-rule:nonzero;stroke:#000000;stroke-width:1.11742485;stroke-opacity:1"
   id="rect7684"
   width="35.038528"
   height="67.461906"
   x="250.04829"
   y="46.334942"
   transform="matrix(0.83241001,0.55416025,-0.55417027,0.83240333,0,0)" /><path
   style="fill:#1a1a1a;fill-opacity:0.65853696;fill-rule:nonzero;stroke:#170000;stroke-width:1.11742067;stroke-opacity:1"
   d="m 159.66372,243.00075 58.69955,-90.34857 -85.24334,131.29823"
   id="path12160"
   inkscape:connector-curvature="0" /><path
   style="fill:#1a1a1a;fill-opacity:0.65853696;fill-rule:nonzero;stroke:#000000;stroke-width:1.11741221;stroke-opacity:1"
   d="m 163.77287,205.21433 82.71325,55.72566"
   id="path12367"
   inkscape:connector-curvature="0" /><path
   style="fill:#1a1a1a;fill-opacity:0.97508904;fill-rule:nonzero;stroke:#070000;stroke-width:0.2745142;stroke-dasharray:none;stroke-opacity:1"
   d="m 218.36327,152.65218 -2.47021,-1.92561 5.09884,-1.30742 -0.26143,4.96813 z"
   id="path12371"
   inkscape:connector-curvature="0" /><path
   style="fill:#1a1a1a;fill-opacity:1;fill-rule:nonzero;stroke:#000000;stroke-width:0.2745142;stroke-dasharray:none;stroke-opacity:1"
   d="m 246.48612,260.93999 1.96108,-2.61475 1.55573,5.13054 -4.95494,0.22974 z"
   id="path12427"
   sodipodi:nodetypes="ccccc"
   inkscape:connector-curvature="0" /><path
   style="fill:#1a1a1a;fill-opacity:0.91869902;fill-rule:nonzero;stroke:#000000;stroke-width:0.6968438;stroke-dasharray:none;stroke-opacity:1"
   d="m 177.40972,214.47712 0.88682,-66.77727"
   id="path12429"
   inkscape:connector-curvature="0" /><path
   style="fill:#1a1a1a;fill-opacity:0.91869902;fill-rule:nonzero;stroke:#000000;stroke-width:1.11741221;stroke-opacity:1"
   d="m 178.38364,147.13373 1.33153,-0.008 -1.43126,-1.70424 -1.18189,1.70233 z"
   id="path15731"
   inkscape:connector-curvature="0" /><path
   style="fill:#1a1a1a;fill-opacity:0.91869902;fill-rule:nonzero;stroke:#0c0a00;stroke-width:1.08733809;stroke-opacity:1"
   d="M 178.35608,214.92281 66.794011,141.16063"
   id="path15841"
   inkscape:connector-curvature="0" /><path
   style="fill:#1a1a1a;fill-opacity:0;fill-rule:nonzero;stroke:#000000;stroke-width:0.42232957;stroke-dasharray:none;stroke-opacity:1"
   id="path24302"
   sodipodi:type="arc"
   sodipodi:cx="160.85748"
   sodipodi:cy="192.15088"
   sodipodi:rx="19.866051"
   sodipodi:ry="15.207447"
   sodipodi:start="3.2498385"
   sodipodi:end="4.698667"
   sodipodi:open="true"
   sodipodi:arc-type="arc"
   d="m 141.10771,190.50795 a 19.866051,15.207447 0 0 1 19.47718,-13.56309" /><path
   style="fill:#1a1a1a;fill-opacity:0;stroke:#000000;stroke-width:0.6968438;stroke-dasharray:none"
   d="M 177.40972,214.47712 144.30516,139.40981"
   id="path39588"
   inkscape:connector-curvature="0" /><path
   style="fill:#000000;fill-opacity:1;fill-rule:nonzero;stroke:#070000;stroke-width:0;stroke-dasharray:none;stroke-opacity:1"
   d="m 142.29675,137.41195 0.17362,-3.14306 3.92052,4.17511 -4.17158,1.93168 z"
   id="path12371-5"
   inkscape:connector-curvature="0" /><g
   inkscape:label=""
   transform="translate(144.56689,167.35082)"
   id="g16754" /><g
   inkscape:label=""
   transform="matrix(4.2232954,0,0,4.2232954,134.94603,120.52104)"
   id="g3144"><g
   id="g12"
   transform="matrix(0.352778,0,0,0.352778,-0.115755,0.00158747)"
   style="fill:#000000;fill-opacity:1">
    <g
   id="use10"
   transform="translate(0,6.8080001)">
      <path
   d="M 2.3125,-6.671875 C 2.21875,-6.796875 2.21875,-6.8125 2.03125,-6.8125 H 0.328125 V -6.5 H 0.625 c 0.140625,0 0.34375,0.015625 0.484375,0.015625 0.234375,0.03125 0.25,0.046875 0.25,0.234375 v 5.203125 c 0,0.265625 0,0.734375 -1.03125,0.734375 V 0 C 0.671875,-0.015625 1.171875,-0.03125 1.5,-0.03125 c 0.328125,0 0.8125,0.015625 1.15625,0.03125 v -0.3125 c -1.015625,0 -1.015625,-0.46875 -1.015625,-0.734375 v -5.1875 c 0.046875,0.046875 0.046875,0.0625 0.09375,0.125 L 5.796875,-0.125 C 5.890625,-0.015625 5.90625,0 5.96875,0 6.109375,0 6.109375,-0.0625 6.109375,-0.265625 v -5.5 c 0,-0.265625 0,-0.734375 1.03125,-0.734375 v -0.3125 c -0.359375,0.015625 -0.84375,0.03125 -1.171875,0.03125 -0.328125,0 -0.8125,-0.015625 -1.15625,-0.03125 V -6.5 c 1.015625,0 1.015625,0.46875 1.015625,0.734375 V -1.5 Z m 0,0"
   id="path18"
   inkscape:connector-curvature="0" />
    </g>
  </g>
</g><g
   inkscape:label=""
   transform="matrix(4.2232954,0,0,4.2232954,21.314051,96.967416)"
   id="g5674"><g
   clip-path="url(#clipPath5285)"
   id="g66"
   transform="matrix(0.352778,0,0,0.352778,-0.121267,-0.00132286)">
    <g
   id="g64"
   style="fill:#000000;fill-opacity:1">
      <g
   id="use40"
   transform="translate(0,5.5349998)">
        <path
   d="M 1.9375,-5.328125 C 1.84375,-5.4375 1.84375,-5.4375 1.6875,-5.4375 H 0.34375 v 0.265625 h 0.234375 c 0.140625,0 0.203125,0 0.359375,0.015625 0.203125,0.015625 0.21875,0.03125 0.21875,0.171875 v 4.125 c 0,0.21875 0,0.59375 -0.8125,0.59375 V 0 c 0.359375,-0.03125 0.734375,-0.03125 0.953125,-0.03125 0.203125,0 0.578125,0 0.9375,0.03125 v -0.265625 c -0.8125,0 -0.8125,-0.375 -0.8125,-0.59375 v -4.0625 L 4.875,-0.125 C 4.953125,-0.03125 4.96875,0 5.046875,0 c 0.125,0 0.125,-0.078125 0.125,-0.21875 v -4.375 c 0,-0.203125 0,-0.578125 0.8125,-0.578125 V -5.4375 C 5.625,-5.421875 5.25,-5.421875 5.046875,-5.421875 c -0.203125,0 -0.578125,0 -0.9375,-0.015625 v 0.265625 c 0.796875,0 0.796875,0.375 0.796875,0.578125 v 3.40625 z m 0,0"
   id="path72"
   inkscape:connector-curvature="0" />
      </g>
      <g
   id="use42"
   transform="translate(6.3426061,5.5349998)">
        <path
   d="m 1.546875,-4.90625 c 0,-0.234375 -0.171875,-0.453125 -0.4375,-0.453125 -0.234375,0 -0.4375,0.1875 -0.4375,0.4375 0,0.28125 0.234375,0.453125 0.4375,0.453125 0.28125,0 0.4375,-0.234375 0.4375,-0.4375 z m -1.1875,1.484375 v 0.265625 c 0.515625,0 0.578125,0.046875 0.578125,0.4375 V -0.625 c 0,0.359375 -0.09375,0.359375 -0.609375,0.359375 V 0 c 0.3125,-0.03125 0.765625,-0.03125 0.890625,-0.03125 0.09375,0 0.578125,0 0.859375,0.03125 v -0.265625 c -0.53125,0 -0.5625,-0.03125 -0.5625,-0.34375 v -2.90625 z m 0,0"
   id="path76"
   inkscape:connector-curvature="0" />
      </g>
      <g
   id="use44"
   transform="translate(8.694582,5.5349998)">
        <path
   d="m 2.625,-5.4375 v 0.265625 c 0.53125,0 0.609375,0.046875 0.609375,0.4375 v 1.6875 c -0.28125,-0.3125 -0.65625,-0.46875 -1.078125,-0.46875 -1,0 -1.875,0.78125 -1.875,1.796875 0,0.984375 0.796875,1.796875 1.796875,1.796875 0.46875,0 0.859375,-0.21875 1.125,-0.5 v 0.5 L 4.421875,0 V -0.265625 C 3.875,-0.265625 3.8125,-0.3125 3.8125,-0.703125 V -5.53125 Z m 0.578125,4.453125 c 0,0.140625 0,0.171875 -0.125,0.328125 C 2.859375,-0.328125 2.5,-0.140625 2.125,-0.140625 1.75,-0.140625 1.4375,-0.328125 1.25,-0.625 1.03125,-0.9375 0.984375,-1.328125 0.984375,-1.703125 0.984375,-2.171875 1.0625,-2.5 1.25,-2.765625 c 0.1875,-0.296875 0.546875,-0.53125 0.953125,-0.53125 0.375,0 0.765625,0.203125 1,0.609375 z m 0,0"
   id="path80"
   inkscape:connector-curvature="0" />
      </g>
      <g
   id="use46"
   transform="translate(13.399332,5.5349998)">
        <path
   d="m 3.34375,-2.375 c 0,-0.78125 -0.75,-1.171875 -1.484375,-1.171875 -0.65625,0 -1.25,0.25 -1.25,0.78125 0,0.234375 0.171875,0.375 0.375,0.375 0.234375,0 0.375,-0.15625 0.375,-0.375 0,-0.1875 -0.109375,-0.328125 -0.296875,-0.359375 0.296875,-0.203125 0.734375,-0.203125 0.78125,-0.203125 0.453125,0 0.890625,0.3125 0.890625,0.96875 V -2.125 C 2.28125,-2.09375 1.75,-2.078125 1.1875,-1.84375 c -0.703125,0.3125 -0.84375,0.765625 -0.84375,1.03125 0,0.6875 0.8125,0.890625 1.359375,0.890625 0.578125,0 0.9375,-0.328125 1.125,-0.640625 0.03125,0.296875 0.234375,0.609375 0.59375,0.609375 0.078125,0 0.75,-0.03125 0.75,-0.765625 v -0.4375 h -0.25 v 0.4375 c 0,0.328125 -0.109375,0.453125 -0.28125,0.453125 -0.296875,0 -0.296875,-0.359375 -0.296875,-0.453125 z m -0.609375,1.25 c 0,0.78125 -0.640625,0.984375 -0.96875,0.984375 C 1.359375,-0.140625 1,-0.421875 1,-0.8125 1,-1.328125 1.5,-1.875 2.734375,-1.90625 Z m 0,0"
   id="path84"
   inkscape:connector-curvature="0" />
      </g>
      <g
   id="use48"
   transform="translate(17.633846,5.5349998)">
        <path
   d="m 1.46875,-1.8125 c 0,-0.609375 0.25,-1.46875 1.015625,-1.484375 -0.046875,0.03125 -0.140625,0.09375 -0.140625,0.28125 0,0.25 0.203125,0.359375 0.359375,0.359375 0.1875,0 0.359375,-0.125 0.359375,-0.359375 0,-0.28125 -0.25,-0.5 -0.609375,-0.5 -0.515625,0 -0.875,0.390625 -1.03125,0.84375 H 1.40625 v -0.84375 l -1.125,0.09375 v 0.265625 c 0.546875,0 0.609375,0.046875 0.609375,0.4375 V -0.625 c 0,0.359375 -0.109375,0.359375 -0.609375,0.359375 V 0 c 0.3125,-0.03125 0.75,-0.03125 0.9375,-0.03125 0.46875,0 0.484375,0 1,0.03125 V -0.265625 H 2.0625 c -0.578125,0 -0.59375,-0.078125 -0.59375,-0.375 z m 0,0"
   id="path88"
   inkscape:connector-curvature="0" />
      </g>
      <g
   id="use50"
   transform="translate(20.934265,5.5349998)">
        <path
   d="m 3.984375,-1.703125 c 0,-0.984375 -0.828125,-1.84375 -1.875,-1.84375 -1.046875,0 -1.875,0.859375 -1.875,1.84375 0,1 0.859375,1.78125 1.875,1.78125 1.03125,0 1.875,-0.78125 1.875,-1.78125 z m -1.875,1.53125 C 1.6875,-0.171875 1.34375,-0.375 1.171875,-0.65625 0.96875,-0.984375 0.953125,-1.375 0.953125,-1.765625 c 0,-0.3125 0,-0.78125 0.234375,-1.125 0.21875,-0.28125 0.546875,-0.4375 0.921875,-0.4375 0.421875,0 0.765625,0.203125 0.9375,0.46875 0.21875,0.34375 0.234375,0.765625 0.234375,1.09375 0,0.359375 -0.015625,0.796875 -0.25,1.140625 -0.203125,0.3125 -0.5625,0.453125 -0.921875,0.453125 z m 0,0"
   id="path92"
   inkscape:connector-curvature="0" />
      </g>
      <g
   id="use52"
   transform="translate(25.168779,5.5349998)">
        <path
   d="m 2.84375,-3.34375 c 0,-0.125 0,-0.203125 -0.109375,-0.203125 -0.046875,0 -0.0625,0 -0.1875,0.125 -0.015625,0 -0.09375,0.078125 -0.109375,0.078125 -0.015625,0 -0.03125,0 -0.078125,-0.03125 C 2.234375,-3.46875 2,-3.546875 1.640625,-3.546875 c -1.109375,0 -1.359375,0.59375 -1.359375,0.984375 0,0.390625 0.296875,0.625 0.3125,0.65625 0.328125,0.234375 0.5,0.265625 1.046875,0.359375 0.375,0.078125 0.984375,0.1875 0.984375,0.71875 0,0.3125 -0.203125,0.6875 -0.9375,0.6875 -0.8125,0 -1.046875,-0.625 -1.140625,-1.046875 C 0.515625,-1.296875 0.5,-1.328125 0.40625,-1.328125 c -0.125,0 -0.125,0.0625 -0.125,0.21875 V -0.125 c 0,0.125 0,0.203125 0.09375,0.203125 0.0625,0 0.0625,0 0.203125,-0.15625 C 0.625,-0.125 0.703125,-0.21875 0.75,-0.265625 c 0.359375,0.328125 0.734375,0.34375 0.9375,0.34375 1.015625,0 1.359375,-0.578125 1.359375,-1.109375 0,-0.375 -0.21875,-0.9375 -1.171875,-1.109375 -0.0625,-0.015625 -0.515625,-0.09375 -0.546875,-0.09375 -0.25,-0.0625 -0.625,-0.234375 -0.625,-0.546875 0,-0.234375 0.1875,-0.578125 0.9375,-0.578125 0.890625,0 0.9375,0.65625 0.953125,0.875 0,0.0625 0.0625,0.09375 0.109375,0.09375 0.140625,0 0.140625,-0.0625 0.140625,-0.203125 z m 0,0"
   id="path96"
   inkscape:connector-curvature="0" />
      </g>
      <g
   id="use54"
   transform="translate(28.509048,5.5349998)">
        <path
   d="m 2.625,-5.4375 v 0.265625 c 0.53125,0 0.609375,0.046875 0.609375,0.4375 v 1.6875 c -0.28125,-0.3125 -0.65625,-0.46875 -1.078125,-0.46875 -1,0 -1.875,0.78125 -1.875,1.796875 0,0.984375 0.796875,1.796875 1.796875,1.796875 0.46875,0 0.859375,-0.21875 1.125,-0.5 v 0.5 L 4.421875,0 V -0.265625 C 3.875,-0.265625 3.8125,-0.3125 3.8125,-0.703125 V -5.53125 Z m 0.578125,4.453125 c 0,0.140625 0,0.171875 -0.125,0.328125 C 2.859375,-0.328125 2.5,-0.140625 2.125,-0.140625 1.75,-0.140625 1.4375,-0.328125 1.25,-0.625 1.03125,-0.9375 0.984375,-1.328125 0.984375,-1.703125 0.984375,-2.171875 1.0625,-2.5 1.25,-2.765625 c 0.1875,-0.296875 0.546875,-0.53125 0.953125,-0.53125 0.375,0 0.765625,0.203125 1,0.609375 z m 0,0"
   id="path100"
   inkscape:connector-curvature="0" />
      </g>
      <g
   id="use56"
   transform="translate(33.213799,5.5349998)">
        <path
   d="m 3.984375,-1.703125 c 0,-0.984375 -0.828125,-1.84375 -1.875,-1.84375 -1.046875,0 -1.875,0.859375 -1.875,1.84375 0,1 0.859375,1.78125 1.875,1.78125 1.03125,0 1.875,-0.78125 1.875,-1.78125 z m -1.875,1.53125 C 1.6875,-0.171875 1.34375,-0.375 1.171875,-0.65625 0.96875,-0.984375 0.953125,-1.375 0.953125,-1.765625 c 0,-0.3125 0,-0.78125 0.234375,-1.125 0.21875,-0.28125 0.546875,-0.4375 0.921875,-0.4375 0.421875,0 0.765625,0.203125 0.9375,0.46875 0.21875,0.34375 0.234375,0.765625 0.234375,1.09375 0,0.359375 -0.015625,0.796875 -0.25,1.140625 -0.203125,0.3125 -0.5625,0.453125 -0.921875,0.453125 z m 0,0"
   id="path104"
   inkscape:connector-curvature="0" />
      </g>
      <g
   id="use58"
   transform="translate(37.448311,5.5349998)">
        <path
   d="m 6.21875,-2.421875 c 0,-0.640625 -0.28125,-1.09375 -1.140625,-1.09375 -0.734375,0 -1.109375,0.5 -1.234375,0.734375 C 3.703125,-3.359375 3.25,-3.515625 2.734375,-3.515625 c -0.78125,0 -1.140625,0.546875 -1.25,0.765625 v -0.765625 l -1.15625,0.09375 v 0.265625 c 0.546875,0 0.609375,0.046875 0.609375,0.4375 V -0.625 c 0,0.359375 -0.09375,0.359375 -0.609375,0.359375 V 0 c 0.34375,-0.03125 0.6875,-0.03125 0.90625,-0.03125 0.234375,0 0.5625,0 0.90625,0.03125 v -0.265625 c -0.5,0 -0.609375,0 -0.609375,-0.359375 v -1.4375 c 0,-0.84375 0.640625,-1.234375 1.140625,-1.234375 0.515625,0 0.609375,0.40625 0.609375,0.84375 V -0.625 c 0,0.359375 -0.109375,0.359375 -0.609375,0.359375 V 0 c 0.34375,-0.03125 0.6875,-0.03125 0.90625,-0.03125 0.234375,0 0.5625,0 0.90625,0.03125 v -0.265625 c -0.515625,0 -0.609375,0 -0.609375,-0.359375 v -1.4375 c 0,-0.84375 0.640625,-1.234375 1.140625,-1.234375 0.515625,0 0.609375,0.40625 0.609375,0.84375 V -0.625 c 0,0.359375 -0.109375,0.359375 -0.609375,0.359375 V 0 c 0.34375,-0.03125 0.6875,-0.03125 0.90625,-0.03125 0.234375,0 0.5625,0 0.90625,0.03125 v -0.265625 c -0.515625,0 -0.609375,0 -0.609375,-0.359375 z m 0,0"
   id="path108"
   inkscape:connector-curvature="0" />
      </g>
      <g
   id="use60"
   transform="translate(44.505039,5.5349998)">
        <path
   d="m 3.296875,-1.8125 c 0.171875,0 0.21875,0 0.21875,-0.1875 C 3.515625,-2.703125 3.125,-3.546875 2,-3.546875 c -0.984375,0 -1.765625,0.8125 -1.765625,1.796875 0,1.03125 0.859375,1.828125 1.875,1.828125 1,0 1.40625,-0.84375 1.40625,-1.03125 0,-0.03125 -0.03125,-0.109375 -0.125,-0.109375 -0.09375,0 -0.109375,0.046875 -0.125,0.09375 -0.28125,0.78125 -0.96875,0.796875 -1.109375,0.796875 -0.359375,0 -0.734375,-0.15625 -0.96875,-0.53125 C 0.953125,-1.0625 0.953125,-1.578125 0.953125,-1.8125 Z M 0.953125,-2.03125 C 1.03125,-3.140625 1.703125,-3.328125 2,-3.328125 c 0.9375,0 0.96875,1.125 0.96875,1.296875 z m 0,0"
   id="path112"
   inkscape:connector-curvature="0" />
      </g>
      <g
   id="use62"
   transform="translate(48.26852,5.5349998)">
        <path
   d="m 3.875,-2.421875 c 0,-0.65625 -0.3125,-1.09375 -1.140625,-1.09375 -0.796875,0 -1.15625,0.578125 -1.25,0.765625 v -0.765625 l -1.15625,0.09375 v 0.265625 c 0.546875,0 0.609375,0.046875 0.609375,0.4375 V -0.625 c 0,0.359375 -0.09375,0.359375 -0.609375,0.359375 V 0 c 0.34375,-0.03125 0.6875,-0.03125 0.90625,-0.03125 0.234375,0 0.5625,0 0.90625,0.03125 v -0.265625 c -0.5,0 -0.609375,0 -0.609375,-0.359375 v -1.4375 c 0,-0.84375 0.640625,-1.234375 1.125,-1.234375 0.484375,0 0.609375,0.34375 0.609375,0.84375 V -0.625 c 0,0.359375 -0.09375,0.359375 -0.609375,0.359375 V 0 C 3,-0.03125 3.359375,-0.03125 3.5625,-0.03125 c 0.234375,0 0.578125,0 0.921875,0.03125 v -0.265625 c -0.515625,0 -0.609375,0 -0.609375,-0.359375 z m 0,0"
   id="path116"
   inkscape:connector-curvature="0" />
      </g>
    </g>
  </g>
</g>






<path
   style="fill:#ffffff;fill-opacity:0;stroke:#000000;stroke-width:0.42232957;stroke-dasharray:none;stroke-opacity:0.98924704"
   d="m 177.92158,157.9329 c 0,0 61.56957,17.0102 30.87722,77.47043"
   id="path5014"
   inkscape:connector-curvature="0" /><path
   style="fill:#ffffff;fill-opacity:0;stroke:#000000;stroke-width:0.42232957;stroke-dasharray:none;stroke-opacity:0.98924704"
   d="m 155.06709,163.05875 c 0,0 8.56342,-6.01401 23.01016,-3.00702"
   id="path5016"
   inkscape:connector-curvature="0" /><path
   style="fill:#ffffff;fill-opacity:0;stroke:#000000;stroke-width:0.42232957;stroke-dasharray:none;stroke-opacity:0.98924704"
   d="m 178.46948,152.07663 c 0,0 -34.51528,-2.22256 -55.6951,26.27864"
   id="path5018"
   inkscape:connector-curvature="0" /><g
   id="g1596"
   transform="translate(43.07901,58.489387)"><g
     word-spacing="normal"
     letter-spacing="normal"
     font-size-adjust="none"
     font-stretch="normal"
     font-weight="normal"
     font-variant="normal"
     font-style="normal"
     stroke-miterlimit="10.433"
     xml:space="preserve"
     transform="matrix(0.3,0,0,-0.3,-52.5,222.75)"
     id="content"
     style="font-style:normal;font-variant:normal;font-weight:normal;font-stretch:normal;letter-spacing:normal;word-spacing:normal;text-anchor:start;fill:none;fill-opacity:1;fill-rule:evenodd;stroke:#000000;stroke-linecap:butt;stroke-linejoin:miter;stroke-miterlimit:10.43299961;stroke-dasharray:none;stroke-dashoffset:0;stroke-opacity:1"><path
       id="path1593"
       d="m 484.16,434.54 -0.01,0.35 -0.02,0.35 -0.04,0.33 -0.06,0.34 -0.06,0.33 -0.09,0.32 -0.1,0.32 -0.11,0.31 -0.13,0.3 -0.14,0.29 -0.15,0.29 -0.17,0.27 -0.18,0.27 -0.19,0.26 -0.2,0.25 -0.22,0.24 -0.23,0.22 -0.24,0.22 -0.25,0.2 -0.26,0.2 -0.28,0.17 -0.28,0.17 -0.29,0.15 -0.31,0.14 -0.31,0.12 -0.32,0.11 -0.34,0.09 -0.34,0.08 -0.35,0.06 -0.35,0.05 -0.37,0.02 -0.38,0.01 c -2.89,0 -4.28,-0.8 -6.03,-2.09 -2.73,-1.99 -5.48,-6.83 -6.42,-10.61 l -7.92,-31.64 c -0.06,-0.19 0.19,-0.5 0.59,-0.5 0.39,0 0.55,0.11 0.6,0.25 l 3.48,13.75 c 0.95,-2.99 3.14,-4.83 6.78,-4.83 l -0.15,1.09 c -3.78,0 -5.68,2.89 -5.68,6.44 0,0.48 0,1.23 0.25,2.19 l 3.19,12.61 c 1.1,4.28 4.69,12.2 10.66,12.2 2.89,0 4.64,-1.55 4.64,-4.53 v 0 c 0,-3.5 -1.89,-7.08 -4.49,-8.63 -1.34,0.5 -2.34,0.6 -3.84,0.6 -1.05,0 -3.83,0.04 -3.83,-1.6 -0.04,-1.39 2.53,-1.23 3.44,-1.23 l 0.14,1.09 c -0.69,0 -1.69,-0.06 -2.19,0.19 0.11,0.5 1.89,0.41 2.44,0.41 1.05,0 1.5,0 2.14,-0.25 v 0 c -0.64,-0.25 -1.19,-0.35 -2.39,-0.35 l -0.14,-1.09 c 1.84,0 2.59,0.05 4.08,0.64 1.89,-1.8 2.14,-3.34 2.2,-5.62 0.1,-2.9 -1.11,-6.63 -2.5,-8.58 -1.94,-2.69 -5.28,-4.49 -8.12,-4.49 l 0.15,-1.09 c 3.64,0 7.38,1.75 9.61,3.94 2.39,2.29 4,5.48 4,9.17 0,3.58 -1.84,6.17 -3.64,7.42 2.89,1.64 5.72,4.73 5.72,8.31 z"
       inkscape:connector-curvature="0"
       style="fill:#000000;stroke-width:0" /></g></g><g
   id="g1726"
   transform="translate(77.577241,67.945755)"><g
     word-spacing="normal"
     letter-spacing="normal"
     font-size-adjust="none"
     font-stretch="normal"
     font-weight="normal"
     font-variant="normal"
     font-style="normal"
     stroke-miterlimit="10.433"
     xml:space="preserve"
     transform="matrix(0.3,0,0,-0.3,-52.5,222.75)"
     id="g1724"
     style="font-style:normal;font-variant:normal;font-weight:normal;font-stretch:normal;letter-spacing:normal;word-spacing:normal;text-anchor:start;fill:none;fill-opacity:1;fill-rule:evenodd;stroke:#000000;stroke-linecap:butt;stroke-linejoin:miter;stroke-miterlimit:10.43299961;stroke-dasharray:none;stroke-dashoffset:0;stroke-opacity:1"><path
       id="path1722"
       d="m 479.29,417.96 -0.01,0.37 -0.01,0.35 -0.02,0.35 -0.02,0.34 -0.06,0.65 -0.09,0.63 -0.11,0.59 -0.14,0.57 -0.15,0.54 -0.18,0.51 -0.19,0.49 -0.21,0.45 -0.23,0.44 -0.25,0.4 -0.26,0.38 -0.27,0.36 -0.29,0.33 -0.3,0.31 -0.31,0.29 -0.31,0.26 -0.33,0.24 -0.34,0.22 -0.34,0.2 -0.35,0.18 -0.35,0.16 -0.36,0.14 -0.35,0.12 -0.36,0.11 -0.37,0.09 -0.36,0.06 -0.36,0.06 -0.35,0.04 -0.35,0.02 h -0.35 l -0.05,-1.09 c 4.94,0 4.94,-6.53 4.94,-10.41 0,-1.84 0,-4.73 0.09,-5.57 v 0 c -4.37,-3.85 -8.22,-4.39 -10.2,-4.39 -3,0 -4.49,2.25 -4.49,5.43 0,2.44 1.3,7.82 2.89,10.36 2.33,3.64 5.04,4.58 6.77,4.58 l 0.05,1.09 c -6.82,0 -13.39,-7.12 -13.39,-14.14 0,-4.64 2.98,-8.42 8.06,-8.42 3.14,0 6.73,1.14 10.51,4.19 0.66,-2.64 2.3,-4.19 4.54,-4.19 2.64,0 4.18,2.74 4.18,3.53 0,0.36 -0.29,0.5 -0.59,0.5 -0.36,0 -0.5,-0.14 -0.66,-0.5 -0.89,-2.43 -2.68,-2.43 -2.78,-2.43 -1.54,0 -1.54,3.89 -1.54,5.07 0,1.05 0,1.16 0.5,1.75 4.68,5.88 5.73,11.66 5.73,11.71 0,0.11 -0.06,0.5 -0.61,0.5 -0.5,0 -0.5,-0.14 -0.75,-1.05 -0.89,-3.14 -2.53,-6.92 -4.87,-9.86 z"
       inkscape:connector-curvature="0"
       style="fill:#000000;stroke-width:0" /></g></g><g
   id="g1859"
   transform="translate(55.512382,79.32842)"><g
     word-spacing="normal"
     letter-spacing="normal"
     font-size-adjust="none"
     font-stretch="normal"
     font-weight="normal"
     font-variant="normal"
     font-style="normal"
     stroke-miterlimit="10.433"
     xml:space="preserve"
     transform="matrix(0.3,0,0,-0.3,-52.5,222.75)"
     id="g1857"
     style="font-style:normal;font-variant:normal;font-weight:normal;font-stretch:normal;letter-spacing:normal;word-spacing:normal;text-anchor:start;fill:none;fill-opacity:1;fill-rule:evenodd;stroke:#000000;stroke-linecap:butt;stroke-linejoin:miter;stroke-miterlimit:10.43299961;stroke-dasharray:none;stroke-dashoffset:0;stroke-opacity:1"><path
       id="path1855"
       d="m 478.19,431.11 v 0.31 l -0.01,0.34 -0.02,0.36 -0.02,0.37 -0.03,0.39 -0.04,0.39 -0.04,0.41 -0.06,0.41 -0.07,0.42 -0.07,0.43 -0.09,0.42 -0.1,0.43 -0.12,0.42 -0.12,0.42 -0.14,0.41 -0.16,0.41 -0.17,0.4 -0.18,0.38 -0.2,0.37 -0.22,0.36 -0.23,0.34 -0.25,0.32 -0.28,0.3 -0.29,0.27 -0.31,0.25 -0.16,0.12 -0.17,0.1 -0.17,0.1 -0.18,0.1 -0.18,0.08 -0.19,0.08 -0.19,0.07 -0.2,0.06 -0.21,0.05 -0.21,0.05 -0.22,0.03 -0.22,0.02 -0.23,0.02 h -0.23 l -0.05,-1.09 c 2.44,0 2.73,-3.19 2.73,-6.03 0,-2.44 -0.39,-4.99 -1.59,-9.92 h -10.41 c 0.85,3.2 1.85,7.18 3.83,10.72 1.36,2.43 3.19,5.23 5.44,5.23 l 0.05,1.09 c -6.92,0 -14.6,-14.04 -14.6,-25.45 0,-4.69 1.44,-10.22 5.99,-10.22 v 1.1 c -1.66,0 -2.71,1.45 -2.71,6.07 0,2.1 0.3,4.99 1.6,9.86 h 10.37 c -0.54,-2.28 -1.59,-6.51 -3.5,-10.11 -1.73,-3.39 -3.62,-5.82 -5.76,-5.82 v -1.1 c 7.01,0 14.59,14.3 14.59,25.46 z"
       inkscape:connector-curvature="0"
       style="fill:#000000;stroke-width:0" /></g></g><g
   id="g1999"
   transform="translate(91.586677,37.300118)"><g
     word-spacing="normal"
     letter-spacing="normal"
     font-size-adjust="none"
     font-stretch="normal"
     font-weight="normal"
     font-variant="normal"
     font-style="normal"
     stroke-miterlimit="10.433"
     xml:space="preserve"
     transform="matrix(0.3,0,0,-0.3,-52.5,222.75)"
     id="g1997"
     style="font-style:normal;font-variant:normal;font-weight:normal;font-stretch:normal;letter-spacing:normal;word-spacing:normal;text-anchor:start;fill:none;fill-opacity:1;fill-rule:evenodd;stroke:#000000;stroke-linecap:butt;stroke-linejoin:miter;stroke-miterlimit:10.43299961;stroke-dasharray:none;stroke-dashoffset:0;stroke-opacity:1"><path
       id="path1991"
       d="m 488.35,449.21 0.16,0.01 h 0.16 0.15 l 0.08,0.01 h 0.08 l 0.07,0.01 0.08,0.01 0.07,0.01 0.07,0.01 0.07,0.01 0.07,0.02 0.07,0.02 0.06,0.02 0.06,0.02 0.06,0.03 0.05,0.03 0.06,0.04 0.05,0.04 0.04,0.04 0.04,0.05 0.04,0.05 0.02,0.02 0.02,0.03 0.01,0.03 0.02,0.03 0.01,0.03 0.02,0.04 0.01,0.03 0.01,0.03 0.01,0.04 v 0.04 l 0.01,0.04 0.01,0.04 v 0.04 l 0.01,0.04 v 0.05 0.04 c 0,1 -0.91,1 -1.75,1 h -26.96 c -0.84,0 -1.73,0 -1.73,-1 0,-1 0.89,-1 1.73,-1 z"
       inkscape:connector-curvature="0"
       style="fill:#000000;stroke-width:0" /><path
       id="path1993"
       d="m 497.07,449.21 -0.26,-0.19 -0.24,-0.2 -0.24,-0.19 -0.22,-0.19 -0.23,-0.2 -0.21,-0.19 -0.2,-0.19 -0.2,-0.18 -0.19,-0.19 -0.18,-0.18 -0.18,-0.18 -0.17,-0.17 -0.16,-0.18 -0.15,-0.17 -0.15,-0.16 -0.14,-0.16 -0.13,-0.16 -0.13,-0.16 -0.12,-0.14 -0.11,-0.15 -0.11,-0.14 -0.1,-0.13 -0.09,-0.13 -0.09,-0.12 -0.08,-0.11 -0.08,-0.11 -0.07,-0.1 -0.06,-0.1 -0.06,-0.09 -0.05,-0.08 -0.05,-0.07 -0.04,-0.07 c -2.23,-3.43 -2.64,-6.57 -2.64,-6.62 0,-0.6 0.61,-0.6 1,-0.6 0.85,0 0.89,0.1 1.1,1 1.15,4.88 4.09,9.07 9.71,11.36 0.6,0.19 0.75,0.3 0.75,0.64 0,0.35 -0.29,0.5 -0.4,0.55 -2.19,0.85 -8.22,3.35 -10.11,11.72 -0.16,0.59 -0.2,0.73 -1.05,0.73 -0.39,0 -1,0 -1,-0.59 0,-0.09 0.45,-3.23 2.55,-6.58 1,-1.48 2.44,-3.23 4.58,-4.83 h -37.02 c -0.89,0 -1.8,0 -1.8,-1 0,-1 0.91,-1 1.8,-1 z"
       inkscape:connector-curvature="0"
       style="fill:#000000;stroke-width:0" /><path
       id="path1995"
       d="m 468.29,407.57 -0.05,-0.18 -0.04,-0.17 -0.04,-0.16 -0.05,-0.15 -0.04,-0.15 -0.05,-0.13 -0.05,-0.13 -0.05,-0.12 -0.05,-0.11 -0.06,-0.11 -0.07,-0.1 -0.07,-0.09 -0.07,-0.08 -0.09,-0.08 -0.09,-0.08 -0.11,-0.06 -0.11,-0.07 -0.13,-0.05 -0.13,-0.05 -0.15,-0.05 -0.16,-0.04 -0.09,-0.02 -0.09,-0.01 -0.09,-0.02 -0.1,-0.01 -0.1,-0.02 -0.1,-0.01 -0.11,-0.01 -0.12,-0.01 -0.11,-0.01 -0.12,-0.01 -0.13,-0.01 -0.13,-0.01 -0.14,-0.01 h -0.14 l -0.14,-0.01 h -0.15 l -0.16,-0.01 h -0.16 -0.16 -0.17 -0.18 -0.18 c -0.85,0 -1.35,0 -1.35,-1 0,-0.55 0.46,-0.55 1.35,-0.55 h 17.78 c 7.87,0 13.75,5.87 13.75,10.77 0,3.57 -2.89,6.46 -7.72,7.01 5.19,0.95 10.42,4.64 10.42,9.38 0,3.68 -3.29,6.87 -9.28,6.87 l -0.69,-1.55 c 4.38,0 5.43,-2.93 5.43,-5.12 0,-4.39 -4.29,-9.13 -10.36,-9.13 h -7.27 l -0.3,-1.09 h 9.41 c 4.78,0 5.73,-3.69 5.73,-5.83 0,-4.94 -4.43,-9.76 -10.31,-9.76 h -6.78 c -0.69,0 -0.8,0 -1.09,0.04 -0.5,0.05 -0.64,0.1 -0.64,0.5 0,0.14 0,0.25 0.25,1.14 l 3.43,13.91 0.3,1.09 3.08,12.36 c 0.45,1.74 0.55,1.89 2.7,1.89 h 6.42 l 0.69,1.55 h -16.73 c -0.94,0 -1.44,0 -1.44,-1 0,-0.55 0.44,-0.55 1.39,-0.55 0.09,0 1.05,0 1.89,-0.09 0.89,-0.11 1.34,-0.16 1.34,-0.8 0,-0.2 -0.04,-0.36 -0.2,-0.95 z"
       inkscape:connector-curvature="0"
       style="fill:#000000;stroke-width:0" /></g></g><g
   id="g2142"
   transform="translate(135.01592,124.50884)"><g
     word-spacing="normal"
     letter-spacing="normal"
     font-size-adjust="none"
     font-stretch="normal"
     font-weight="normal"
     font-variant="normal"
     font-style="normal"
     stroke-miterlimit="10.433"
     xml:space="preserve"
     transform="matrix(0.3,0,0,-0.3,-52.5,222.75)"
     id="g2140"
     style="font-style:normal;font-variant:normal;font-weight:normal;font-stretch:normal;letter-spacing:normal;word-spacing:normal;text-anchor:start;fill:none;fill-opacity:1;fill-rule:evenodd;stroke:#000000;stroke-linecap:butt;stroke-linejoin:miter;stroke-miterlimit:10.43299961;stroke-dasharray:none;stroke-dashoffset:0;stroke-opacity:1"><path
       id="path2138"
       d="m 477.29,439.57 v 0.01 0.01 0 0.01 0.01 0.01 0 0.01 l 0.01,0.02 v 0.03 0.02 l 0.01,0.02 0.01,0.03 v 0.03 l 0.01,0.02 v 0.03 l 0.01,0.03 0.01,0.03 0.01,0.06 0.02,0.06 v 0.03 l 0.01,0.02 0.01,0.03 v 0.03 l 0.01,0.02 0.01,0.02 v 0.02 l 0.01,0.02 v 0.01 0.01 0.01 0.01 h 0.01 v 0.01 0.01 0 0.01 0 0 0.01 c 0,0.04 0,0.5 -0.59,0.5 -0.5,0 -0.55,-0.16 -0.75,-1 l -2.89,-11.5 c -7.92,-0.25 -15.25,-6.88 -15.25,-13.66 0,-4.73 3.48,-8.67 9.56,-9.01 l 0.25,1.09 c -2.98,0.14 -6.58,1.89 -6.58,6.87 0,5.99 4.3,12.96 11.72,13.6 l -5.14,-20.47 -0.25,-1.09 c -0.39,-1.55 -0.73,-3.15 -1.14,-4.69 -0.59,-2.35 -1.09,-4.24 -1.09,-4.39 0,-0.49 0.34,-0.55 0.59,-0.55 0.25,0 0.36,0.06 0.5,0.2 0.09,0.1 0.41,1.3 0.55,2 l 1.89,7.43 0.25,1.09 5.14,20.47 c 3.78,-0.19 6.62,-2.49 6.62,-6.88 0,-5.87 -4.28,-13 -11.76,-13.59 l -0.25,-1.09 c 8.03,0.25 15.25,6.96 15.25,13.64 0,3.93 -2.64,8.53 -9.57,9.03 z"
       inkscape:connector-curvature="0"
       style="fill:#000000;stroke-width:0" /></g></g><g
   id="g2288"
   transform="translate(143.07134,49.558373)"><g
     word-spacing="normal"
     letter-spacing="normal"
     font-size-adjust="none"
     font-stretch="normal"
     font-weight="normal"
     font-variant="normal"
     font-style="normal"
     stroke-miterlimit="10.433"
     xml:space="preserve"
     transform="matrix(0.3,0,0,-0.3,-52.5,222.75)"
     id="g2286"
     style="font-style:normal;font-variant:normal;font-weight:normal;font-stretch:normal;letter-spacing:normal;word-spacing:normal;text-anchor:start;fill:none;fill-opacity:1;fill-rule:evenodd;stroke:#000000;stroke-linecap:butt;stroke-linejoin:miter;stroke-miterlimit:10.43299961;stroke-dasharray:none;stroke-dashoffset:0;stroke-opacity:1"><polygon
       id="polygon2282"
       points="478.08,434 471.45,440.78 464.78,434 465.67,433.11 471.45,438.18 477.19,433.11 "
       style="fill:#000000;stroke-width:0" /><path
       id="path2284"
       d="m 479.73,425.18 0.01,0.04 0.01,0.03 0.02,0.06 0.01,0.05 0.02,0.06 0.01,0.05 0.01,0.04 0.01,0.05 0.01,0.04 0.01,0.04 0.01,0.04 0.01,0.04 0.01,0.04 v 0.03 l 0.01,0.03 v 0.03 l 0.01,0.03 v 0.03 l 0.01,0.03 v 0.05 l 0.01,0.06 v 0.05 0.05 0.05 0.03 0.03 0.03 0.03 c 0,0.91 -0.69,1.35 -1.44,1.35 -0.5,0 -1.29,-0.3 -1.75,-1.05 -0.09,-0.25 -0.5,-1.78 -0.68,-2.69 -0.36,-1.29 -0.71,-2.64 -1,-3.98 l -2.25,-8.97 c -0.19,-0.75 -2.33,-4.23 -5.63,-4.23 -2.53,0 -3.09,2.18 -3.09,4.03 0,2.29 0.86,5.39 2.54,9.76 0.8,2.05 1,2.6 1,3.6 0,2.23 -1.59,4.07 -4.09,4.07 -4.73,0 -6.58,-7.21 -6.58,-7.67 0,-0.5 0.5,-0.5 0.61,-0.5 0.5,0 0.55,0.11 0.8,0.91 1.34,4.69 3.33,6.17 5.03,6.17 0.39,0 1.25,0 1.25,-1.59 0,-1.25 -0.5,-2.53 -0.86,-3.49 -1.98,-5.28 -2.89,-8.12 -2.89,-10.47 0,-4.42 3.14,-5.92 6.08,-5.92 1.95,0 3.64,0.85 5.03,2.24 -0.64,-2.58 -1.23,-5.03 -3.23,-7.68 -1.3,-1.68 -3.19,-3.14 -5.49,-3.14 -0.69,0 -2.94,0.16 -3.78,2.1 0.8,0 1.45,0 2.14,0.61 0.5,0.43 1,1.09 1,2.03 0,1.55 -1.34,1.75 -1.84,1.75 -1.14,0 -2.8,-0.8 -2.8,-3.24 0,-2.5 2.2,-4.34 5.28,-4.34 5.14,0 10.27,4.55 11.67,10.17 z"
       inkscape:connector-curvature="0"
       style="fill:#000000;stroke-width:0" /></g></g><g
   id="g2439"
   transform="translate(149.72582,172.84139)"><g
     word-spacing="normal"
     letter-spacing="normal"
     font-size-adjust="none"
     font-stretch="normal"
     font-weight="normal"
     font-variant="normal"
     font-style="normal"
     stroke-miterlimit="10.433"
     xml:space="preserve"
     transform="matrix(0.3,0,0,-0.3,-52.5,222.75)"
     id="g2437"
     style="font-style:normal;font-variant:normal;font-weight:normal;font-stretch:normal;letter-spacing:normal;word-spacing:normal;text-anchor:start;fill:none;fill-opacity:1;fill-rule:evenodd;stroke:#000000;stroke-linecap:butt;stroke-linejoin:miter;stroke-miterlimit:10.43299961;stroke-dasharray:none;stroke-dashoffset:0;stroke-opacity:1"><polygon
       id="polygon2433"
       points="477.84,434 471.21,440.78 464.54,434 465.43,433.11 471.21,438.18 476.95,433.11 "
       style="fill:#000000;stroke-width:0" /><path
       id="path2435"
       d="m 472.16,421.25 0.03,0.13 0.03,0.15 0.04,0.16 0.05,0.18 0.05,0.19 0.06,0.21 0.07,0.22 0.07,0.22 0.08,0.23 0.09,0.24 0.09,0.25 0.11,0.24 0.11,0.25 0.12,0.25 0.13,0.25 0.13,0.25 0.15,0.24 0.16,0.24 0.16,0.23 0.18,0.22 0.19,0.22 0.2,0.2 0.21,0.19 0.22,0.18 0.23,0.16 0.24,0.14 0.13,0.07 0.13,0.06 0.13,0.05 0.14,0.05 0.14,0.05 0.14,0.04 0.15,0.03 0.15,0.03 0.15,0.02 0.15,0.02 0.16,0.01 h 0.16 c 0.25,0 1.44,0 2.49,-0.64 -1.39,-0.25 -2.39,-1.5 -2.39,-2.69 0,-0.79 0.54,-1.75 1.89,-1.75 1.09,0 2.69,0.89 2.69,2.89 0,2.6 -2.94,3.28 -4.63,3.28 -2.89,0 -4.64,-2.64 -5.23,-3.78 -1.25,3.28 -3.94,3.78 -5.38,3.78 -5.19,0 -8.03,-6.42 -8.03,-7.67 0,-0.5 0.5,-0.5 0.61,-0.5 0.39,0 0.55,0.11 0.64,0.55 1.69,5.28 4.98,6.53 6.67,6.53 0.96,0 2.69,-0.44 2.69,-3.33 0,-1.54 -0.84,-4.89 -2.69,-11.86 -0.8,-3.09 -2.53,-5.18 -4.73,-5.18 -0.3,0 -1.44,0 -2.49,0.65 1.25,0.24 2.35,1.28 2.35,2.69 0,1.34 -1.1,1.73 -1.85,1.73 -1.5,0 -2.75,-1.29 -2.75,-2.89 0,-2.28 2.5,-3.28 4.69,-3.28 3.3,0 5.08,3.49 5.24,3.78 0.59,-1.84 2.39,-3.78 5.37,-3.78 5.14,0 7.98,6.42 7.98,7.67 0,0.5 -0.45,0.5 -0.61,0.5 -0.43,0 -0.54,-0.2 -0.64,-0.54 -1.64,-5.33 -5.03,-6.53 -6.62,-6.53 -1.95,0 -2.75,1.59 -2.75,3.29 0,1.1 0.3,2.19 0.86,4.38 z"
       inkscape:connector-curvature="0"
       style="fill:#000000;stroke-width:0" /></g></g></g></svg>