<?xml version="1.0" encoding="UTF-8" standalone="no"?>
<!-- Created with Inkscape (http://www.inkscape.org/) -->

<svg
   width="210mm"
   height="297mm"
   viewBox="0 0 210 297"
   version="1.1"
   id="svg14748"
   inkscape:version="1.2.2 (732a01da63, 2022-12-09)"
   sodipodi:docname="Plattform med telefoni.svg"
   xml:space="preserve"
   inkscape:export-filename="Plattform med telefoni.svg"
   inkscape:export-xdpi="96"
   inkscape:export-ydpi="96"
   xmlns:inkscape="http://www.inkscape.org/namespaces/inkscape"
   xmlns:sodipodi="http://sodipodi.sourceforge.net/DTD/sodipodi-0.dtd"
   xmlns="http://www.w3.org/2000/svg"
   xmlns:svg="http://www.w3.org/2000/svg"><sodipodi:namedview
     id="namedview14750"
     pagecolor="#ffffff"
     bordercolor="#000000"
     borderopacity="0.25"
     inkscape:showpageshadow="2"
     inkscape:pageopacity="0.0"
     inkscape:pagecheckerboard="0"
     inkscape:deskcolor="#d1d1d1"
     inkscape:document-units="mm"
     showgrid="false"
     showguides="false"
     inkscape:zoom="1.0255231"
     inkscape:cx="316.42388"
     inkscape:cy="340.80168"
     inkscape:window-width="1920"
     inkscape:window-height="1001"
     inkscape:window-x="-9"
     inkscape:window-y="-9"
     inkscape:window-maximized="1"
     inkscape:current-layer="layer1" /><defs
     id="defs14745"><marker
   style="overflow:visible"
   id="EmptyTriangleIn"
   refX="0"
   refY="0"
   orient="auto-start-reverse"
   inkscape:stockid="EmptyTriangleIn"
   markerWidth="5.8241119"
   markerHeight="6.7330775"
   viewBox="0 0 5.8241121 6.7330776"
   inkscape:isstock="true"
   inkscape:collect="always"
   preserveAspectRatio="xMidYMid"><path
     transform="scale(0.5)"
     style="fill:context-fill;fill-rule:evenodd;stroke:context-stroke;stroke-width:2"
     d="M 5.77,0 -2.88,5 V -5 Z"
     id="path153" /></marker><marker
   style="overflow:visible"
   id="EmptyTriangleIn_F-0000ff_S-0000ff"
   refX="0"
   refY="0"
   orient="auto-start-reverse"
   inkscape:stockid="EmptyTriangleIn"
   markerWidth="5.8241119"
   markerHeight="6.7330775"
   viewBox="0 0 5.8241121 6.7330776"
   inkscape:isstock="true"
   inkscape:collect="always"
   preserveAspectRatio="xMidYMid"><path
     transform="scale(0.5)"
     style="fill:#0000ff;fill-rule:evenodd;stroke:#0000ff;stroke-width:2"
     d="M 5.77,0 -2.88,5 V -5 Z"
     id="path1387" /></marker><marker
   style="overflow:visible"
   id="marker22504"
   refX="0"
   refY="0"
   orient="auto-start-reverse"
   inkscape:stockid="TriangleStart"
   markerWidth="5.3244081"
   markerHeight="6.155385"
   viewBox="0 0 5.3244081 6.1553851"
   inkscape:isstock="true"
   inkscape:collect="always"
   preserveAspectRatio="xMidYMid"><path
     transform="scale(0.5)"
     style="fill:context-stroke;fill-rule:evenodd;stroke:context-stroke;stroke-width:1pt"
     d="M 5.77,0 -2.88,5 V -5 Z"
     id="path22502" /></marker><marker
   style="overflow:visible"
   id="marker22504_F-000000_S-000000"
   refX="0"
   refY="0"
   orient="auto-start-reverse"
   inkscape:stockid="TriangleStart"
   markerWidth="5.3244081"
   markerHeight="6.155385"
   viewBox="0 0 5.3244081 6.1553851"
   inkscape:isstock="true"
   inkscape:collect="always"
   preserveAspectRatio="xMidYMid"><path
     transform="scale(0.5)"
     style="fill:#000000;fill-rule:evenodd;stroke:#000000;stroke-width:1pt"
     d="M 5.77,0 -2.88,5 V -5 Z"
     id="path1390" /></marker><marker
   style="overflow:visible"
   id="EmptyTriangleIn-4"
   refX="0"
   refY="0"
   orient="auto-start-reverse"
   inkscape:stockid="EmptyTriangleIn"
   markerWidth="5.8241119"
   markerHeight="6.7330775"
   viewBox="0 0 5.8241121 6.7330776"
   inkscape:isstock="true"
   inkscape:collect="always"
   preserveAspectRatio="xMidYMid"><path
     transform="scale(0.5)"
     style="fill:context-fill;fill-rule:evenodd;stroke:context-stroke;stroke-width:2"
     d="M 5.77,0 -2.88,5 V -5 Z"
     id="path153-9" /></marker><marker
   style="overflow:visible"
   id="EmptyTriangleIn-4_F-d40000_S-d40000"
   refX="0"
   refY="0"
   orient="auto-start-reverse"
   inkscape:stockid="EmptyTriangleIn"
   markerWidth="5.8241119"
   markerHeight="6.7330775"
   viewBox="0 0 5.8241121 6.7330776"
   inkscape:isstock="true"
   inkscape:collect="always"
   preserveAspectRatio="xMidYMid"><path
     transform="scale(0.5)"
     style="fill:#d40000;fill-rule:evenodd;stroke:#d40000;stroke-width:2"
     d="M 5.77,0 -2.88,5 V -5 Z"
     id="path1393" /></marker><clipPath
   id="clipPath3347">
      <path
   clip-rule="nonzero"
   d="M 0,6 H 12 V 22.035156 H 0 Z m 0,0"
   id="path4372" />
    </clipPath>
  <clipPath
   id="clipPath5795">
      <path
   clip-rule="nonzero"
   d="M 0,6 H 12 V 22.035156 H 0 Z m 0,0"
   id="path851" />
    </clipPath>
  <clipPath
   id="clipPath5332">
      <path
   clip-rule="nonzero"
   d="M 0,6 H 12 V 22.035156 H 0 Z m 0,0"
   id="path1851" />
    </clipPath>
  <clipPath
   id="clipPath2181">
      <path
   clip-rule="nonzero"
   d="M 0,6 H 12 V 22.035156 H 0 Z m 0,0"
   id="path4098" />
    </clipPath>
  <clipPath
   id="clipPath8023">
      <path
   clip-rule="nonzero"
   d="M 0,6 H 12 V 22.035156 H 0 Z m 0,0"
   id="path8634" />
    </clipPath>
  <clipPath
   id="clipPath3884">
      <path
   clip-rule="nonzero"
   d="M 0,6 H 12 V 22.035156 H 0 Z m 0,0"
   id="path7916" />
    </clipPath>
  <clipPath
   id="clipPath5665">
      <path
   clip-rule="nonzero"
   d="M 0,6 H 12 V 22.035156 H 0 Z m 0,0"
   id="path3998" />
    </clipPath>
  <clipPath
   id="clipPath4027">
      <path
   clip-rule="nonzero"
   d="M 0,6 H 13 V 17.214844 H 0 Z m 0,0"
   id="path1836" />
    </clipPath>
  <clipPath
   id="clipPath8239">
      <path
   clip-rule="nonzero"
   d="M 0,6 H 13 V 17.214844 H 0 Z m 0,0"
   id="path5447" />
    </clipPath>
  <clipPath
   id="clipPath949">
      <path
   clip-rule="nonzero"
   d="M 0,6 H 13 V 17.214844 H 0 Z m 0,0"
   id="path128" />
    </clipPath>
  <clipPath
   id="clipPath6958">
      <path
   clip-rule="nonzero"
   d="M 0,6 H 12 V 22.035156 H 0 Z m 0,0"
   id="path3013" />
    </clipPath>
  </defs><g
     inkscape:label="Lag 1"
     inkscape:groupmode="layer"
     id="layer1"><rect
       style="fill:#999999;stroke:#000000;stroke-width:1"
       id="rect15284"
       width="159.08109"
       height="159.08109"
       x="27.729729"
       y="82.459457"
       ry="0"
       rx="0" /><rect
       style="fill:#999999;stroke:#000000;stroke-width:1"
       id="rect15286"
       width="145.58109"
       height="48.527027"
       x="31.743242"
       y="141.56757"
       ry="0" /><rect
       style="fill:#000000;stroke:#000000;stroke-width:0.874728"
       id="rect15288"
       width="23.111761"
       height="48.652306"
       x="32.045471"
       y="141.86978" /><rect
       style="fill:#000000;stroke:#000000;stroke-width:0.874728"
       id="rect15288-1"
       width="23.111761"
       height="48.652306"
       x="154.45763"
       y="141.68735" /><text
       xml:space="preserve"
       style="font-size:14.1111px;font-family:'Cambria Math';-inkscape-font-specification:'Cambria Math';opacity:0.98;fill:#000000;stroke:#000000;stroke-width:0.499999;stroke-dasharray:none;stroke-opacity:1"
       x="-0.36486548"
       y="262.7027"
       id="text18613"><tspan
         sodipodi:role="line"
         id="tspan18611"
         style="font-size:14.1111px;stroke-width:0.5"
         x="-0.36486548"
         y="262.7027">Plattform for trefot</tspan></text><text
       xml:space="preserve"
       style="font-size:14.1111px;font-family:'Cambria Math';-inkscape-font-specification:'Cambria Math';opacity:0.98;fill:#000000;stroke:#000000;stroke-width:0.499999;stroke-dasharray:none;stroke-opacity:1"
       x="120.77027"
       y="283.5"
       id="text18617"><tspan
         sodipodi:role="line"
         id="tspan18615"
         style="stroke-width:0.5"
         x="120.77027"
         y="283.5">Telefonholder</tspan></text><path
       style="opacity:0.98;fill:#000000;stroke:#000000;stroke-width:1.5;stroke-dasharray:none;stroke-opacity:1;marker-end:url(#marker22504_F-000000_S-000000)"
       d="M 29.918919,250.29729 40.500001,226.21621"
       id="path22500" /><path
       style="opacity:0.98;fill:#4d4d4d;fill-opacity:1;stroke:#000000;stroke-width:7.81805"
       d="m 210.30006,626.76314 v -89.63609 h 185.47777 185.47776 v 89.63609 89.63609 H 395.77783 210.30006 Z"
       id="path2389"
       transform="scale(0.26458333)" /><path
       style="opacity:0.98;fill:#000000;fill-opacity:1;stroke:#000000;stroke-width:1.23599;stroke-opacity:1;marker-end:url(#marker22504_F-000000_S-000000)"
       d="M 187.66773,275.14341 165.72064,196.07374"
       id="path3027" /><g
       inkscape:label="Lag 1"
       id="layer1-8"
       transform="translate(-2.3897447,20.797299)"><path
         style="fill:#000000;stroke:#000000;stroke-width:0"
         d="m 113.47297,173.12838 46.7027,-52.9054"
         id="path348" /><rect
         style="fill:#ffffff;fill-opacity:1;stroke:#000000;stroke-width:2;stroke-dasharray:none"
         id="rect1949"
         width="96.076157"
         height="165.82407"
         x="59.414631"
         y="58.290668"
         ry="15.14046" /><path
         style="fill:#ffffff;fill-opacity:1;stroke:#000000;stroke-width:2;stroke-dasharray:none"
         d="M 59.472972,204.32432 H 156.52702"
         id="path6569" /><path
         style="fill:#ffffff;fill-opacity:1;stroke:#000000;stroke-width:2;stroke-dasharray:none"
         d="M 59.108106,82.459459 H 155.06757"
         id="path6571" /><rect
         style="fill:#ffffff;fill-opacity:1;stroke:#000000;stroke-width:2;stroke-dasharray:none"
         id="rect7358"
         width="55.459457"
         height="6.2027025"
         x="78.445946"
         y="64.216209"
         ry="3.101351" /><circle
         style="fill:#ffffff;fill-opacity:1;stroke:#000000;stroke-width:2;stroke-dasharray:none"
         id="path7556"
         cx="107.45271"
         cy="214.72296"
         r="7.4797297" /><path
         style="fill:#000000;fill-opacity:1;stroke:#000000;stroke-width:10.4241;stroke-dasharray:none"
         d="m 274.99889,841.91525 c -17.04231,-2.19551 -32.81558,-13.70954 -40.61256,-29.64598 -3.40651,-6.96266 -4.0994,-10.26103 -4.55893,-21.70192 l -0.54188,-13.49138 h 176.83493 176.83493 l -0.54189,13.49138 c -0.45951,11.44089 -1.1524,14.73926 -4.55892,21.70192 -8.05424,16.46227 -23.36894,27.33607 -41.85943,29.72117 -5.0659,0.65346 -34.03302,1.18356 -64.37139,1.17801 -51.08606,-0.009 -54.85508,-0.17092 -51.02362,-2.18725 11.62472,-6.11759 17.73266,-16.25084 17.73917,-29.42981 0.009,-19.04487 -13.15515,-32.20943 -32.21885,-32.21885 -19.0475,-0.009 -32.21442,13.15932 -32.21442,32.21885 0,13.17695 6.10652,23.31038 17.73474,29.42981 3.82643,2.01369 -0.10825,2.16772 -52.40263,2.05155 -31.09683,-0.0691 -60.00449,-0.57195 -64.23925,-1.1175 z"
         id="path11750"
         transform="scale(0.26458333)" /><path
         style="fill:#000000;fill-opacity:1;stroke:#000000;stroke-width:10.4241;stroke-dasharray:none"
         d="m 229.8299,285.11173 c 0.44573,-20.77877 0.64149,-22.07714 4.51969,-29.97602 8.11286,-16.52378 23.39319,-27.38042 41.89618,-29.76714 12.01283,-1.54955 247.73653,-1.54955 259.74937,0 18.50298,2.38672 33.78332,13.24336 41.89617,29.76714 3.87819,7.89888 4.07396,9.19725 4.5197,29.97602 l 0.46591,21.71951 H 406.12045 229.36398 Z m 273.75556,-17.70739 c 2.141,-1.58563 4.76886,-5.36087 5.83968,-8.38942 1.76674,-4.99675 1.70292,-6.00639 -0.68951,-10.90721 -5.22312,-10.69948 -0.18607,-10.2234 -108.13125,-10.22001 -92.62678,0.003 -95.98976,0.0933 -100.25652,2.69491 -4.85562,2.96064 -8.68866,9.19649 -8.68065,14.12226 0.008,4.87783 5.07107,12.07442 10.01988,14.24196 3.72417,1.63116 20.32386,1.90104 101.23014,1.64579 95.77357,-0.30216 96.81579,-0.33517 100.66823,-3.18828 z"
         id="path11752"
         transform="scale(0.26458333)" /><path
         style="fill:#999999;fill-opacity:1;stroke:#000000;stroke-width:10.4241;stroke-dasharray:none"
         d="m 394.42692,831.8411 c -15.43701,-8.74304 -15.43701,-31.83637 0,-40.57941 20.6641,-11.70351 43.68674,11.31913 31.98324,31.98324 -6.24977,11.03479 -20.78148,14.9405 -31.98324,8.59617 z"
         id="path11823"
         transform="scale(0.26458333)" /><path
         style="fill:#999999;fill-opacity:1;stroke:#000000;stroke-width:3.77953;stroke-dasharray:none"
         d="m 303.4822,259.15666 c -2.76772,-2.76772 -2.76772,-6.68839 0,-9.45612 1.92836,-1.92836 12.70068,-2.16702 97.81169,-2.16702 85.111,0 95.88333,0.23866 97.81169,2.16702 1.19187,1.19187 2.16703,3.31949 2.16703,4.72806 0,1.40857 -0.97516,3.53619 -2.16703,4.72806 -1.92836,1.92836 -12.70069,2.16703 -97.81169,2.16703 -85.11101,0 -95.88333,-0.23867 -97.81169,-2.16703 z"
         id="path11825"
         transform="scale(0.26458333)" /></g><path
       style="opacity:0.98;fill:#0000ff;stroke:#0000ff;stroke-width:3;stroke-opacity:1;stroke-dasharray:none;marker-end:url(#EmptyTriangleIn_F-0000ff_S-0000ff)"
       d="M 101.43243,170.39189 V 54.364866"
       id="path622" /><path
       style="opacity:0.98;fill:#d40000;stroke:#d40000;stroke-width:2.77278;stroke-dasharray:none;stroke-opacity:1;marker-end:url(#EmptyTriangleIn-4_F-d40000_S-d40000)"
       d="m 100.33784,170.01536 h 99.11713"
       id="path622-2" /><text
       xml:space="preserve"
       style="font-size:14.1111px;font-family:'Cambria Math';-inkscape-font-specification:'Cambria Math';opacity:0.98;fill:#000000;stroke:#000000;stroke-width:1;stroke-dasharray:none;stroke-opacity:1"
       x="118.58108"
       y="48.527027"
       id="text1976"><tspan
         sodipodi:role="line"
         id="tspan1974"
         style="stroke:#000000;stroke-width:1;stroke-dasharray:none;stroke-opacity:1"
         x="118.58108"
         y="48.527027" /></text><text
       xml:space="preserve"
       style="font-size:14.1111px;font-family:'Cambria Math';-inkscape-font-specification:'Cambria Math';opacity:0.98;fill:#000000;stroke:#000000;stroke-width:1;stroke-dasharray:none;stroke-opacity:1"
       x="120.40541"
       y="43.783787"
       id="text3260"><tspan
         sodipodi:role="line"
         style="stroke-width:1"
         x="120.40541"
         y="43.783787"
         id="tspan3262" /></text><text
       xml:space="preserve"
       style="font-size:14.1111px;font-family:'Cambria Math';-inkscape-font-specification:'Cambria Math';opacity:0.98;fill:#000000;stroke:#000000;stroke-width:1"
       x="133.90541"
       y="56.918919"
       id="text378"><tspan
         sodipodi:role="line"
         style="stroke-width:1"
         x="133.90541"
         y="56.918919"
         id="tspan380" /></text><text
       xml:space="preserve"
       style="font-size:14.1111px;font-family:'Cambria Math';-inkscape-font-specification:'Cambria Math';opacity:0.98;fill:#000000;stroke:#000000;stroke-width:1"
       x="246.28378"
       y="45.608109"
       id="text1631"><tspan
         sodipodi:role="line"
         id="tspan1629"
         style="stroke-width:1"
         x="246.28378"
         y="45.608109" /></text><g
       inkscape:label=""
       transform="matrix(3.725963,0,0,3.725963,189.24184,134.25471)"
       id="g2293"><g
   fill="#000000"
   fill-opacity="1"
   id="g19"
   transform="matrix(0.352778,0,0,0.352778,-0.242535,-0.00348345)">
    <g
   id="use17"
   transform="translate(1.886,17.212999)">
      <path
   d="m 5.671875,-17.203125 -3.046875,3.375 0.296875,0.296875 2.75,-2.671875 2.75,2.671875 0.296875,-0.296875 z m 0,0"
   id="path31" />
    </g>
  </g>
  <g
   clip-path="url(#clipPath949)"
   id="g25"
   transform="matrix(0.352778,0,0,0.352778,-0.242535,-0.00348345)">
    <g
   fill="#000000"
   fill-opacity="1"
   id="g23">
      <g
   id="use21"
   transform="translate(0,17.215)">
        <path
   d="m 11.75,-10.109375 c -0.796875,0.140625 -1.09375,0.734375 -1.09375,1.21875 0,0.59375 0.46875,0.78125 0.8125,0.78125 0.75,0 1.265625,-0.640625 1.265625,-1.3125 0,-1.03125 -1.1875,-1.5 -2.234375,-1.5 -1.5,0 -2.34375,1.484375 -2.5625,1.953125 -0.578125,-1.859375 -2.109375,-1.953125 -2.5625,-1.953125 -2.53125,0 -3.859375,3.234375 -3.859375,3.78125 0,0.109375 0.09375,0.234375 0.265625,0.234375 0.203125,0 0.25,-0.15625 0.296875,-0.25 0.84375,-2.75 2.5,-3.28125 3.21875,-3.28125 1.125,0 1.34375,1.046875 1.34375,1.640625 C 6.640625,-8.25 6.5,-7.6875 6.1875,-6.5 l -0.828125,3.40625 c -0.375,1.484375 -1.09375,2.84375 -2.40625,2.84375 -0.125,0 -0.75,0 -1.265625,-0.3125 0.890625,-0.1875 1.09375,-0.921875 1.09375,-1.21875 0,-0.5 -0.375,-0.796875 -0.84375,-0.796875 -0.59375,0 -1.25,0.515625 -1.25,1.3125 0,1.046875 1.171875,1.515625 2.234375,1.515625 1.1875,0 2.03125,-0.9375 2.5625,-1.953125 C 5.875,-0.25 7.109375,0.25 8.03125,0.25 c 2.53125,0 3.859375,-3.25 3.859375,-3.796875 0,-0.125 -0.09375,-0.21875 -0.25,-0.21875 -0.21875,0 -0.234375,0.125 -0.3125,0.328125 -0.671875,2.171875 -2.109375,3.1875 -3.21875,3.1875 -0.875,0 -1.34375,-0.640625 -1.34375,-1.65625 0,-0.546875 0.09375,-0.9375 0.5,-2.578125 L 8.125,-7.859375 C 8.5,-9.34375 9.34375,-10.4375 10.484375,-10.4375 c 0.04687,0 0.734375,0 1.265625,0.328125 z m 0,0"
   id="path35" />
      </g>
    </g>
  </g>
</g><g
       inkscape:label=""
       transform="matrix(3.3908169,0,0,3.3908169,119.84027,46.310667)"
       id="g2480"><g
   fill="#000000"
   fill-opacity="1"
   id="g2470"
   transform="matrix(0.352778,0,0,0.352778,-0.237023,-0.00383671)">
    <g
   id="g2468"
   transform="translate(2.026,17.214001)">
      <path
   d="m 5.671875,-17.203125 -3.046875,3.375 0.296875,0.296875 2.75,-2.671875 2.75,2.671875 0.296875,-0.296875 z m 0,0"
   id="path2466" />
    </g>
  </g>
  <g
   clip-path="url(#clipPath6958)"
   id="g2478"
   transform="matrix(0.352778,0,0,0.352778,-0.237023,-0.00383671)">
    <g
   fill="#000000"
   fill-opacity="1"
   id="g2476">
      <g
   id="g2474"
   transform="translate(0,17.215)">
        <path
   d="M 6.515625,2.78125 C 5.84375,3.71875 4.875,4.5625 3.671875,4.5625 3.375,4.5625 2.1875,4.515625 1.8125,3.375 1.890625,3.390625 2,3.390625 2.0625,3.390625 2.796875,3.390625 3.296875,2.75 3.296875,2.1875 3.296875,1.609375 2.828125,1.40625 2.453125,1.40625 2.0625,1.40625 1.1875,1.703125 1.1875,2.921875 1.1875,4.1875 2.25,5.0625 3.671875,5.0625 c 2.46875,0 4.984375,-2.28125 5.671875,-5.03125 l 2.421875,-9.671875 c 0.03125,-0.125 0.07813,-0.265625 0.07813,-0.421875 0,-0.375 -0.296875,-0.625 -0.671875,-0.625 -0.21875,0 -0.734375,0.109375 -0.9375,0.84375 l -1.82813,7.296875 c -0.125,0.4375 -0.125,0.484375 -0.328125,0.765625 -0.5,0.6875 -1.3125,1.53125 -2.5,1.53125 C 4.1875,-0.25 4.0625,-1.609375 4.0625,-2.28125 c 0,-1.40625 0.671875,-3.3125 1.34375,-5.109375 0.265625,-0.71875 0.421875,-1.0625 0.421875,-1.5625 0,-1.03125 -0.75,-1.96875 -1.96875,-1.96875 -2.265625,0 -3.1875,3.59375 -3.1875,3.78125 0,0.109375 0.09375,0.234375 0.265625,0.234375 0.234375,0 0.25,-0.109375 0.34375,-0.453125 0.609375,-2.078125 1.546875,-3.078125 2.515625,-3.078125 0.21875,0 0.640625,0 0.640625,0.828125 0,0.640625 -0.28125,1.359375 -0.640625,2.296875 -1.21875,3.25 -1.21875,4.0625 -1.21875,4.65625 0,2.359375 1.6875,2.90625 2.921875,2.90625 0.71875,0 1.609375,-0.21875 2.484375,-1.140625 L 8,-0.875 C 7.625,0.59375 7.390625,1.5625 6.515625,2.78125 Z m 0,0"
   id="path2472" />
      </g>
    </g>
  </g>
</g></g></svg>
